<?xml version="1.0" encoding="UTF-8"?>
<svg width="20px" height="20px" viewBox="0 0 20 20" version="1.1" xmlns="http://www.w3.org/2000/svg" xmlns:xlink="http://www.w3.org/1999/xlink">
    <!-- Generator: Sketch 41.2 (35397) - http://www.bohemiancoding.com/sketch -->
    <title>ic_captcha</title>
    <desc>Created with Sketch.</desc>
    <defs></defs>
    <g id="Form-Builder" stroke="none" stroke-width="1" fill="none" fill-rule="evenodd">
        <g id="03_addnew_hover" transform="translate(-677.000000, -657.000000)" fill="#000000">
            <g id="ic_captcha" transform="translate(677.000000, 657.000000)">
                <g id="Capa_1">
                    <g id="Group">
                        <path d="M16.5432,6.5204 C16.27816,6.5204 16.0632,6.73536 16.0632,7.0004 L16.0632,18.99392 L0.96,18.99392 L0.96,3.8908 L12.70336,3.8908 C12.96848,3.8908 13.18336,3.67584 13.18336,3.4108 C13.18336,3.14576 12.96848,2.9308 12.70336,2.9308 L0.48,2.9308 C0.21496,2.9308 0,3.14576 0,3.4108 L0,19.47392 C0,19.73896 0.21496,19.95392 0.48,19.95392 L16.5432,19.95392 C16.80824,19.95392 17.0232,19.73896 17.0232,19.47392 L17.0232,7.0004 C17.0232,6.73536 16.80824,6.5204 16.5432,6.5204 Z" id="Shape"></path>
                        <path d="M19.81336,0.14064 C19.62592,-0.0468 19.322,-0.04696 19.13456,0.14064 L6.43328,12.84184 L3.28184,9.6904 C3.0944,9.50288 2.7904,9.50288 2.60304,9.6904 C2.4156,9.87784 2.4156,10.18176 2.60304,10.36912 L6.09392,13.86 C6.1876,13.95376 6.31048,14.00064 6.43336,14.00064 C6.55624,14.00064 6.67904,13.95376 6.7728,13.86 L19.81336,0.81944 C20.00088,0.632 20.00088,0.32808 19.81336,0.14064 Z" id="Shape"></path>
                    </g>
                </g>
            </g>
        </g>
    </g>
</svg>