<?xml version="1.0" encoding="UTF-8"?>
<svg width="21px" height="20px" viewBox="0 0 21 20" version="1.1" xmlns="http://www.w3.org/2000/svg" xmlns:xlink="http://www.w3.org/1999/xlink">
    <!-- Generator: Sketch 42 (36781) - http://www.bohemiancoding.com/sketch -->
    <title>ic_mult_choice_selected</title>
    <desc>Created with Sketch.</desc>
    <defs></defs>
    <g id="Form-Builder" stroke="none" stroke-width="1" fill="none" fill-rule="evenodd">
        <g id="03_addnew_icons" transform="translate(-413.000000, -824.000000)" fill="#C32026">
            <g id="ic_mult_choice_selected" transform="translate(413.000000, 824.000000)">
                <g id="Capa_1">
                    <g id="Group">
                        <path d="M18.6260118,5.40105176 C18.9485224,5.40105176 19.2094165,5.66229176 19.2095153,5.98440706 L19.2095153,16.6372376 C19.2095153,18.4064753 17.7703482,19.84584 16.0008141,19.84584 L3.20860235,19.84584 C1.43971059,19.84584 0,18.4064753 0,16.6372376 L0,3.84497647 C0,2.07578824 1.43971059,0.636423529 3.20860235,0.636374118 L16.0008141,0.636374118 C16.3233741,0.636374118 16.5843176,0.897564706 16.5843176,1.21977882 C16.5843176,1.54194353 16.3232259,1.80318353 16.0008141,1.80318353 L3.20860235,1.80318353 C2.08295294,1.80318353 1.16680941,2.71912941 1.16680941,3.84502588 L1.16680941,16.6372871 C1.16680941,17.7631341 2.08295294,18.67908 3.20860235,18.67908 L16.0008141,18.67908 C17.1265624,18.67908 18.0426071,17.7631341 18.0426071,16.6372871 L18.0426071,5.98445647 C18.0426071,5.66224235 18.3041435,5.40105176 18.6260118,5.40105176 Z M19.9604259,0.194237647 C20.1875718,-0.0336494118 20.5574188,-0.0336494118 20.7852565,0.194237647 C21.0131435,0.421927059 21.0131435,0.791428235 20.7852565,1.01911765 C20.7852565,1.01911765 8.65106118,13.1532141 8.65106118,13.1535106 C8.53716706,13.2675529 8.38784471,13.3244259 8.23857176,13.3244259 C8.08934824,13.3244259 7.94007529,13.2675529 7.82608235,13.1535106 L4.48308,9.81134824 C4.25524235,9.58360941 4.25524235,9.21430588 4.48308,8.98641882 C4.71091765,8.75858118 5.08017176,8.75858118 5.30800941,8.98641882 L8.23797882,11.9160918 L19.9604259,0.194237647 Z" id="Combined-Shape"></path>
                    </g>
                </g>
            </g>
        </g>
    </g>
</svg>