<?xml version="1.0" encoding="UTF-8"?>
<svg width="20px" height="20px" viewBox="0 0 20 20" version="1.1" xmlns="http://www.w3.org/2000/svg" xmlns:xlink="http://www.w3.org/1999/xlink">
    <!-- Generator: Sketch 42 (36781) - http://www.bohemiancoding.com/sketch -->
    <title>ic_media_selected</title>
    <desc>Created with Sketch.</desc>
    <defs></defs>
    <g id="Form-Builder" stroke="none" stroke-width="1" fill="none" fill-rule="evenodd">
        <g id="03_addnew_icons" transform="translate(-449.000000, -824.000000)" fill="#C32026">
            <g id="ic_media_selected" transform="translate(449.373003, 824.000000)">
                <g id="Capa_1">
                    <g id="Group">
                        <path d="M5,9.28384615 C6.18115385,9.28384615 7.14192308,8.32307692 7.14192308,7.14230769 C7.14192308,5.96076923 6.18115385,5 5,5 C3.81884615,5 2.85807692,5.96076923 2.85807692,7.14192308 C2.85807692,8.32307692 3.81884615,9.28384615 5,9.28384615 Z M5,5.76923077 C5.75692308,5.76923077 6.37269231,6.38538462 6.37269231,7.14192308 C6.37269231,7.89846154 5.75692308,8.51461538 5,8.51461538 C4.24307692,8.51461538 3.62730769,7.89884615 3.62730769,7.14230769 C3.62730769,6.38576923 4.24307692,5.76923077 5,5.76923077 Z" id="Shape"></path>
                        <path d="M0,0 L0,15.3846154 L0,20 L19.2307692,20 L19.2307692,15.3846154 L19.2307692,0 L0,0 Z M0.769230769,0.769230769 L18.4615385,0.769230769 L18.4615385,11.0488462 L14.4907692,7.40884615 C14.4153846,7.34 14.3161538,7.30576923 14.2138462,7.30807692 C14.1119231,7.31269231 14.0157692,7.35769231 13.9469231,7.43307692 L10.18,11.5588462 L8.35576923,9.73461538 C8.21192308,9.59115385 7.98192308,9.58384615 7.82961538,9.71769231 L1.39307692,15.3846154 L0.769230769,15.3846154 L0.769230769,0.769230769 Z M18.4615385,19.2307692 L0.769230769,19.2307692 L0.769230769,16.1538462 L18.4615385,16.1538462 L18.4615385,19.2307692 Z M2.55730769,15.3846154 L8.06653846,10.5342308 L12.0288462,14.4961538 C12.1792308,14.6465385 12.4223077,14.6465385 12.5726923,14.4961538 C12.7230769,14.3457692 12.7230769,14.1026923 12.5726923,13.9523077 L10.7238462,12.1034615 L14.255,8.23653846 L18.4615385,12.0923077 L18.4615385,15.3846154 L2.55730769,15.3846154 Z" id="Shape"></path>
                    </g>
                </g>
            </g>
        </g>
    </g>
</svg>