<?xml version="1.0" encoding="UTF-8"?>
<svg width="21px" height="20px" viewBox="0 0 21 20" version="1.1" xmlns="http://www.w3.org/2000/svg" xmlns:xlink="http://www.w3.org/1999/xlink">
    <!-- Generator: Sketch 41.2 (35397) - http://www.bohemiancoding.com/sketch -->
    <title>ic_matrix</title>
    <desc>Created with Sketch.</desc>
    <defs></defs>
    <g id="Form-Builder" stroke="none" stroke-width="1" fill="none" fill-rule="evenodd">
        <g id="03_addnew_hover" transform="translate(-566.000000, -659.000000)" fill="#000000">
            <g id="ic_matrix" transform="translate(566.000000, 659.000000)">
                <g id="Layer_1">
                    <path d="M10.24,11.48672 C10.06288,11.48672 9.91932,11.63028 9.91932,11.8074 L9.91932,13.01236 C9.91932,13.18944 10.06284,13.33304 10.24,13.33304 C10.41712,13.33304 10.56068,13.18948 10.56068,13.01236 L10.56068,11.8074 C10.56068,11.63028 10.41712,11.48672 10.24,11.48672 Z" id="Shape"></path>
                    <path d="M10.24,6.66696 C10.06288,6.66696 9.91932,6.81052 9.91932,6.98764 L9.91932,8.1926 C9.91932,8.36968 10.06284,8.51328 10.24,8.51328 C10.41712,8.51328 10.56068,8.36972 10.56068,8.1926 L10.56068,6.98764 C10.56068,6.81056 10.41712,6.66696 10.24,6.66696 Z" id="Shape"></path>
                    <path d="M10.24,13.8966 C10.06288,13.8966 9.91932,14.04016 9.91932,14.21728 L9.91932,15.42224 C9.91932,15.59932 10.06284,15.74292 10.24,15.74292 C10.41712,15.74292 10.56068,15.59936 10.56068,15.42224 L10.56068,14.21728 C10.56068,14.04016 10.41712,13.8966 10.24,13.8966 Z" id="Shape"></path>
                    <path d="M10.24,4.25708 C10.06288,4.25708 9.91932,4.40064 9.91932,4.57776 L9.91932,5.78272 C9.91932,5.9598 10.06284,6.1034 10.24,6.1034 C10.41712,6.1034 10.56068,5.95984 10.56068,5.78272 L10.56068,4.57776 C10.56068,4.40068 10.41712,4.25708 10.24,4.25708 Z" id="Shape"></path>
                    <path d="M6.02272,9.67932 L4.81776,9.67932 C4.64064,9.67932 4.49708,9.82288 4.49708,10 C4.49708,10.17712 4.6406,10.32068 4.81776,10.32068 L6.02272,10.32068 C6.19984,10.32068 6.3434,10.17712 6.3434,10 C6.3434,9.82288 6.19984,9.67932 6.02272,9.67932 Z" id="Shape"></path>
                    <path d="M8.4326,9.67932 L7.2276,9.67932 C7.05048,9.67932 6.90692,9.82288 6.90692,10 C6.90692,10.17712 7.05044,10.32068 7.2276,10.32068 L8.4326,10.32068 C8.60972,10.32068 8.75328,10.17712 8.75328,10 C8.75328,9.82288 8.60972,9.67932 8.4326,9.67932 Z" id="Shape"></path>
                    <path d="M10.84248,9.67932 L10.56068,9.67932 L10.56068,9.39752 C10.56068,9.22044 10.41716,9.07684 10.24,9.07684 C10.06288,9.07684 9.91932,9.2204 9.91932,9.39752 L9.91932,9.67932 L9.63752,9.67932 C9.4604,9.67932 9.31684,9.82288 9.31684,10 C9.31684,10.17712 9.46036,10.32068 9.63752,10.32068 L9.91932,10.32068 L9.91932,10.60248 C9.91932,10.77956 10.06284,10.92316 10.24,10.92316 C10.41712,10.92316 10.56068,10.7796 10.56068,10.60248 L10.56068,10.32068 L10.84248,10.32068 C11.0196,10.32068 11.16316,10.17712 11.16316,10 C11.16316,9.82288 11.01956,9.67932 10.84248,9.67932 Z" id="Shape"></path>
                    <path d="M15.6622,9.67932 L14.4572,9.67932 C14.28008,9.67932 14.13652,9.82288 14.13652,10 C14.13652,10.17712 14.28004,10.32068 14.4572,10.32068 L15.6622,10.32068 C15.83932,10.32068 15.98288,10.17712 15.98288,10 C15.98288,9.82288 15.83932,9.67932 15.6622,9.67932 Z" id="Shape"></path>
                    <path d="M13.25232,9.67932 L12.04736,9.67932 C11.87024,9.67932 11.72668,9.82288 11.72668,10 C11.72668,10.17712 11.8702,10.32068 12.04736,10.32068 L13.25232,10.32068 C13.42944,10.32068 13.573,10.17712 13.573,10 C13.573,9.82288 13.42944,9.67932 13.25232,9.67932 Z" id="Shape"></path>
                    <path d="M17.594,2.41084 L2.886,2.41084 C2.70888,2.41084 2.56532,2.5544 2.56532,2.73152 L2.56532,17.26848 C2.56532,17.44556 2.70884,17.58916 2.886,17.58916 L17.594,17.58916 C17.77112,17.58916 17.91468,17.4456 17.91468,17.26848 L17.91468,2.73152 C17.91464,2.55444 17.77112,2.41084 17.594,2.41084 Z M17.27332,9.67932 L16.86716,9.67932 C16.69004,9.67932 16.54648,9.82288 16.54648,10 C16.54648,10.17712 16.69,10.32068 16.86716,10.32068 L17.27332,10.32068 L17.27332,16.9478 L10.56068,16.9478 L10.56068,16.62712 C10.56068,16.45004 10.41716,16.30644 10.24,16.30644 C10.06288,16.30644 9.91932,16.45 9.91932,16.62712 L9.91932,16.9478 L3.20668,16.9478 L3.20668,10.32068 L3.61288,10.32068 C3.79,10.32068 3.93356,10.17712 3.93356,10 C3.93356,9.82288 3.79004,9.67932 3.61288,9.67932 L3.20668,9.67932 L3.20668,3.0522 L9.91932,3.0522 L9.91932,3.37288 C9.91932,3.54996 10.06284,3.69356 10.24,3.69356 C10.41712,3.69356 10.56068,3.55 10.56068,3.37288 L10.56068,3.0522 L17.27332,3.0522 L17.27332,9.67932 L17.27332,9.67932 Z" id="Shape"></path>
                    <path d="M17.594,0.01652 C17.41688,0.01652 17.27332,0.16008 17.27332,0.3372 L17.27332,1.7054 C17.27332,1.88248 17.41684,2.02608 17.594,2.02608 C17.77112,2.02608 17.91468,1.88252 17.91468,1.7054 L17.91468,0.3372 C17.91464,0.16012 17.77112,0.01652 17.594,0.01652 Z" id="Shape"></path>
                    <path d="M20.15932,2.41084 L18.79112,2.41084 C18.614,2.41084 18.47044,2.5544 18.47044,2.73152 C18.47044,2.90864 18.61396,3.0522 18.79112,3.0522 L20.15932,3.0522 C20.33644,3.0522 20.48,2.90864 20.48,2.73152 C20.48,2.5544 20.33648,2.41084 20.15932,2.41084 Z" id="Shape"></path>
                    <path d="M2.886,0.01652 C2.70888,0.01652 2.56532,0.16008 2.56532,0.3372 L2.56532,1.7054 C2.56532,1.88248 2.70884,2.02608 2.886,2.02608 C3.06312,2.02608 3.20668,1.88252 3.20668,1.7054 L3.20668,0.3372 C3.20668,0.16012 3.06316,0.01652 2.886,0.01652 Z" id="Shape"></path>
                    <path d="M1.68884,2.41084 L0.32068,2.41084 C0.14352,2.41084 0,2.55444 0,2.73152 C0,2.9086 0.14352,3.0522 0.32068,3.0522 L1.68888,3.0522 C1.866,3.0522 2.00956,2.90864 2.00956,2.73152 C2.00956,2.5544 1.866,2.41084 1.68884,2.41084 Z" id="Shape"></path>
                    <path d="M17.594,17.97396 C17.41688,17.97396 17.27332,18.11752 17.27332,18.29464 L17.27332,19.66284 C17.27332,19.83992 17.41684,19.98352 17.594,19.98352 C17.77112,19.98352 17.91468,19.83996 17.91468,19.66284 L17.91468,18.29464 C17.91464,18.11752 17.77112,17.97396 17.594,17.97396 Z" id="Shape"></path>
                    <path d="M20.15932,16.9478 L18.79112,16.9478 C18.614,16.9478 18.47044,17.09136 18.47044,17.26848 C18.47044,17.4456 18.61396,17.58916 18.79112,17.58916 L20.15932,17.58916 C20.33644,17.58916 20.48,17.4456 20.48,17.26848 C20.48,17.09136 20.33648,16.9478 20.15932,16.9478 Z" id="Shape"></path>
                    <path d="M2.886,17.97396 C2.70888,17.97396 2.56532,18.11752 2.56532,18.29464 L2.56532,19.66284 C2.56532,19.83992 2.70884,19.98352 2.886,19.98352 C3.06312,19.98352 3.20668,19.83996 3.20668,19.66284 L3.20668,18.29464 C3.20668,18.11752 3.06316,17.97396 2.886,17.97396 Z" id="Shape"></path>
                    <path d="M1.68884,16.9478 L0.32068,16.9478 C0.14356,16.9478 0,17.09136 0,17.26848 C0,17.4456 0.14352,17.58916 0.32068,17.58916 L1.68888,17.58916 C1.866,17.58916 2.00956,17.4456 2.00956,17.26848 C2.00956,17.09136 1.866,16.9478 1.68884,16.9478 Z" id="Shape"></path>
                </g>
            </g>
        </g>
    </g>
</svg>