<?xml version="1.0" encoding="UTF-8"?>
<svg width="20px" height="19px" viewBox="0 0 20 19" version="1.1" xmlns="http://www.w3.org/2000/svg" xmlns:xlink="http://www.w3.org/1999/xlink">
    <!-- Generator: Sketch 41.2 (35397) - http://www.bohemiancoding.com/sketch -->
    <title>ic_pairing</title>
    <desc>Created with Sketch.</desc>
    <defs></defs>
    <g id="Form-Builder" stroke="none" stroke-width="1" fill="none" fill-rule="evenodd">
        <g id="03_addnew_hover" transform="translate(-648.000000, -659.000000)" fill="#000000">
            <g id="ic_pairing" transform="translate(648.000000, 659.000000)">
                <g id="Capa_1">
                    <g id="Group">
                        <path d="M0.653846154,8.92307692 C0.866538462,8.92307692 1.03846154,8.75115385 1.03846154,8.53846154 C1.03846154,6.20576923 2.93653846,4.30769231 5.26923077,4.30769231 L14.5,4.30769231 L14.5,7.75538462 L19.7692308,3.92307692 L14.5,0.0907692308 L14.5,3.53846154 L5.26923077,3.53846154 C2.51230769,3.53846154 0.269230769,5.78153846 0.269230769,8.53846154 C0.269230769,8.75115385 0.441153846,8.92307692 0.653846154,8.92307692 Z" id="Shape"></path>
                        <path d="M19.1153846,9.30769231 C18.9026923,9.30769231 18.7307692,9.47961538 18.7307692,9.69230769 C18.7307692,12.025 16.8326923,13.9230769 14.5,13.9230769 L5.26923077,13.9230769 L5.26923077,10.4753846 L0,14.3076923 L5.26923077,18.14 L5.26923077,14.6923077 L14.5,14.6923077 C17.2569231,14.6923077 19.5,12.4492308 19.5,9.69230769 C19.5,9.47961538 19.3280769,9.30769231 19.1153846,9.30769231 Z" id="Shape"></path>
                    </g>
                </g>
            </g>
        </g>
    </g>
</svg>