<?xml version="1.0" encoding="UTF-8"?>
<svg width="15px" height="20px" viewBox="0 0 15 20" version="1.1" xmlns="http://www.w3.org/2000/svg" xmlns:xlink="http://www.w3.org/1999/xlink">
    <!-- Generator: Sketch 42 (36781) - http://www.bohemiancoding.com/sketch -->
    <title>ic_rankorder_selected</title>
    <desc>Created with Sketch.</desc>
    <defs></defs>
    <g id="Form-Builder" stroke="none" stroke-width="1" fill="none" fill-rule="evenodd">
        <g id="03_addnew_icons" transform="translate(-697.000000, -824.000000)" fill="#C32026">
            <g id="ic_rankorder_selected" transform="translate(697.626997, 824.000000)">
                <g id="Layer_1">
                    <g id="Group">
                        <path d="M5.21384929,7.18533605 L0.423625255,7.18533605 C0.199592668,7.18533605 0.0203665988,7.36456212 0.0203665988,7.5885947 L0.0203665988,12.3788187 C0.0203665988,12.6028513 0.199592668,12.7820774 0.423625255,12.7820774 L5.21384929,12.7820774 C5.43788187,12.7820774 5.61710794,12.6028513 5.61710794,12.3788187 L5.61710794,7.5885947 C5.61710794,7.36456212 5.43788187,7.18533605 5.21384929,7.18533605 Z M4.81059063,11.9755601 L0.82688391,11.9755601 L0.82688391,7.99185336 L4.81059063,7.99185336 L4.81059063,11.9755601 Z" id="Shape"></path>
                        <path d="M0.423625255,19.9674134 L5.21384929,19.9674134 C5.43788187,19.9674134 5.61710794,19.7881874 5.61710794,19.5641548 L5.61710794,17.5723014 L13.6782077,17.5723014 C13.9022403,17.5723014 14.0814664,17.3930754 14.0814664,17.1690428 L14.0814664,2.71283096 C14.0814664,2.48879837 13.9022403,2.3095723 13.6782077,2.3095723 L8.57841141,2.3095723 L9.40936864,1.47861507 C9.56822811,1.3197556 9.56822811,1.06720978 9.40936864,0.908350305 C9.25050916,0.749490835 8.99796334,0.749490835 8.83910387,0.908350305 L7.3197556,2.42769857 C7.16089613,2.58655804 7.16089613,2.83910387 7.3197556,2.99796334 L8.83910387,4.51731161 C8.91649695,4.59470468 9.02240326,4.63543788 9.12423625,4.63543788 C9.22606925,4.63543788 9.33197556,4.59470468 9.40936864,4.51731161 C9.56822811,4.35845214 9.56822811,4.10590631 9.40936864,3.94704684 L8.57841141,3.11608961 L13.2749491,3.11608961 L13.2749491,16.7657841 L5.61710794,16.7657841 L5.61710794,14.7739308 C5.61710794,14.5498982 5.43788187,14.3706721 5.21384929,14.3706721 L0.423625255,14.3706721 C0.199592668,14.3706721 0.0203665988,14.5498982 0.0203665988,14.7739308 L0.0203665988,19.5641548 C0.0203665988,19.7841141 0.203665988,19.9674134 0.423625255,19.9674134 Z M0.82688391,15.1771894 L4.81059063,15.1771894 L4.81059063,19.1608961 L0.82688391,19.1608961 L0.82688391,15.1771894 Z" id="Shape"></path>
                        <path d="M5.61710794,0.403258656 C5.61710794,0.179226069 5.43788187,0 5.21384929,0 L0.423625255,0 C0.199592668,0 0.0203665988,0.179226069 0.0203665988,0.403258656 L0.0203665988,5.19348269 C0.0203665988,5.41751527 0.199592668,5.59674134 0.423625255,5.59674134 L5.21384929,5.59674134 C5.43788187,5.59674134 5.61710794,5.41751527 5.61710794,5.19348269 L5.61710794,0.403258656 L5.61710794,0.403258656 Z M4.81059063,4.79022403 L0.82688391,4.79022403 L0.82688391,0.806517312 L4.81059063,0.806517312 L4.81059063,4.79022403 Z" id="Shape"></path>
                    </g>
                </g>
            </g>
        </g>
    </g>
</svg>