<?xml version="1.0" encoding="UTF-8"?>
<svg width="18px" height="18px" viewBox="0 0 18 18" version="1.1" xmlns="http://www.w3.org/2000/svg" xmlns:xlink="http://www.w3.org/1999/xlink">
    <!-- Generator: Sketch 41.2 (35397) - http://www.bohemiancoding.com/sketch -->
    <title>ic_variables</title>
    <desc>Created with Sketch.</desc>
    <defs></defs>
    <g id="Analyse" stroke="none" stroke-width="1" fill="none" fill-rule="evenodd">
        <g id="01_analyse_landing" transform="translate(-29.000000, -240.000000)" fill="#C32026">
            <g id="Variables" transform="translate(-1.000000, 220.000000)">
                <g id="Group-2" transform="translate(1.000000, 0.000000)">
                    <g id="ic_variables" transform="translate(29.000000, 20.000000)">
                        <g id="Layer_1">
                            <g id="Group">
                                <path d="M10.4634146,0.0146938776 C10.2621951,0.0146938776 10.1012195,0.176326531 10.1012195,0.378367347 L10.1012195,7.58204082 C10.1012195,7.78408163 10.2621951,7.94571429 10.4634146,7.94571429 L17.6378049,7.94571429 C17.8390244,7.94571429 18,7.78408163 18,7.58204082 C18,5.73428571 17.3304878,3.95632653 16.1121951,2.57142857 C14.6817073,0.947755102 12.6219512,0.0146938776 10.4634146,0.0146938776 Z M10.8256098,7.21836735 L10.8256098,0.753061224 C12.6439024,0.852244898 14.3560976,1.67877551 15.5707317,3.05632653 C16.5914634,4.21346939 17.1841463,5.68285714 17.2682927,7.21836735 L10.8256098,7.21836735 Z" id="Shape"></path>
                                <path d="M16.2329268,9.83387755 C16.2329268,9.63183673 16.0719512,9.47020408 15.8707317,9.47020408 L8.4804878,9.47020408 L8.4804878,2.04612245 C8.4804878,1.84408163 8.3195122,1.68244898 8.11829268,1.68244898 C3.6402439,1.68244898 0,5.33755102 0,9.83387755 C0,14.3265306 3.6402439,17.9853061 8.11829268,17.9853061 C12.5963415,17.9853061 16.2329268,14.3265306 16.2329268,9.83387755 Z M8.11829268,17.2579592 C4.04268293,17.2579592 0.724390244,13.9261224 0.724390244,9.83387755 C0.724390244,5.86285714 3.84512195,2.60816327 7.75609756,2.41714286 L7.75609756,9.83020408 C7.75609756,10.0322449 7.91707317,10.1938776 8.11829268,10.1938776 L15.5012195,10.1938776 C15.3109756,14.1208163 12.0731707,17.2579592 8.11829268,17.2579592 Z" id="Shape"></path>
                            </g>
                        </g>
                    </g>
                </g>
            </g>
        </g>
    </g>
</svg>