<?xml version="1.0" encoding="UTF-8"?>
<svg width="40px" height="40px" viewBox="0 0 40 40" version="1.1" xmlns="http://www.w3.org/2000/svg" xmlns:xlink="http://www.w3.org/1999/xlink">
    <!-- Generator: Sketch 42 (36781) - http://www.bohemiancoding.com/sketch -->
    <title>ic_crosstab_landing</title>
    <desc>Created with Sketch.</desc>
    <defs></defs>
    <g id="Analyse" stroke="none" stroke-width="1" fill="none" fill-rule="evenodd">
        <g id="01_analyse_landing" transform="translate(-738.000000, -467.000000)" fill="#C32026">
            <path d="M777.256686,504.260585 L776.591345,504.260585 L776.591345,503.595244 C776.591345,503.196023 776.325224,502.929903 775.926004,502.929903 C775.526784,502.929903 775.260663,503.196023 775.260663,503.595244 L775.260663,504.260585 L773.264561,504.260585 L773.264561,503.595244 C773.264561,503.196023 772.998441,502.929903 772.59922,502.929903 C772.2,502.929903 771.933879,503.196023 771.933879,503.595244 L771.933879,504.260585 L769.937778,504.260585 L769.937778,503.595244 C769.937778,503.196023 769.671657,502.929903 769.272437,502.929903 C768.873216,502.929903 768.607096,503.196023 768.607096,503.595244 L768.607096,504.260585 L766.610994,504.260585 L766.610994,503.595244 C766.610994,503.196023 766.344873,502.929903 765.945653,502.929903 C765.546433,502.929903 765.280312,503.196023 765.280312,503.595244 L765.280312,504.260585 L763.284211,504.260585 L763.284211,503.595244 C763.284211,503.196023 763.01809,502.929903 762.618869,502.929903 C762.219649,502.929903 761.953528,503.196023 761.953528,503.595244 L761.953528,504.260585 L759.957427,504.260585 L759.957427,503.595244 C759.957427,503.196023 759.691306,502.929903 759.292086,502.929903 C758.892865,502.929903 758.626745,503.196023 758.626745,503.595244 L758.626745,504.260585 L756.630643,504.260585 L756.630643,503.595244 C756.630643,503.196023 756.364522,502.929903 755.965302,502.929903 C755.566082,502.929903 755.299961,503.196023 755.299961,503.595244 L755.299961,504.260585 L753.30386,504.260585 L753.30386,503.595244 C753.30386,503.196023 753.037739,502.929903 752.638519,502.929903 C752.239298,502.929903 751.973177,503.196023 751.973177,503.595244 L751.973177,504.260585 L749.977076,504.260585 L749.977076,503.595244 C749.977076,503.196023 749.710955,502.929903 749.311735,502.929903 C748.912515,502.929903 748.646394,503.196023 748.646394,503.595244 L748.646394,504.260585 L746.650292,504.260585 L746.650292,503.595244 C746.650292,503.196023 746.384172,502.929903 745.984951,502.929903 C745.585731,502.929903 745.31961,503.196023 745.31961,503.595244 L745.31961,504.260585 L743.323509,504.260585 L743.323509,503.595244 C743.323509,503.196023 743.057388,502.929903 742.658168,502.929903 C742.258947,502.929903 741.992827,503.196023 741.992827,503.595244 L741.992827,504.260585 L740.999922,504.260585 L746.976062,490.515478 C747.464483,490.794152 748.033294,490.953216 748.645848,490.953216 C749.50386,490.953216 750.276647,490.642183 750.861287,490.125224 L754.09848,494.009903 C754.014503,494.305809 753.968733,494.619337 753.968733,494.945419 C753.968733,496.808421 755.432515,498.272281 757.295595,498.272281 C759.158674,498.272281 760.622456,496.808499 760.622456,494.945419 C760.622456,494.20694 760.391813,493.531696 759.998129,492.984951 L764.259805,483.852788 C764.751735,484.137076 765.326238,484.299493 765.945419,484.299493 C766.609513,484.299493 767.2223,484.112749 767.736686,483.789006 L772.066823,489.356257 C772.077193,489.371774 772.088655,489.385107 772.099727,489.399064 C771.580741,489.984172 771.268382,490.758596 771.268382,491.61848 C771.268382,493.481481 772.732164,494.945341 774.595244,494.945341 C776.458246,494.945341 777.922105,493.481559 777.922105,491.61848 C777.922105,489.7554 776.458324,488.291618 774.595244,488.291618 C774.079844,488.291618 773.595322,488.404055 773.163587,488.605536 C773.15345,488.589084 773.142846,488.573021 773.131462,488.557739 L768.699727,482.859805 C769.061988,482.32655 769.272359,481.678285 769.272359,480.972554 C769.272359,479.109552 767.808577,477.645692 765.945497,477.645692 C764.082417,477.645692 762.618635,479.109474 762.618635,480.972554 C762.618635,481.711033 762.849279,482.386277 763.242963,482.933021 L758.981287,492.065185 C758.489357,491.780897 757.914854,491.61848 757.295673,491.61848 C756.277505,491.61848 755.379337,492.056296 754.773411,492.756959 L751.773099,489.156725 C751.7423,489.115634 751.704561,489.08 751.662846,489.048889 C751.861676,488.619415 751.97271,488.13809 751.97271,487.626355 C751.97271,485.763353 750.508928,484.299493 748.645848,484.299493 C746.782846,484.299493 745.318986,485.763275 745.318986,487.626355 C745.318986,488.367719 745.551345,489.04538 745.947914,489.593216 L740.661442,501.752125 L740.661442,496.94152 L741.326784,496.94152 C741.726004,496.94152 741.992125,496.6754 741.992125,496.276179 C741.992125,495.876959 741.726004,495.610838 741.326784,495.610838 L740.661442,495.610838 L740.661442,493.614737 L741.326784,493.614737 C741.726004,493.614737 741.992125,493.348616 741.992125,492.949396 C741.992125,492.550175 741.726004,492.284055 741.326784,492.284055 L740.661442,492.284055 L740.661442,490.287953 L741.326784,490.287953 C741.726004,490.287953 741.992125,490.021832 741.992125,489.622612 C741.992125,489.223392 741.726004,488.957271 741.326784,488.957271 L740.661442,488.957271 L740.661442,486.961014 L741.326784,486.961014 C741.726004,486.961014 741.992125,486.694893 741.992125,486.295673 C741.992125,485.896452 741.726004,485.630331 741.326784,485.630331 L740.661442,485.630331 L740.661442,483.63423 L741.326784,483.63423 C741.726004,483.63423 741.992125,483.368109 741.992125,482.968889 C741.992125,482.569669 741.726004,482.303548 741.326784,482.303548 L740.661442,482.303548 L740.661442,480.307446 L741.326784,480.307446 C741.726004,480.307446 741.992125,480.041326 741.992125,479.642105 C741.992125,479.242885 741.726004,478.976764 741.326784,478.976764 L740.661442,478.976764 L740.661442,476.980507 L741.326784,476.980507 C741.726004,476.980507 741.992125,476.714386 741.992125,476.315166 C741.992125,475.915945 741.726004,475.649825 741.326784,475.649825 L740.661442,475.649825 L740.661442,473.653723 L741.326784,473.653723 C741.726004,473.653723 741.992125,473.387602 741.992125,472.988382 C741.992125,472.589162 741.726004,472.323041 741.326784,472.323041 L740.661442,472.323041 L740.661442,470.32694 L741.326784,470.32694 C741.726004,470.32694 741.992125,470.060819 741.992125,469.661598 C741.992125,469.262378 741.726004,468.996257 741.326784,468.996257 L740.661442,468.996257 L740.661442,467.665341 C740.661442,467.266121 740.395322,467 739.996101,467 C739.596881,467 739.33076,467.266121 739.33076,467.665341 L739.33076,468.996101 L738.665341,468.996101 C738.266121,468.996101 738,469.262222 738,469.661442 C738,470.060663 738.266121,470.326784 738.665341,470.326784 L739.330682,470.326784 L739.330682,472.322885 L738.665341,472.322885 C738.266121,472.322963 738,472.589084 738,472.988304 C738,473.387524 738.266121,473.653645 738.665341,473.653645 L739.330682,473.653645 L739.330682,475.649747 L738.665341,475.649747 C738.266121,475.649747 738,475.915867 738,476.315088 C738,476.714308 738.266121,476.980507 738.665341,476.980507 L739.330682,476.980507 L739.330682,478.976608 L738.665341,478.976608 C738.266121,478.976608 738,479.242729 738,479.641949 C738,480.04117 738.266121,480.30729 738.665341,480.30729 L739.330682,480.30729 L739.330682,482.303392 L738.665341,482.303392 C738.266121,482.30347 738,482.569591 738,482.968811 C738,483.368031 738.266121,483.634152 738.665341,483.634152 L739.330682,483.634152 L739.330682,485.630253 L738.665341,485.630253 C738.266121,485.630253 738,485.896374 738,486.295595 C738,486.694815 738.266121,486.961014 738.665341,486.961014 L739.330682,486.961014 L739.330682,488.957115 L738.665341,488.957115 C738.266121,488.957115 738,489.223236 738,489.622456 C738,490.021676 738.266121,490.287797 738.665341,490.287797 L739.330682,490.287797 L739.330682,492.283899 L738.665341,492.283899 C738.266121,492.283977 738,492.550097 738,492.949318 C738,493.348538 738.266121,493.614659 738.665341,493.614659 L739.330682,493.614659 L739.330682,495.61076 L738.665341,495.61076 C738.266121,495.61076 738,495.876881 738,496.276101 C738,496.675322 738.266121,496.94152 738.665341,496.94152 L739.330682,496.94152 L739.330682,498.937622 L738.665341,498.937622 C738.266121,498.937622 738,499.203743 738,499.602963 C738,500.002183 738.266121,500.268304 738.665341,500.268304 L739.330682,500.268304 L739.330682,502.264405 L738.665341,502.264405 C738.266121,502.264483 738,502.530604 738,502.929825 C738,503.329045 738.266121,503.595166 738.665341,503.595166 L739.330682,503.595166 L739.330682,504.925926 C739.330682,505.257778 739.51501,505.497154 739.806394,505.568577 C739.872125,505.590721 739.949942,505.591267 739.996023,505.591267 L741.992125,505.591267 L741.992125,506.256608 C741.992125,506.655828 742.258246,506.921949 742.657466,506.921949 C743.056686,506.921949 743.322807,506.655828 743.322807,506.256608 L743.322807,505.591267 L745.318908,505.591267 L745.318908,506.256608 C745.318908,506.655828 745.585029,506.921949 745.98425,506.921949 C746.38347,506.921949 746.649591,506.655828 746.649591,506.256608 L746.649591,505.591267 L748.645692,505.591267 L748.645692,506.256608 C748.645692,506.655828 748.911813,506.921949 749.311033,506.921949 C749.710253,506.921949 749.976374,506.655828 749.976374,506.256608 L749.976374,505.591267 L751.972476,505.591267 L751.972476,506.256608 C751.972476,506.655828 752.238596,506.921949 752.637817,506.921949 C753.037037,506.921949 753.303158,506.655828 753.303158,506.256608 L753.303158,505.591267 L755.299259,505.591267 L755.299259,506.256608 C755.299259,506.655828 755.56538,506.921949 755.9646,506.921949 C756.363821,506.921949 756.629942,506.655828 756.629942,506.256608 L756.629942,505.591267 L758.626043,505.591267 L758.626043,506.256608 C758.626043,506.655828 758.892164,506.921949 759.291384,506.921949 C759.690604,506.921949 759.956725,506.655828 759.956725,506.256608 L759.956725,505.591267 L761.952827,505.591267 L761.952827,506.256608 C761.952827,506.655828 762.218947,506.921949 762.618168,506.921949 C763.017388,506.921949 763.283509,506.655828 763.283509,506.256608 L763.283509,505.591267 L765.27961,505.591267 L765.27961,506.256608 C765.27961,506.655828 765.545731,506.921949 765.944951,506.921949 C766.344172,506.921949 766.610292,506.655828 766.610292,506.256608 L766.610292,505.591267 L768.606394,505.591267 L768.606394,506.256608 C768.606394,506.655828 768.872515,506.921949 769.271735,506.921949 C769.670955,506.921949 769.937076,506.655828 769.937076,506.256608 L769.937076,505.591267 L771.933177,505.591267 L771.933177,506.256608 C771.933177,506.655828 772.199298,506.921949 772.598519,506.921949 C772.997739,506.921949 773.26386,506.655828 773.26386,506.256608 L773.26386,505.591267 L775.259961,505.591267 L775.259961,506.256608 C775.259961,506.655828 775.526082,506.921949 775.925302,506.921949 C776.324522,506.921949 776.590643,506.655828 776.590643,506.256608 L776.590643,505.591267 L777.255984,505.591267 C777.655205,505.591267 777.921326,505.325146 777.921326,504.925926 C777.921326,504.526706 777.655906,504.260585 777.256686,504.260585 L777.256686,504.260585 Z M776.591267,491.618558 C776.591267,492.749708 775.726316,493.614659 774.595166,493.614659 C773.464016,493.614659 772.599064,492.749708 772.599064,491.618558 C772.599064,490.487407 773.464016,489.622456 774.595166,489.622456 C775.726316,489.622456 776.591267,490.487485 776.591267,491.618558 L776.591267,491.618558 Z M765.945419,478.976608 C767.076569,478.976608 767.94152,479.841559 767.94152,480.97271 C767.94152,482.10386 767.076569,482.968811 765.945419,482.968811 C764.814269,482.968811 763.949318,482.10386 763.949318,480.97271 C763.949318,479.841559 764.814269,478.976608 765.945419,478.976608 L765.945419,478.976608 Z M757.295673,492.949318 C758.426823,492.949318 759.291774,493.814269 759.291774,494.945419 C759.291774,496.076569 758.426823,496.94152 757.295673,496.94152 C756.164522,496.94152 755.299571,496.076569 755.299571,494.945419 C755.299571,493.814269 756.164522,492.949318 757.295673,492.949318 L757.295673,492.949318 Z M748.645848,485.630253 C749.776998,485.630253 750.641949,486.495205 750.641949,487.626355 C750.641949,488.757505 749.776998,489.622456 748.645848,489.622456 C747.514698,489.622456 746.649747,488.757505 746.649747,487.626355 C746.649747,486.495283 747.514776,485.630253 748.645848,485.630253 L748.645848,485.630253 Z" id="ic_crosstab_landing"></path>
        </g>
    </g>
</svg>