<?xml version="1.0" encoding="UTF-8"?>
<svg width="20px" height="20px" viewBox="0 0 20 20" version="1.1" xmlns="http://www.w3.org/2000/svg" xmlns:xlink="http://www.w3.org/1999/xlink">
    <!-- Generator: Sketch 41.2 (35397) - http://www.bohemiancoding.com/sketch -->
    <title>ic_crosstab_active</title>
    <desc>Created with Sketch.</desc>
    <defs></defs>
    <g id="Analyse" stroke="none" stroke-width="1" fill="none" fill-rule="evenodd">
        <g id="02_analyse_onevariable" transform="translate(-416.000000, -185.000000)" fill="#FFFFFF">
            <g id="Group-13" transform="translate(351.000000, 173.000000)">
                <path d="M83.8799756,29.9374775 L83.5599888,29.9374775 L83.5599888,29.6171781 C83.5599888,29.424991 83.4320015,29.2968788 83.2400019,29.2968788 C83.0480022,29.2968788 82.920015,29.424991 82.920015,29.6171781 L82.920015,29.9374775 L81.9600169,29.9374775 L81.9600169,29.6171781 C81.9600169,29.424991 81.8320296,29.2968788 81.64003,29.2968788 C81.4480304,29.2968788 81.3200431,29.424991 81.3200431,29.6171781 L81.3200431,29.9374775 L80.360045,29.9374775 L80.360045,29.6171781 C80.360045,29.424991 80.2320577,29.2968788 80.0400581,29.2968788 C79.8480585,29.2968788 79.7200712,29.424991 79.7200712,29.6171781 L79.7200712,29.9374775 L78.7600731,29.9374775 L78.7600731,29.6171781 C78.7600731,29.424991 78.6320859,29.2968788 78.4400862,29.2968788 C78.2480866,29.2968788 78.1200994,29.424991 78.1200994,29.6171781 L78.1200994,29.9374775 L77.1601012,29.9374775 L77.1601012,29.6171781 C77.1601012,29.424991 77.032114,29.2968788 76.8401144,29.2968788 C76.6481147,29.2968788 76.5201275,29.424991 76.5201275,29.6171781 L76.5201275,29.9374775 L75.5601294,29.9374775 L75.5601294,29.6171781 C75.5601294,29.424991 75.4321421,29.2968788 75.2401425,29.2968788 C75.0481429,29.2968788 74.9201556,29.424991 74.9201556,29.6171781 L74.9201556,29.9374775 L73.9601575,29.9374775 L73.9601575,29.6171781 C73.9601575,29.424991 73.8321702,29.2968788 73.6401706,29.2968788 C73.448171,29.2968788 73.3201837,29.424991 73.3201837,29.6171781 L73.3201837,29.9374775 L72.3601856,29.9374775 L72.3601856,29.6171781 C72.3601856,29.424991 72.2321984,29.2968788 72.0401987,29.2968788 C71.8481991,29.2968788 71.7202119,29.424991 71.7202119,29.6171781 L71.7202119,29.9374775 L70.7602137,29.9374775 L70.7602137,29.6171781 C70.7602137,29.424991 70.6322265,29.2968788 70.4402269,29.2968788 C70.2482272,29.2968788 70.12024,29.424991 70.12024,29.6171781 L70.12024,29.9374775 L69.1602419,29.9374775 L69.1602419,29.6171781 C69.1602419,29.424991 69.0322546,29.2968788 68.840255,29.2968788 C68.6482554,29.2968788 68.5202681,29.424991 68.5202681,29.6171781 L68.5202681,29.9374775 L67.56027,29.9374775 L67.56027,29.6171781 C67.56027,29.424991 67.4322827,29.2968788 67.2402831,29.2968788 C67.0482835,29.2968788 66.9202962,29.424991 66.9202962,29.6171781 L66.9202962,29.9374775 L66.4427722,29.9374775 L69.3169166,23.3204973 C69.5518161,23.4546529 69.8253781,23.5312275 70.1199775,23.5312275 C70.5326267,23.5312275 70.9042885,23.3814942 71.1854629,23.1326269 L72.7423474,25.0027352 C72.70196,25.1451864 72.6799475,25.2961209 72.6799475,25.4530987 C72.6799475,26.3499595 73.3839336,27.0546706 74.2799569,27.0546706 C75.1759801,27.0546706 75.8799663,26.349997 75.8799663,25.4530987 C75.8799663,25.0975901 75.7690415,24.7725236 75.5797043,24.5093173 L77.6293003,20.1130368 C77.8658874,20.2498951 78.1421868,20.3280837 78.4399738,20.3280837 C78.7593606,20.3280837 79.0540726,20.2381837 79.3014596,20.0823319 L81.3839805,22.7624414 C81.388968,22.7699112 81.3944805,22.77633 81.3998055,22.783049 C81.150206,23.0647233 80.9999813,23.4375363 80.9999813,23.8514893 C80.9999813,24.74835 81.7039674,25.4530612 82.5999906,25.4530612 C83.4959764,25.4530612 84.2,24.7483876 84.2,23.8514893 C84.2,22.954591 83.4960139,22.2499174 82.5999906,22.2499174 C82.3521161,22.2499174 82.1190916,22.3040451 81.9114545,22.4010396 C81.9065795,22.3931193 81.9014795,22.3853868 81.8960045,22.3780297 L79.7646212,19.6350089 C79.9388458,19.3782964 80.0400206,19.0662176 80.0400206,18.7264743 C80.0400206,17.8296136 79.3360345,17.1249024 78.4400112,17.1249024 C77.543988,17.1249024 76.8400019,17.829576 76.8400019,18.7264743 C76.8400019,19.0819829 76.9509267,19.4070494 77.1402638,19.6702557 L75.0906678,24.0665362 C74.8540808,23.9296779 74.5777813,23.8514893 74.2799944,23.8514893 C73.7903203,23.8514893 73.3583587,24.062257 73.0669467,24.3995604 L71.6239871,22.6663854 C71.6091746,22.6466037 71.5910246,22.6294495 71.5709622,22.6144724 C71.666587,22.4077211 71.7199869,22.176008 71.7199869,21.9296556 C71.7199869,21.0327949 71.0160007,20.3280837 70.1199775,20.3280837 C69.2239918,20.3280837 68.5199681,21.0327573 68.5199681,21.9296556 C68.5199681,22.2865531 68.6317179,22.6127832 68.8224425,22.876515 L66.279985,28.7298892 L66.279985,26.4140343 L66.5999719,26.4140343 C66.7919715,26.4140343 66.9199588,26.2859221 66.9199588,26.093735 C66.9199588,25.9015479 66.7919715,25.7734356 66.5999719,25.7734356 L66.279985,25.7734356 L66.279985,24.8125 L66.5999719,24.8125 C66.7919715,24.8125 66.9199588,24.6843878 66.9199588,24.4922006 C66.9199588,24.3000135 66.7919715,24.1719013 66.5999719,24.1719013 L66.279985,24.1719013 L66.279985,23.2109657 L66.5999719,23.2109657 C66.7919715,23.2109657 66.9199588,23.0828534 66.9199588,22.8906663 C66.9199588,22.6984792 66.7919715,22.5703669 66.5999719,22.5703669 L66.279985,22.5703669 L66.279985,21.6093562 L66.5999719,21.6093562 C66.7919715,21.6093562 66.9199588,21.481244 66.9199588,21.2890569 C66.9199588,21.0968697 66.7919715,20.9687575 66.5999719,20.9687575 L66.279985,20.9687575 L66.279985,20.0078219 L66.5999719,20.0078219 C66.7919715,20.0078219 66.9199588,19.8797096 66.9199588,19.6875225 C66.9199588,19.4953354 66.7919715,19.3672232 66.5999719,19.3672232 L66.279985,19.3672232 L66.279985,18.4062875 L66.5999719,18.4062875 C66.7919715,18.4062875 66.9199588,18.2781753 66.9199588,18.0859882 C66.9199588,17.893801 66.7919715,17.7656888 66.5999719,17.7656888 L66.279985,17.7656888 L66.279985,16.8046781 L66.5999719,16.8046781 C66.7919715,16.8046781 66.9199588,16.6765659 66.9199588,16.4843788 C66.9199588,16.2921916 66.7919715,16.1640794 66.5999719,16.1640794 L66.279985,16.1640794 L66.279985,15.2031438 L66.5999719,15.2031438 C66.7919715,15.2031438 66.9199588,15.0750315 66.9199588,14.8828444 C66.9199588,14.6906573 66.7919715,14.562545 66.5999719,14.562545 L66.279985,14.562545 L66.279985,13.6016094 L66.5999719,13.6016094 C66.7919715,13.6016094 66.9199588,13.4734972 66.9199588,13.2813101 C66.9199588,13.0891229 66.7919715,12.9610107 66.5999719,12.9610107 L66.279985,12.9610107 L66.279985,12.3202994 C66.279985,12.1281122 66.1519978,12 65.9599981,12 C65.7679985,12 65.6400112,12.1281122 65.6400112,12.3202994 L65.6400112,12.9609356 L65.3199869,12.9609356 C65.1279873,12.9609356 65,13.0890479 65,13.281235 C65,13.4734221 65.1279873,13.6015343 65.3199869,13.6015343 L65.6399738,13.6015343 L65.6399738,14.56247 L65.3199869,14.56247 C65.1279873,14.5625075 65,14.6906197 65,14.8828069 C65,15.074994 65.1279873,15.2031062 65.3199869,15.2031062 L65.6399738,15.2031062 L65.6399738,16.1640419 L65.3199869,16.1640419 C65.1279873,16.1640419 65,16.2921541 65,16.4843412 C65,16.6765283 65.1279873,16.8046781 65.3199869,16.8046781 L65.6399738,16.8046781 L65.6399738,17.7656137 L65.3199869,17.7656137 C65.1279873,17.7656137 65,17.893726 65,18.0859131 C65,18.2781002 65.1279873,18.4062125 65.3199869,18.4062125 L65.6399738,18.4062125 L65.6399738,19.3671481 L65.3199869,19.3671481 C65.1279873,19.3671856 65,19.4952979 65,19.687485 C65,19.8796721 65.1279873,20.0077843 65.3199869,20.0077843 L65.6399738,20.0077843 L65.6399738,20.96872 L65.3199869,20.96872 C65.1279873,20.96872 65,21.0968322 65,21.2890193 C65,21.4812065 65.1279873,21.6093562 65.3199869,21.6093562 L65.6399738,21.6093562 L65.6399738,22.5702919 L65.3199869,22.5702919 C65.1279873,22.5702919 65,22.6984041 65,22.8905912 C65,23.0827783 65.1279873,23.2108906 65.3199869,23.2108906 L65.6399738,23.2108906 L65.6399738,24.1718262 L65.3199869,24.1718262 C65.1279873,24.1718637 65,24.299976 65,24.4921631 C65,24.6843502 65.1279873,24.8124625 65.3199869,24.8124625 L65.6399738,24.8124625 L65.6399738,25.7733981 L65.3199869,25.7733981 C65.1279873,25.7733981 65,25.9015103 65,26.0936974 C65,26.2858846 65.1279873,26.4140343 65.3199869,26.4140343 L65.6399738,26.4140343 L65.6399738,27.37497 L65.3199869,27.37497 C65.1279873,27.37497 65,27.5030822 65,27.6952693 C65,27.8874565 65.1279873,28.0155687 65.3199869,28.0155687 L65.6399738,28.0155687 L65.6399738,28.9765043 L65.3199869,28.9765043 C65.1279873,28.9765419 65,29.1046541 65,29.2968412 C65,29.4890283 65.1279873,29.6171406 65.3199869,29.6171406 L65.6399738,29.6171406 L65.6399738,30.2577768 C65.6399738,30.4175324 65.7286236,30.5327696 65.8687608,30.5671531 C65.9003732,30.5778134 65.9377982,30.5780762 65.9599606,30.5780762 L66.9199588,30.5780762 L66.9199588,30.8983756 C66.9199588,31.0905627 67.047946,31.2186749 67.2399456,31.2186749 C67.4319453,31.2186749 67.5599325,31.0905627 67.5599325,30.8983756 L67.5599325,30.5780762 L68.5199306,30.5780762 L68.5199306,30.8983756 C68.5199306,31.0905627 68.6479179,31.2186749 68.8399175,31.2186749 C69.0319171,31.2186749 69.1599044,31.0905627 69.1599044,30.8983756 L69.1599044,30.5780762 L70.1199025,30.5780762 L70.1199025,30.8983756 C70.1199025,31.0905627 70.2478898,31.2186749 70.4398894,31.2186749 C70.631889,31.2186749 70.7598763,31.0905627 70.7598763,30.8983756 L70.7598763,30.5780762 L71.7198744,30.5780762 L71.7198744,30.8983756 C71.7198744,31.0905627 71.8478616,31.2186749 72.0398613,31.2186749 C72.2318609,31.2186749 72.3598481,31.0905627 72.3598481,30.8983756 L72.3598481,30.5780762 L73.3198463,30.5780762 L73.3198463,30.8983756 C73.3198463,31.0905627 73.4478335,31.2186749 73.6398331,31.2186749 C73.8318328,31.2186749 73.95982,31.0905627 73.95982,30.8983756 L73.95982,30.5780762 L74.9198181,30.5780762 L74.9198181,30.8983756 C74.9198181,31.0905627 75.0478054,31.2186749 75.239805,31.2186749 C75.4318046,31.2186749 75.5597919,31.0905627 75.5597919,30.8983756 L75.5597919,30.5780762 L76.51979,30.5780762 L76.51979,30.8983756 C76.51979,31.0905627 76.6477773,31.2186749 76.8397769,31.2186749 C77.0317765,31.2186749 77.1597638,31.0905627 77.1597638,30.8983756 L77.1597638,30.5780762 L78.1197619,30.5780762 L78.1197619,30.8983756 C78.1197619,31.0905627 78.2477491,31.2186749 78.4397488,31.2186749 C78.6317484,31.2186749 78.7597356,31.0905627 78.7597356,30.8983756 L78.7597356,30.5780762 L79.7197338,30.5780762 L79.7197338,30.8983756 C79.7197338,31.0905627 79.847721,31.2186749 80.0397206,31.2186749 C80.2317203,31.2186749 80.3597075,31.0905627 80.3597075,30.8983756 L80.3597075,30.5780762 L81.3197056,30.5780762 L81.3197056,30.8983756 C81.3197056,31.0905627 81.4476929,31.2186749 81.6396925,31.2186749 C81.8316921,31.2186749 81.9596794,31.0905627 81.9596794,30.8983756 L81.9596794,30.5780762 L82.9196775,30.5780762 L82.9196775,30.8983756 C82.9196775,31.0905627 83.0476648,31.2186749 83.2396644,31.2186749 C83.431664,31.2186749 83.5596513,31.0905627 83.5596513,30.8983756 L83.5596513,30.5780762 L83.8796381,30.5780762 C84.0716378,30.5780762 84.199625,30.449964 84.199625,30.2577768 C84.199625,30.0655897 84.0719753,29.9374775 83.8799756,29.9374775 L83.8799756,29.9374775 Z M83.5599513,23.8515268 C83.5599513,24.3960695 83.1439646,24.8124625 82.5999531,24.8124625 C82.0559417,24.8124625 81.639955,24.3960695 81.639955,23.8515268 C81.639955,23.3069841 82.0559417,22.8905912 82.5999531,22.8905912 C83.1439646,22.8905912 83.5599513,23.3070217 83.5599513,23.8515268 L83.5599513,23.8515268 Z M78.4399738,17.7656137 C78.9839852,17.7656137 79.3999719,18.1820067 79.3999719,18.7265494 C79.3999719,19.2710921 78.9839852,19.687485 78.4399738,19.687485 C77.8959623,19.687485 77.4799756,19.2710921 77.4799756,18.7265494 C77.4799756,18.1820067 77.8959623,17.7656137 78.4399738,17.7656137 L78.4399738,17.7656137 Z M74.2799944,24.4921631 C74.8240058,24.4921631 75.2399925,24.908556 75.2399925,25.4530987 C75.2399925,25.9976414 74.8240058,26.4140343 74.2799944,26.4140343 C73.7359829,26.4140343 73.3199963,25.9976414 73.3199963,25.4530987 C73.3199963,24.908556 73.7359829,24.4921631 74.2799944,24.4921631 L74.2799944,24.4921631 Z M70.1199775,20.96872 C70.6639889,20.96872 71.0799756,21.3851129 71.0799756,21.9296556 C71.0799756,22.4741983 70.6639889,22.8905912 70.1199775,22.8905912 C69.5759661,22.8905912 69.1599794,22.4741983 69.1599794,21.9296556 C69.1599794,21.3851504 69.5760036,20.96872 70.1199775,20.96872 L70.1199775,20.96872 Z" id="ic_crosstab_active"></path>
            </g>
        </g>
    </g>
</svg>