<?xml version="1.0" encoding="UTF-8"?>
<svg width="25px" height="23px" viewBox="0 0 25 23" version="1.1" xmlns="http://www.w3.org/2000/svg" xmlns:xlink="http://www.w3.org/1999/xlink">
    <!-- Generator: Sketch 42 (36781) - http://www.bohemiancoding.com/sketch -->
    <title>ic_download_white</title>
    <desc>Created with Sketch.</desc>
    <defs></defs>
    <g id="Analyse" stroke="none" stroke-width="1" fill="none" fill-rule="evenodd">
        <g id="03_Analyse_report" transform="translate(-1314.000000, -242.000000)" fill="#FFFFFF">
            <g id="ic_download_white" transform="translate(1326.500000, 253.500000) scale(-1, 1) translate(-1326.500000, -253.500000) translate(1314.000000, 242.000000)">
                <g id="Capa_1">
                    <g id="Group">
                        <path d="M24.2425847,11.2184211 C23.845339,11.2184211 23.5275424,11.5342105 23.5275424,11.9289474 L23.5275424,18.3921053 C23.5275424,20.15 22.0868644,21.5763158 20.3230932,21.5763158 L4.6345339,21.5763158 C2.8654661,21.5763158 1.43008475,20.1447368 1.43008475,18.3921053 L1.43008475,11.8236842 C1.43008475,11.4289474 1.11228814,11.1131579 0.715042373,11.1131579 C0.31779661,11.1131579 0,11.4289474 0,11.8236842 L0,18.3921053 C0,20.9342105 2.0815678,22.9973684 4.6345339,22.9973684 L20.3230932,22.9973684 C22.8813559,22.9973684 24.9576271,20.9289474 24.9576271,18.3921053 L24.9576271,11.9289474 C24.9576271,11.5394737 24.6398305,11.2184211 24.2425847,11.2184211 Z" id="Shape"></path>
                        <path d="M11.9756356,17.3552632 C12.1133475,17.4921053 12.2987288,17.5657895 12.4788136,17.5657895 C12.6588983,17.5657895 12.8442797,17.4973684 12.9819915,17.3552632 L17.5264831,12.8394737 C17.8072034,12.5605263 17.8072034,12.1131579 17.5264831,11.8342105 C17.2457627,11.5552632 16.7955508,11.5552632 16.5148305,11.8342105 L13.1938559,15.1394737 L13.1938559,0.723684211 C13.1938559,0.328947368 12.8760593,0.0131578947 12.4788136,0.0131578947 C12.0815678,0.0131578947 11.7637712,0.328947368 11.7637712,0.723684211 L11.7637712,15.1394737 L8.4375,11.8342105 C8.15677966,11.5552632 7.7065678,11.5552632 7.42584746,11.8342105 C7.14512712,12.1131579 7.14512712,12.5605263 7.42584746,12.8394737 L11.9756356,17.3552632 Z" id="Shape"></path>
                    </g>
                </g>
            </g>
        </g>
    </g>
</svg>