<?xml version="1.0" encoding="UTF-8"?>
<svg width="18px" height="18px" viewBox="0 0 18 18" version="1.1" xmlns="http://www.w3.org/2000/svg" xmlns:xlink="http://www.w3.org/1999/xlink">
    <!-- Generator: Sketch 42 (36781) - http://www.bohemiancoding.com/sketch -->
    <title>ic_export_white</title>
    <desc>Created with Sketch.</desc>
    <defs>
        <polygon id="path-1" points="12.6589699 0 0 0 0 13.0367077 12.6589699 13.0367077 12.6589699 1.96765681e-15"></polygon>
    </defs>
    <g id="Analyse" stroke="none" stroke-width="1" fill="none" fill-rule="evenodd">
        <g id="03_Analyse_report" transform="translate(-1265.000000, -245.000000)">
            <g id="ic_export_white" transform="translate(1265.000000, 245.000000)">
                <g id="Group-3" transform="translate(4.984615, 0.000028)">
                    <mask id="mask-2" fill="white">
                        <use xlink:href="#path-1"></use>
                    </mask>
                    <g id="Clip-2"></g>
                    <path d="M12.6399791,3.01322991 C12.636656,2.99882991 12.6355483,2.98442991 12.6313945,2.97058376 C12.611456,2.90744529 12.5804406,2.85039914 12.5411175,2.79861452 C12.5372406,2.79362991 12.5366868,2.78781452 12.5330868,2.78282991 L10.4367791,0.207722217 C10.2404406,-0.033477783 9.88625599,-0.0703085522 9.64450214,0.127137602 C9.40385599,0.324029909 9.36730214,0.679322217 9.56364061,0.920522217 L10.5705329,2.1575376 C9.05382522,1.96812222 7.67142522,2.23424529 7.60717907,2.24726068 C2.70176368,3.02042991 -0.66091324,7.64670683 0.110040606,12.560153 C0.154071375,12.8384607 0.393055991,13.0367376 0.666102145,13.0367376 C0.695179068,13.0367376 0.724255991,13.0345222 0.75388676,13.0300914 C1.06127138,12.981353 1.27090214,12.6927991 1.22299445,12.3851376 C0.548132914,8.08618376 3.49044061,4.03812222 7.80462522,3.35772222 C7.82317907,3.35439914 9.27480984,3.07166068 10.7084406,3.31452222 L9.19560984,4.22282991 C8.92893291,4.38316837 8.84253291,4.72959914 9.00204061,4.99682991 C9.1615483,5.26406068 9.50880984,5.35018376 9.77437907,5.19067606 L12.3852098,3.62301452 C12.3998868,3.61415299 12.4106868,3.60169145 12.424256,3.59199914 C12.4328406,3.58562991 12.4436406,3.58341452 12.4519483,3.57621452 C12.4594252,3.57067606 12.4621945,3.56209145 12.4688406,3.55627606 C12.5181329,3.51196837 12.5624406,3.46267606 12.5931791,3.40424529 C12.5937329,3.40369145 12.5942868,3.40258376 12.5948406,3.40202991 C12.6239175,3.34526068 12.640256,3.28350683 12.6499483,3.21981452 C12.6527175,3.2015376 12.6532714,3.18381452 12.6543791,3.16526068 C12.6549329,3.14559914 12.6599175,3.12621452 12.6588098,3.10682991 C12.6565945,3.07442991 12.6469021,3.04396837 12.6399791,3.01322991" id="Fill-1" fill="#FFFFFF" mask="url(#mask-2)"></path>
                </g>
                <path d="M16.1379692,7.21609231 C15.8267077,7.21609231 15.5747077,7.46864615 15.5747077,7.78018462 L15.5747077,16.0385846 C15.5747077,16.3495692 15.3227077,16.6026769 15.0117231,16.6026769 L1.68950769,16.6026769 C1.3788,16.6026769 1.12652308,16.3495692 1.12652308,16.0385846 L1.12652308,2.69255385 C1.12652308,2.38156923 1.3788,2.12846154 1.68950769,2.12846154 L8.35061538,2.12846154 C8.66215385,2.12846154 8.91387692,1.87590769 8.91387692,1.56436923 C8.91387692,1.25283077 8.66215385,1 8.35061538,1 L1.68950769,1 C0.757661538,1 0,1.75932308 0,2.69255385 L0,16.0385846 C0,16.9720923 0.757661538,17.7311385 1.68950769,17.7311385 L15.0117231,17.7311385 C15.9435692,17.7311385 16.7015077,16.9720923 16.7015077,16.0388615 L16.7015077,7.78018462 C16.7015077,7.46864615 16.4492308,7.21609231 16.1379692,7.21609231" id="Fill-4" fill="#FFFFFF"></path>
            </g>
        </g>
    </g>
</svg>