<?xml version="1.0" encoding="UTF-8"?>
<svg width="40px" height="40px" viewBox="0 0 40 40" version="1.1" xmlns="http://www.w3.org/2000/svg" xmlns:xlink="http://www.w3.org/1999/xlink">
    <!-- Generator: Sketch 41.2 (35397) - http://www.bohemiancoding.com/sketch -->
    <title>ic_tab_landing</title>
    <desc>Created with Sketch.</desc>
    <defs></defs>
    <g id="Analyse" stroke="none" stroke-width="1" fill="none" fill-rule="evenodd">
        <g id="01_analyse_landing" transform="translate(-490.000000, -466.000000)" fill="#C32026">
            <g id="ic_tab_landing" transform="translate(490.000000, 466.000000)">
                <g id="Layer_1">
                    <g id="Group">
                        <g>
                            <g>
                                <path d="M30.8768986,34.6083499 C31.1438569,34.3413917 31.1438569,33.9409145 30.8768986,33.6738767 C30.6099404,33.4069185 30.2094632,33.4069185 29.9424254,33.6738767 C29.6754672,33.940835 29.6754672,34.3413121 29.9424254,34.6083499 C30.2094632,34.8753082 30.6099404,34.8753082 30.8768986,34.6083499 Z M28.0735586,31.8050099 C28.3405169,31.5380517 28.3405169,31.1375746 28.0735586,30.8705368 C27.8066004,30.6035785 27.4061233,30.6035785 27.1390855,30.8705368 C26.8721272,31.137495 26.8721272,31.5379722 27.1390855,31.8050099 C27.4060437,32.0719682 27.8065209,32.0719682 28.0735586,31.8050099 Z M25.2034195,34.6083499 C25.4703777,34.3413917 25.4703777,33.9409145 25.2034195,33.6738767 C24.9364612,33.4069185 24.5359841,33.4069185 24.2689463,33.6738767 C24.0019881,33.940835 24.0019881,34.3413121 24.2689463,34.6083499 C24.5359046,34.8753082 25.0031809,34.8753082 25.2034195,34.6083499 Z M28.0735586,34.6083499 C28.3405169,34.3413917 28.3405169,33.9409145 28.0735586,33.6738767 C27.8066004,33.4069185 27.4061233,33.4069185 27.1390855,33.6738767 C26.8721272,33.940835 26.8721272,34.3413121 27.1390855,34.6083499 C27.4060437,34.8753082 27.8065209,34.8753082 28.0735586,34.6083499 Z M25.2034195,28.9348708 C25.4703777,28.6679125 25.4703777,28.2674354 25.2034195,28.0003976 C24.9364612,27.7334394 24.5359841,27.7334394 24.2689463,28.0003976 C24.0019881,28.2673559 24.0019881,28.667833 24.2689463,28.9348708 C24.5359046,29.201829 25.0031809,29.201829 25.2034195,28.9348708 Z M22.4,31.8050099 C22.6669583,31.5380517 22.6669583,31.1375746 22.4,30.8705368 C22.1330417,30.6035785 21.7325646,30.6035785 21.4655268,30.8705368 C21.1985686,31.137495 21.1985686,31.5379722 21.4655268,31.8050099 C21.7324851,32.0720477 22.1330417,32.0719682 22.4,31.8050099 Z M25.2034195,31.8050099 C25.4703777,31.5380517 25.4703777,31.1375746 25.2034195,30.8705368 C24.9364612,30.6035785 24.5359841,30.6035785 24.2689463,30.8705368 C24.0019881,31.137495 24.0019881,31.5379722 24.2689463,31.8050099 C24.5359046,32.0719682 25.0031809,32.0719682 25.2034195,31.8050099 Z M22.4,37.4784891 C22.6669583,37.2115308 22.6669583,36.8110537 22.4,36.5440159 C22.1330417,36.2770577 21.7325646,36.2770577 21.4655268,36.5440159 C21.1985686,36.8109742 21.1985686,37.2114513 21.4655268,37.4784891 C21.7325646,37.7454473 22.1330417,37.7454473 22.4,37.4784891 Z M19.5299404,34.6083499 C19.7968986,34.3413917 19.7968986,33.9409145 19.5299404,33.6738767 C19.2629821,33.4069185 18.862505,33.4069185 18.5954672,33.6738767 C18.3285089,33.940835 18.3285089,34.3413121 18.5954672,34.6083499 C18.8624254,34.8753082 19.3297018,34.8753082 19.5299404,34.6083499 Z M22.4,34.6083499 C22.6669583,34.3413917 22.6669583,33.9409145 22.4,33.6738767 C22.1330417,33.4069185 21.7325646,33.4069185 21.4655268,33.6738767 C21.1985686,33.940835 21.1985686,34.3413121 21.4655268,34.6083499 C21.7325646,34.8753082 22.1330417,34.8753082 22.4,34.6083499 Z M19.5299404,31.8050099 C19.7968986,31.5380517 19.7968986,31.1375746 19.5299404,30.8705368 C19.2629821,30.6035785 18.862505,30.6035785 18.5954672,30.8705368 C18.3285089,31.137495 18.3285089,31.5379722 18.5954672,31.8050099 C18.8624254,32.0719682 19.3297018,32.0719682 19.5299404,31.8050099 Z M16.7265209,28.9348708 C16.9934791,28.6679125 16.9934791,28.2674354 16.7265209,28.0003976 C16.4595626,27.7334394 16.0590855,27.7334394 15.7920477,28.0003976 C15.5250895,28.2673559 15.5250895,28.667833 15.7920477,28.9348708 C16.059006,29.2019085 16.4595626,29.201829 16.7265209,28.9348708 Z M19.5299404,28.9348708 C19.7968986,28.6679125 19.7968986,28.2674354 19.5299404,28.0003976 C19.2629821,27.7334394 18.862505,27.7334394 18.5954672,28.0003976 C18.3285089,28.2673559 18.3285089,28.667833 18.5954672,28.9348708 C18.8624254,29.201829 19.3297018,29.201829 19.5299404,28.9348708 Z M22.4,28.9348708 C22.6669583,28.6679125 22.6669583,28.2674354 22.4,28.0003976 C22.1330417,27.7334394 21.7325646,27.7334394 21.4655268,28.0003976 C21.1985686,28.2673559 21.1985686,28.667833 21.4655268,28.9348708 C21.7324851,29.2019085 22.1330417,29.201829 22.4,28.9348708 Z M22.4,26.1314513 C22.6669583,25.864493 22.6669583,25.4640159 22.4,25.1969781 C22.1330417,24.9300199 21.7325646,24.9300199 21.4655268,25.1969781 C21.1985686,25.4639364 21.1985686,25.8644135 21.4655268,26.1314513 C21.7324851,26.3984891 22.1330417,26.3984891 22.4,26.1314513 Z M16.7265209,34.6083499 C16.9934791,34.3413917 16.9934791,33.9409145 16.7265209,33.6738767 C16.4595626,33.4069185 16.0590855,33.4069185 15.7920477,33.6738767 C15.5250895,33.940835 15.5250895,34.3413121 15.7920477,34.6083499 C16.0590855,34.8753082 16.4595626,34.8753082 16.7265209,34.6083499 Z M13.9231809,31.8050099 C14.1901392,31.5380517 14.1901392,31.1375746 13.9231809,30.8705368 C13.6562227,30.6035785 13.2557455,30.6035785 12.9887078,30.8705368 C12.7217495,31.137495 12.7217495,31.5379722 12.9887078,31.8050099 C13.255666,32.0719682 13.6561431,32.0719682 13.9231809,31.8050099 Z M16.7265209,31.8050099 C16.9934791,31.5380517 16.9934791,31.1375746 16.7265209,30.8705368 C16.4595626,30.6035785 16.0590855,30.6035785 15.7920477,30.8705368 C15.5250895,31.137495 15.5250895,31.5379722 15.7920477,31.8050099 C16.059006,32.0720477 16.4595626,32.0719682 16.7265209,31.8050099 Z M13.9231809,34.6083499 C14.1901392,34.3413917 14.1901392,33.9409145 13.9231809,33.6738767 C13.6562227,33.4069185 13.2557455,33.4069185 12.9887078,33.6738767 C12.7217495,33.940835 12.7217495,34.3413121 12.9887078,34.6083499 C13.255666,34.8753082 13.6561431,34.8753082 13.9231809,34.6083499 Z M19.5299404,37.4784891 C19.7968986,37.2115308 19.7968986,36.8110537 19.5299404,36.5440159 C19.2629821,36.2770577 18.862505,36.2770577 18.5954672,36.5440159 C18.3285089,36.8109742 18.3285089,37.2114513 18.5954672,37.4784891 C18.8624254,37.7454473 19.3297018,37.7454473 19.5299404,37.4784891 Z M16.7265209,37.4784891 C16.9934791,37.2115308 16.9934791,36.8110537 16.7265209,36.5440159 C16.4595626,36.2770577 16.0590855,36.2770577 15.7920477,36.5440159 C15.5250895,36.8109742 15.5250895,37.2114513 15.7920477,37.4784891 C16.0590855,37.7454473 16.4595626,37.7454473 16.7265209,37.4784891 Z M13.9231809,28.9348708 C14.1901392,28.6679125 14.1901392,28.2674354 13.9231809,28.0003976 C13.6562227,27.7334394 13.2557455,27.7334394 12.9887078,28.0003976 C12.7217495,28.2673559 12.7217495,28.667833 12.9887078,28.9348708 C13.255666,29.201829 13.6561431,29.201829 13.9231809,28.9348708 Z M13.9231809,26.1314513 C14.1901392,25.864493 14.1901392,25.4640159 13.9231809,25.1969781 C13.6562227,24.9300199 13.2557455,24.9300199 12.9887078,25.1969781 C12.7217495,25.4639364 12.7217495,25.8644135 12.9887078,26.1314513 C13.255666,26.3984891 13.6561431,26.3984891 13.9231809,26.1314513 Z M11.0530417,23.2613121 C11.32,22.9943539 11.32,22.5938767 11.0530417,22.326839 C10.7860835,22.0598807 10.3856064,22.0598807 10.1185686,22.326839 C9.85161034,22.5937972 9.85161034,22.9942744 10.1185686,23.2613121 C10.3856064,23.5283499 10.7860835,23.5283499 11.0530417,23.2613121 Z M13.9231809,20.4579722 C14.1901392,20.1910139 14.1901392,19.7905368 13.9231809,19.523499 C13.6562227,19.2565408 13.2557455,19.2565408 12.9887078,19.523499 C12.7217495,19.7904573 12.7217495,20.1909344 12.9887078,20.4579722 C13.255666,20.7249304 13.6561431,20.7249304 13.9231809,20.4579722 Z M11.0530417,28.9348708 C11.32,28.6679125 11.32,28.2674354 11.0530417,28.0003976 C10.7860835,27.7334394 10.3856064,27.7334394 10.1185686,28.0003976 C9.85161034,28.2673559 9.85161034,28.667833 10.1185686,28.9348708 C10.3856064,29.201829 10.7860835,29.201829 11.0530417,28.9348708 Z M8.24970179,26.1314513 C8.51666004,25.864493 8.51666004,25.4640159 8.24970179,25.1969781 C7.98274354,24.9300199 7.5822664,24.9300199 7.31522863,25.1969781 C7.04827038,25.4639364 7.04827038,25.8644135 7.31522863,26.1314513 C7.58218688,26.3984891 7.98266402,26.3984891 8.24970179,26.1314513 Z M4.44508946,28.0003976 C4.17813121,28.2673559 4.17813121,28.667833 4.44508946,28.9348708 C4.71204771,29.201829 5.17932406,29.201829 5.37956262,28.9348708 C5.64652087,28.6679125 5.64652087,28.2674354 5.37956262,28.0003976 C5.11252485,27.7333598 4.71204771,27.7333598 4.44508946,28.0003976 Z M8.24970179,31.8050099 C8.51666004,31.5380517 8.51666004,31.1375746 8.24970179,30.8705368 C7.98274354,30.6035785 7.5822664,30.6035785 7.31522863,30.8705368 C7.04827038,31.137495 7.04827038,31.5379722 7.31522863,31.8050099 C7.58218688,32.0719682 7.98266402,32.0719682 8.24970179,31.8050099 Z M11.0530417,34.6083499 C11.32,34.3413917 11.32,33.9409145 11.0530417,33.6738767 C10.7860835,33.4069185 10.3856064,33.4069185 10.1185686,33.6738767 C9.85161034,33.940835 9.85161034,34.3413121 10.1185686,34.6083499 C10.3856064,34.8753082 10.7860835,34.8753082 11.0530417,34.6083499 Z M11.0530417,26.1314513 C11.32,25.864493 11.32,25.4640159 11.0530417,25.1969781 C10.7860835,24.9300199 10.3856064,24.9300199 10.1185686,25.1969781 C9.85161034,25.4639364 9.85161034,25.8644135 10.1185686,26.1314513 C10.3856064,26.3984891 10.7860835,26.3984891 11.0530417,26.1314513 Z M19.5299404,23.2613121 C19.7968986,22.9943539 19.7968986,22.5938767 19.5299404,22.326839 C19.2629821,22.0598807 18.862505,22.0598807 18.5954672,22.326839 C18.3285089,22.5937972 18.3285089,22.9942744 18.5954672,23.2613121 C18.8624254,23.5283499 19.3297018,23.5283499 19.5299404,23.2613121 Z M16.7265209,23.2613121 C16.9934791,22.9943539 16.9934791,22.5938767 16.7265209,22.326839 C16.4595626,22.0598807 16.0590855,22.0598807 15.7920477,22.326839 C15.5250895,22.5937972 15.5250895,22.9942744 15.7920477,23.2613121 C16.059006,23.5283499 16.4595626,23.5283499 16.7265209,23.2613121 Z M19.5299404,26.1314513 C19.7968986,25.864493 19.7968986,25.4640159 19.5299404,25.1969781 C19.2629821,24.9300199 18.862505,24.9300199 18.5954672,25.1969781 C18.3285089,25.4639364 18.3285089,25.8644135 18.5954672,26.1314513 C18.8624254,26.3984891 19.3297018,26.3984891 19.5299404,26.1314513 Z M16.7265209,20.4579722 C16.9934791,20.1910139 16.9934791,19.7905368 16.7265209,19.523499 C16.4595626,19.2565408 16.0590855,19.2565408 15.7920477,19.523499 C15.5250895,19.7904573 15.5250895,20.1909344 15.7920477,20.4579722 C16.0590855,20.7249304 16.4595626,20.7249304 16.7265209,20.4579722 Z M8.24970179,28.9348708 C8.51666004,28.6679125 8.51666004,28.2674354 8.24970179,28.0003976 C7.98274354,27.7334394 7.5822664,27.7334394 7.31522863,28.0003976 C7.04827038,28.2673559 7.04827038,28.667833 7.31522863,28.9348708 C7.58218688,29.201829 7.98266402,29.201829 8.24970179,28.9348708 Z M11.0530417,31.8050099 C11.32,31.5380517 11.32,31.1375746 11.0530417,30.8705368 C10.7860835,30.6035785 10.3856064,30.6035785 10.1185686,30.8705368 C9.85161034,31.137495 9.85161034,31.5379722 10.1185686,31.8050099 C10.3856064,32.0719682 10.7860835,32.0719682 11.0530417,31.8050099 Z M8.24970179,23.2613121 C8.51666004,22.9943539 8.51666004,22.5938767 8.24970179,22.326839 C7.98274354,22.0598807 7.5822664,22.0598807 7.31522863,22.326839 C7.04827038,22.5937972 7.04827038,22.9942744 7.31522863,23.2613121 C7.58218688,23.5283499 7.98266402,23.5283499 8.24970179,23.2613121 Z M8.24970179,20.4579722 C8.51666004,20.1910139 8.51666004,19.7905368 8.24970179,19.523499 C7.98274354,19.2565408 7.5822664,19.2565408 7.31522863,19.523499 C7.04827038,19.7904573 7.04827038,20.1909344 7.31522863,20.4579722 C7.58218688,20.7249304 7.98266402,20.7249304 8.24970179,20.4579722 Z M4.44508946,16.720159 C4.17813121,16.9871173 4.17813121,17.3875944 4.44508946,17.6546322 C4.71204771,17.9215905 5.17932406,17.9215905 5.37956262,17.6546322 C5.64652087,17.387674 5.64652087,16.9871968 5.37956262,16.720159 C5.11252485,16.4531213 4.71204771,16.4531213 4.44508946,16.720159 Z M4.44508946,22.3269185 C4.17813121,22.5938767 4.17813121,22.9943539 4.44508946,23.2613917 C4.71204771,23.5283499 5.17932406,23.5283499 5.37956262,23.2613917 C5.64652087,22.9944334 5.64652087,22.5939563 5.37956262,22.3269185 C5.11252485,22.0598807 4.71204771,22.0598807 4.44508946,22.3269185 Z M1.64166998,19.523499 C1.37471173,19.7904573 1.37471173,20.1909344 1.64166998,20.4579722 C1.90862823,20.7249304 2.30910537,20.7249304 2.57614314,20.4579722 C2.84310139,20.1910139 2.84310139,19.7905368 2.57614314,19.523499 C2.30918489,19.2565408 1.90870775,19.2565408 1.64166998,19.523499 Z M4.44508946,19.523499 C4.17813121,19.7904573 4.17813121,20.1909344 4.44508946,20.4579722 C4.71204771,20.7249304 5.17932406,20.7249304 5.37956262,20.4579722 C5.64652087,20.1910139 5.64652087,19.7905368 5.37956262,19.523499 C5.11252485,19.2565408 4.71204771,19.2565408 4.44508946,19.523499 Z M8.24970179,17.6546322 C8.51666004,17.387674 8.51666004,16.9871968 8.24970179,16.720159 C7.98274354,16.4532008 7.5822664,16.4532008 7.31522863,16.720159 C7.04819085,16.9871173 7.04827038,17.3875944 7.31522863,17.6546322 C7.58218688,17.9215905 7.98266402,17.9215905 8.24970179,17.6546322 Z M11.0530417,20.4579722 C11.32,20.1910139 11.32,19.7905368 11.0530417,19.523499 C10.7860835,19.2565408 10.3856064,19.2565408 10.1185686,19.523499 C9.85161034,19.7904573 9.85161034,20.1909344 10.1185686,20.4579722 C10.3856064,20.7249304 10.7860835,20.7249304 11.0530417,20.4579722 Z M13.9231809,23.2613121 C14.1901392,22.9943539 14.1901392,22.5938767 13.9231809,22.326839 C13.6562227,22.0598807 13.2557455,22.0598807 12.9887078,22.326839 C12.7217495,22.5937972 12.7217495,22.9942744 12.9887078,23.2613121 C13.255666,23.5283499 13.6561431,23.5283499 13.9231809,23.2613121 Z M4.44508946,11.0466004 C4.17813121,11.3135586 4.17813121,11.7140358 4.44508946,11.9810736 C4.71204771,12.2480318 5.17932406,12.2480318 5.37956262,11.9810736 C5.64652087,11.7141153 5.64652087,11.3136382 5.37956262,11.0466004 C5.11252485,10.7796421 4.71204771,10.7796421 4.44508946,11.0466004 Z M13.9231809,17.6546322 C14.1901392,17.387674 14.1901392,16.9871968 13.9231809,16.720159 C13.6562227,16.4531213 13.2557455,16.4532008 12.9887078,16.720159 C12.7217495,16.9871173 12.7217495,17.3875944 12.9887078,17.6546322 C13.255666,17.9215905 13.6561431,17.9215905 13.9231809,17.6546322 Z M8.24970179,14.784493 C8.51666004,14.5175348 8.51666004,14.1170577 8.24970179,13.8500199 C7.98274354,13.5830616 7.5822664,13.5830616 7.31522863,13.8500199 C7.04819085,14.1169781 7.04827038,14.5174553 7.31522863,14.784493 C7.58218688,15.0514513 7.98266402,15.0514513 8.24970179,14.784493 Z M11.0530417,17.6546322 C11.32,17.387674 11.32,16.9871968 11.0530417,16.720159 C10.7860835,16.4531213 10.3856064,16.4532008 10.1185686,16.720159 C9.85161034,16.9871173 9.85161034,17.3875944 10.1185686,17.6546322 C10.3856064,17.9215905 10.7860835,17.9215905 11.0530417,17.6546322 Z M8.24970179,11.9810736 C8.51666004,11.7141153 8.51666004,11.3136382 8.24970179,11.0466004 C7.98274354,10.7796421 7.5822664,10.7796421 7.31522863,11.0466004 C7.04827038,11.3135586 7.04827038,11.7140358 7.31522863,11.9810736 C7.58218688,12.2481113 7.98266402,12.2481113 8.24970179,11.9810736 Z M11.0530417,14.784493 C11.32,14.5175348 11.32,14.1170577 11.0530417,13.8500199 C10.7860835,13.5829821 10.3856064,13.5830616 10.1185686,13.8500199 C9.85161034,14.1169781 9.85161034,14.5174553 10.1185686,14.784493 C10.3856064,15.0514513 10.7860835,15.0514513 11.0530417,14.784493 Z M4.44508946,13.8500199 C4.17813121,14.1169781 4.17813121,14.5174553 4.44508946,14.784493 C4.71204771,15.0514513 5.17932406,15.0514513 5.37956262,14.784493 C5.64652087,14.5175348 5.64652087,14.1170577 5.37956262,13.8500199 C5.11252485,13.5830616 4.71204771,13.5830616 4.44508946,13.8500199 Z M16.7265209,26.1314513 C16.9934791,25.864493 16.9934791,25.4640159 16.7265209,25.1969781 C16.4595626,24.9300199 16.0590855,24.9300199 15.7920477,25.1969781 C15.5250895,25.4639364 15.5250895,25.8644135 15.7920477,26.1314513 C16.059006,26.3984891 16.4595626,26.3984891 16.7265209,26.1314513 Z M4.44508946,25.1969781 C4.17813121,25.4639364 4.17813121,25.8644135 4.44508946,26.1314513 C4.71204771,26.3984095 5.17932406,26.3984095 5.37956262,26.1314513 C5.64652087,25.864493 5.64652087,25.4640159 5.37956262,25.1969781 C5.11252485,24.9300199 4.71204771,24.9300199 4.44508946,25.1969781 Z M25.2034195,37.4784891 C25.4703777,37.2115308 25.4703777,36.8110537 25.2034195,36.5440159 C24.9364612,36.2770577 24.5359841,36.2770577 24.2689463,36.5440159 C24.0019881,36.8109742 24.0019881,37.2114513 24.2689463,37.4784891 C24.5359046,37.7454473 25.0031809,37.7454473 25.2034195,37.4784891 Z" id="Combined-Shape"></path>
                                <path d="M5.91347913,6.84159046 C5.77996024,6.70807157 5.64652087,6.64135189 5.44628231,6.64135189 C5.24604374,6.64135189 5.04580517,6.70807157 4.91228628,6.84159046 C-1.96262425,14.7177734 -1.56214712,26.7322465 5.91347913,34.1411531 C9.78481113,38.0792048 14.9242942,40.0148708 20.0638569,40.0148708 C24.7361431,40.0148708 29.4084294,38.346163 33.2130417,35.0756262 C33.3465606,34.9421074 33.4132803,34.808668 33.4132803,34.6084294 C33.4132803,34.4749105 33.3465606,34.274672 33.2130417,34.1412326 L5.91347913,6.84159046 L5.91347913,6.84159046 Z M28.2349105,36.7958648 C28.2020676,36.7053678 28.1487873,36.6193241 28.0735586,36.5440159 C27.8066004,36.2770577 27.4061233,36.2770577 27.1390855,36.5440159 C26.9187276,36.7643738 26.8807952,37.0753877 27.0240954,37.3275547 C22.7790855,39.0139165 18.0545527,39.0877932 13.7906163,37.5823459 C13.8372167,37.5538767 13.8819085,37.5197614 13.9231809,37.4784891 C14.1901392,37.2115308 14.1901392,36.8110537 13.9231809,36.5440159 C13.6562227,36.2770577 13.2557455,36.2770577 12.9887078,36.5440159 C12.8019881,36.7307356 12.7463221,36.9827435 12.820835,37.2087475 C11.2252883,36.5432207 9.70743539,35.6487475 8.31856859,34.5274751 C8.5133996,34.2652087 8.49089463,33.9152286 8.24962227,33.6739563 C7.98576541,33.4100994 7.59172962,33.4074751 7.32477137,33.6652087 C7.16389662,33.5153877 7.00445328,33.3632604 6.84795229,33.2067594 C6.36071571,32.7147515 5.90703777,32.2011928 5.48477137,31.6701392 C5.63912525,31.4152684 5.6045328,31.095666 5.3794831,30.8706163 C5.20421471,30.6953479 4.97145129,30.6358648 4.75666004,30.6908151 C3.78449304,29.2901789 3.02170974,27.784334 2.47101392,26.2186083 C2.50775348,26.1937177 2.54298211,26.1646918 2.57606362,26.1316103 C2.84302187,25.8646521 2.84302187,25.464175 2.57606362,25.1971372 C2.43689861,25.0579722 2.2615507,24.9920477 2.08771372,24.9979324 C1.93375746,24.4424652 1.80580517,23.8811928 1.70337972,23.3161034 C1.96755467,23.5265209 2.32882704,23.5086282 2.5759841,23.2614712 C2.84294235,22.9945129 2.84294235,22.5940358 2.5759841,22.326998 C2.30902584,22.0600398 1.90854871,22.0600398 1.64151093,22.326998 C1.61200795,22.356501 1.58632207,22.387833 1.56333996,22.4202783 C1.3495825,20.8025447 1.34441352,19.1623062 1.55109344,17.5442545 C1.57677932,17.5829026 1.60675944,17.6199602 1.64151093,17.6547117 C1.90846918,17.92167 2.30894632,17.92167 2.5759841,17.6547117 C2.84294235,17.3877535 2.84294235,16.9872763 2.5759841,16.7202386 C2.32198807,16.4662425 1.94743539,16.4543936 1.68166998,16.6836581 C2.21065606,13.6639364 3.4838171,10.7510934 5.51284294,8.24333996 L31.8112127,34.5417097 C30.688827,35.44167 29.4877932,36.1921272 28.2349105,36.7958648 L28.2349105,36.7958648 Z" id="Shape"></path>
                                <path d="M19.59666,18.5890258 C19.7301789,18.7225447 19.8636183,18.7892644 20.0638569,18.7892644 C20.1973757,18.7892644 20.3976143,18.7225447 20.5310537,18.5223062 L33.2130417,5.84039761 C33.3465606,5.70687873 33.4132803,5.57343936 33.4132803,5.3732008 C33.4132803,5.17296223 33.3465606,5.03944334 33.1463221,4.90600398 C25.6706163,-1.63522863 14.3236581,-1.63522863 6.84795229,4.90600398 C6.7144334,5.03952286 6.64771372,5.17296223 6.64771372,5.3732008 C6.64771372,5.57343936 6.7144334,5.70695825 6.91467197,5.90719682 L19.59666,18.5890258 L19.59666,18.5890258 Z M22.4648907,1.49304175 C23.3431412,1.60707753 24.2147913,1.78258449 25.0724453,2.02059642 L14.8632207,11.9867197 L13.4542346,10.5777336 L22.4,1.56858847 C22.4240954,1.54449304 22.445169,1.51904573 22.4648907,1.49304175 L22.4648907,1.49304175 Z M28.4534394,3.32461233 L17.3272366,14.4507356 L15.7976938,12.9211928 L26.4959046,2.47777336 C27.1608748,2.7210338 27.8144732,3.00357853 28.4534394,3.32461233 L28.4534394,3.32461233 Z M20.0638569,17.1873559 L18.2617097,15.3852087 L29.6592445,3.98767396 C30.3794036,4.41932406 31.07666,4.90282306 31.7446521,5.43984095 L20.0638569,17.1873559 L20.0638569,17.1873559 Z M20.7553877,1.34934394 L12.519841,9.64326044 L11.0530417,8.17646123 L17.660994,1.56850895 C17.6907356,1.5387674 17.71666,1.50719682 17.7397217,1.47451292 C18.7404374,1.35244533 19.7491849,1.31069583 20.7553877,1.34934394 L20.7553877,1.34934394 Z M15.4652883,1.89534791 L10.1185686,7.24206759 L8.31642147,5.43992048 C10.4633797,3.71387674 12.9092644,2.53272366 15.4652883,1.89534791 L15.4652883,1.89534791 Z" id="Shape"></path>
                                <path d="M35.0819881,6.84159046 C34.9484692,6.70807157 34.8150298,6.64135189 34.6147913,6.64135189 C34.4812724,6.64135189 34.2810338,6.70807157 34.1475944,6.84159046 L21.4656064,19.523499 C21.3320875,19.6570179 21.2653678,19.7904573 21.2653678,19.9906958 C21.2653678,20.1909344 21.3320875,20.3244533 21.4656064,20.4578926 L34.2143141,33.2066004 C34.347833,33.3401193 34.4812724,33.406839 34.6815109,33.406839 C34.8817495,33.406839 35.0819881,33.3401193 35.1487078,33.1398807 C41.6232207,25.6642545 41.6232207,14.3840159 35.0819881,6.84159046 L35.0819881,6.84159046 Z M34.6147117,31.7382107 L22.8672763,19.9907753 L34.547992,8.24326044 C40.0880318,15.0514513 40.0880318,24.9300199 34.6147117,31.7382107 L34.6147117,31.7382107 Z" id="Shape"></path>
                            </g>
                        </g>
                    </g>
                </g>
            </g>
        </g>
    </g>
</svg>