<?xml version="1.0" encoding="UTF-8"?>
<svg width="20px" height="20px" viewBox="0 0 20 20" version="1.1" xmlns="http://www.w3.org/2000/svg" xmlns:xlink="http://www.w3.org/1999/xlink">
    <!-- Generator: Sketch 41.2 (35397) - http://www.bohemiancoding.com/sketch -->
    <title>ic_tab_disabled</title>
    <desc>Created with Sketch.</desc>
    <defs></defs>
    <g id="Analyse" stroke="none" stroke-width="1" fill="none" fill-rule="evenodd">
        <g id="02_analyse_onevariable" transform="translate(-362.000000, -233.000000)" fill="#BCBCBC">
            <g id="Group-13" transform="translate(351.000000, 173.000000)">
                <g id="ic_tab_disabled" transform="translate(11.000000, 60.000000)">
                    <g id="Group">
                        <path d="M14.8209113,16.9951718 C14.9490513,16.8640763 14.9490513,16.6674134 14.8209113,16.5362788 C14.6927714,16.4051832 14.5005423,16.4051832 14.3723642,16.5362788 C14.2442243,16.6673743 14.2442243,16.8640372 14.3723642,16.9951718 C14.5005423,17.1262674 14.6927714,17.1262674 14.8209113,16.9951718 Z M13.4753082,15.6185317 C13.6034481,15.4874361 13.6034481,15.2907732 13.4753082,15.1596386 C13.3471682,15.028543 13.1549392,15.028543 13.026761,15.1596386 C12.8986211,15.2907342 12.8986211,15.487397 13.026761,15.6185317 C13.154901,15.7496272 13.34713,15.7496272 13.4753082,15.6185317 Z M12.0976414,16.9951718 C12.2257813,16.8640763 12.2257813,16.6674134 12.0976414,16.5362788 C11.9695014,16.4051832 11.7772724,16.4051832 11.6490942,16.5362788 C11.5209543,16.6673743 11.5209543,16.8640372 11.6490942,16.9951718 C11.7772342,17.1262674 12.0015268,17.1262674 12.0976414,16.9951718 Z M13.4753082,16.9951718 C13.6034481,16.8640763 13.6034481,16.6674134 13.4753082,16.5362788 C13.3471682,16.4051832 13.1549392,16.4051832 13.026761,16.5362788 C12.8986211,16.6673743 12.8986211,16.8640372 13.026761,16.9951718 C13.154901,17.1262674 13.34713,17.1262674 13.4753082,16.9951718 Z M12.0976414,14.2090883 C12.2257813,14.0779928 12.2257813,13.8813299 12.0976414,13.7501953 C11.9695014,13.6190997 11.7772724,13.6190997 11.6490942,13.7501953 C11.5209543,13.8812908 11.5209543,14.0779537 11.6490942,14.2090883 C11.7772342,14.3401839 12.0015268,14.3401839 12.0976414,14.2090883 Z M10.752,15.6185317 C10.88014,15.4874361 10.88014,15.2907732 10.752,15.1596386 C10.62386,15.028543 10.431631,15.028543 10.3034529,15.1596386 C10.1753129,15.2907342 10.1753129,15.487397 10.3034529,15.6185317 C10.4315928,15.7496663 10.62386,15.7496272 10.752,15.6185317 Z M12.0976414,15.6185317 C12.2257813,15.4874361 12.2257813,15.2907732 12.0976414,15.1596386 C11.9695014,15.028543 11.7772724,15.028543 11.6490942,15.1596386 C11.5209543,15.2907342 11.5209543,15.487397 11.6490942,15.6185317 C11.7772342,15.7496272 12.0015268,15.7496272 12.0976414,15.6185317 Z M10.752,18.4046152 C10.88014,18.2735196 10.88014,18.0768567 10.752,17.9457221 C10.62386,17.8146265 10.431631,17.8146265 10.3034529,17.9457221 C10.1753129,18.0768177 10.1753129,18.2734805 10.3034529,18.4046152 C10.431631,18.5357107 10.62386,18.5357107 10.752,18.4046152 Z M9.37437137,16.9951718 C9.50251133,16.8640763 9.50251133,16.6674134 9.37437137,16.5362788 C9.24623141,16.4051832 9.05400239,16.4051832 8.92582425,16.5362788 C8.79768429,16.6673743 8.79768429,16.8640372 8.92582425,16.9951718 C9.05396421,17.1262674 9.27825686,17.1262674 9.37437137,16.9951718 Z M10.752,16.9951718 C10.88014,16.8640763 10.88014,16.6674134 10.752,16.5362788 C10.62386,16.4051832 10.431631,16.4051832 10.3034529,16.5362788 C10.1753129,16.6673743 10.1753129,16.8640372 10.3034529,16.9951718 C10.431631,17.1262674 10.62386,17.1262674 10.752,16.9951718 Z M9.37437137,15.6185317 C9.50251133,15.4874361 9.50251133,15.2907732 9.37437137,15.1596386 C9.24623141,15.028543 9.05400239,15.028543 8.92582425,15.1596386 C8.79768429,15.2907342 8.79768429,15.487397 8.92582425,15.6185317 C9.05396421,15.7496272 9.27825686,15.7496272 9.37437137,15.6185317 Z M8.02873002,14.2090883 C8.15686998,14.0779928 8.15686998,13.8813299 8.02873002,13.7501953 C7.90059006,13.6190997 7.70836103,13.6190997 7.5801829,13.7501953 C7.45204294,13.8812908 7.45204294,14.0779537 7.5801829,14.2090883 C7.70832286,14.3402229 7.90059006,14.3401839 8.02873002,14.2090883 Z M9.37437137,14.2090883 C9.50251133,14.0779928 9.50251133,13.8813299 9.37437137,13.7501953 C9.24623141,13.6190997 9.05400239,13.6190997 8.92582425,13.7501953 C8.79768429,13.8812908 8.79768429,14.0779537 8.92582425,14.2090883 C9.05396421,14.3401839 9.27825686,14.3401839 9.37437137,14.2090883 Z M10.752,14.2090883 C10.88014,14.0779928 10.88014,13.8813299 10.752,13.7501953 C10.62386,13.6190997 10.431631,13.6190997 10.3034529,13.7501953 C10.1753129,13.8812908 10.1753129,14.0779537 10.3034529,14.2090883 C10.4315928,14.3402229 10.62386,14.3401839 10.752,14.2090883 Z M10.752,12.8324091 C10.88014,12.7013135 10.88014,12.5046507 10.752,12.373516 C10.62386,12.2424205 10.431631,12.2424205 10.3034529,12.373516 C10.1753129,12.5046116 10.1753129,12.7012745 10.3034529,12.8324091 C10.4315928,12.9635437 10.62386,12.9635437 10.752,12.8324091 Z M8.02873002,16.9951718 C8.15686998,16.8640763 8.15686998,16.6674134 8.02873002,16.5362788 C7.90059006,16.4051832 7.70836103,16.4051832 7.5801829,16.5362788 C7.45204294,16.6673743 7.45204294,16.8640372 7.5801829,16.9951718 C7.70836103,17.1262674 7.90059006,17.1262674 8.02873002,16.9951718 Z M6.68312684,15.6185317 C6.8112668,15.4874361 6.8112668,15.2907732 6.68312684,15.1596386 C6.55498688,15.028543 6.36275785,15.028543 6.23457972,15.1596386 C6.10643976,15.2907342 6.10643976,15.487397 6.23457972,15.6185317 C6.36271968,15.7496272 6.55494871,15.7496272 6.68312684,15.6185317 Z M8.02873002,15.6185317 C8.15686998,15.4874361 8.15686998,15.2907732 8.02873002,15.1596386 C7.90059006,15.028543 7.70836103,15.028543 7.5801829,15.1596386 C7.45204294,15.2907342 7.45204294,15.487397 7.5801829,15.6185317 C7.70832286,15.7496663 7.90059006,15.7496272 8.02873002,15.6185317 Z M6.68312684,16.9951718 C6.8112668,16.8640763 6.8112668,16.6674134 6.68312684,16.5362788 C6.55498688,16.4051832 6.36275785,16.4051832 6.23457972,16.5362788 C6.10643976,16.6673743 6.10643976,16.8640372 6.23457972,16.9951718 C6.36271968,17.1262674 6.55494871,17.1262674 6.68312684,16.9951718 Z M9.37437137,18.4046152 C9.50251133,18.2735196 9.50251133,18.0768567 9.37437137,17.9457221 C9.24623141,17.8146265 9.05400239,17.8146265 8.92582425,17.9457221 C8.79768429,18.0768177 8.79768429,18.2734805 8.92582425,18.4046152 C9.05396421,18.5357107 9.27825686,18.5357107 9.37437137,18.4046152 Z M8.02873002,18.4046152 C8.15686998,18.2735196 8.15686998,18.0768567 8.02873002,17.9457221 C7.90059006,17.8146265 7.70836103,17.8146265 7.5801829,17.9457221 C7.45204294,18.0768177 7.45204294,18.2734805 7.5801829,18.4046152 C7.70836103,18.5357107 7.90059006,18.5357107 8.02873002,18.4046152 Z M6.68312684,14.2090883 C6.8112668,14.0779928 6.8112668,13.8813299 6.68312684,13.7501953 C6.55498688,13.6190997 6.36275785,13.6190997 6.23457972,13.7501953 C6.10643976,13.8812908 6.10643976,14.0779537 6.23457972,14.2090883 C6.36271968,14.3401839 6.55494871,14.3401839 6.68312684,14.2090883 Z M6.68312684,12.8324091 C6.8112668,12.7013135 6.8112668,12.5046507 6.68312684,12.373516 C6.55498688,12.2424205 6.36275785,12.2424205 6.23457972,12.373516 C6.10643976,12.5046116 6.10643976,12.7012745 6.23457972,12.8324091 C6.36271968,12.9635437 6.55494871,12.9635437 6.68312684,12.8324091 Z M5.30546004,11.4229658 C5.4336,11.2918702 5.4336,11.0952073 5.30546004,10.9640727 C5.17732008,10.8329771 4.98509105,10.8329771 4.85691292,10.9640727 C4.72877296,11.0951683 4.72877296,11.2918312 4.85691292,11.4229658 C4.98509105,11.5541004 5.17732008,11.5541004 5.30546004,11.4229658 Z M6.68312684,10.0463256 C6.8112668,9.91523005 6.8112668,9.71856717 6.68312684,9.58743255 C6.55498688,9.45633698 6.36275785,9.45633698 6.23457972,9.58743255 C6.10643976,9.71852812 6.10643976,9.915191 6.23457972,10.0463256 C6.36271968,10.1774212 6.55494871,10.1774212 6.68312684,10.0463256 Z M5.30546004,14.2090883 C5.4336,14.0779928 5.4336,13.8813299 5.30546004,13.7501953 C5.17732008,13.6190997 4.98509105,13.6190997 4.85691292,13.7501953 C4.72877296,13.8812908 4.72877296,14.0779537 4.85691292,14.2090883 C4.98509105,14.3401839 5.17732008,14.3401839 5.30546004,14.2090883 Z M3.95985686,12.8324091 C4.08799682,12.7013135 4.08799682,12.5046507 3.95985686,12.373516 C3.8317169,12.2424205 3.63948787,12.2424205 3.51130974,12.373516 C3.38316978,12.5046116 3.38316978,12.7012745 3.51130974,12.8324091 C3.6394497,12.9635437 3.83167873,12.9635437 3.95985686,12.8324091 Z M2.13364294,13.7501953 C2.00550298,13.8812908 2.00550298,14.0779537 2.13364294,14.2090883 C2.2617829,14.3401839 2.48607555,14.3401839 2.58219006,14.2090883 C2.71033002,14.0779928 2.71033002,13.8813299 2.58219006,13.7501953 C2.45401193,13.6190606 2.2617829,13.6190606 2.13364294,13.7501953 Z M3.95985686,15.6185317 C4.08799682,15.4874361 4.08799682,15.2907732 3.95985686,15.1596386 C3.8317169,15.028543 3.63948787,15.028543 3.51130974,15.1596386 C3.38316978,15.2907342 3.38316978,15.487397 3.51130974,15.6185317 C3.6394497,15.7496272 3.83167873,15.7496272 3.95985686,15.6185317 Z M5.30546004,16.9951718 C5.4336,16.8640763 5.4336,16.6674134 5.30546004,16.5362788 C5.17732008,16.4051832 4.98509105,16.4051832 4.85691292,16.5362788 C4.72877296,16.6673743 4.72877296,16.8640372 4.85691292,16.9951718 C4.98509105,17.1262674 5.17732008,17.1262674 5.30546004,16.9951718 Z M5.30546004,12.8324091 C5.4336,12.7013135 5.4336,12.5046507 5.30546004,12.373516 C5.17732008,12.2424205 4.98509105,12.2424205 4.85691292,12.373516 C4.72877296,12.5046116 4.72877296,12.7012745 4.85691292,12.8324091 C4.98509105,12.9635437 5.17732008,12.9635437 5.30546004,12.8324091 Z M9.37437137,11.4229658 C9.50251133,11.2918702 9.50251133,11.0952073 9.37437137,10.9640727 C9.24623141,10.8329771 9.05400239,10.8329771 8.92582425,10.9640727 C8.79768429,11.0951683 8.79768429,11.2918312 8.92582425,11.4229658 C9.05396421,11.5541004 9.27825686,11.5541004 9.37437137,11.4229658 Z M8.02873002,11.4229658 C8.15686998,11.2918702 8.15686998,11.0952073 8.02873002,10.9640727 C7.90059006,10.8329771 7.70836103,10.8329771 7.5801829,10.9640727 C7.45204294,11.0951683 7.45204294,11.2918312 7.5801829,11.4229658 C7.70832286,11.5541004 7.90059006,11.5541004 8.02873002,11.4229658 Z M9.37437137,12.8324091 C9.50251133,12.7013135 9.50251133,12.5046507 9.37437137,12.373516 C9.24623141,12.2424205 9.05400239,12.2424205 8.92582425,12.373516 C8.79768429,12.5046116 8.79768429,12.7012745 8.92582425,12.8324091 C9.05396421,12.9635437 9.27825686,12.9635437 9.37437137,12.8324091 Z M8.02873002,10.0463256 C8.15686998,9.91523005 8.15686998,9.71856717 8.02873002,9.58743255 C7.90059006,9.45633698 7.70836103,9.45633698 7.5801829,9.58743255 C7.45204294,9.71852812 7.45204294,9.915191 7.5801829,10.0463256 C7.70836103,10.1774212 7.90059006,10.1774212 8.02873002,10.0463256 Z M3.95985686,14.2090883 C4.08799682,14.0779928 4.08799682,13.8813299 3.95985686,13.7501953 C3.8317169,13.6190997 3.63948787,13.6190997 3.51130974,13.7501953 C3.38316978,13.8812908 3.38316978,14.0779537 3.51130974,14.2090883 C3.6394497,14.3401839 3.83167873,14.3401839 3.95985686,14.2090883 Z M5.30546004,15.6185317 C5.4336,15.4874361 5.4336,15.2907732 5.30546004,15.1596386 C5.17732008,15.028543 4.98509105,15.028543 4.85691292,15.1596386 C4.72877296,15.2907342 4.72877296,15.487397 4.85691292,15.6185317 C4.98509105,15.7496272 5.17732008,15.7496272 5.30546004,15.6185317 Z M3.95985686,11.4229658 C4.08799682,11.2918702 4.08799682,11.0952073 3.95985686,10.9640727 C3.8317169,10.8329771 3.63948787,10.8329771 3.51130974,10.9640727 C3.38316978,11.0951683 3.38316978,11.2918312 3.51130974,11.4229658 C3.6394497,11.5541004 3.83167873,11.5541004 3.95985686,11.4229658 Z M3.95985686,10.0463256 C4.08799682,9.91523005 4.08799682,9.71856717 3.95985686,9.58743255 C3.8317169,9.45633698 3.63948787,9.45633698 3.51130974,9.58743255 C3.38316978,9.71852812 3.38316978,9.915191 3.51130974,10.0463256 C3.6394497,10.1774212 3.83167873,10.1774212 3.95985686,10.0463256 Z M2.13364294,8.21079239 C2.00550298,8.34188796 2.00550298,8.53855084 2.13364294,8.66968546 C2.2617829,8.80078103 2.48607555,8.80078103 2.58219006,8.66968546 C2.71033002,8.53858989 2.71033002,8.34192701 2.58219006,8.21079239 C2.45401193,8.07965777 2.2617829,8.07965777 2.13364294,8.21079239 Z M2.13364294,10.9641118 C2.00550298,11.0952073 2.00550298,11.2918702 2.13364294,11.4230048 C2.2617829,11.5541004 2.48607555,11.5541004 2.58219006,11.4230048 C2.71033002,11.2919093 2.71033002,11.0952464 2.58219006,10.9641118 C2.45401193,10.8329771 2.2617829,10.8329771 2.13364294,10.9641118 Z M0.78800159,9.58743255 C0.65986163,9.71852812 0.65986163,9.915191 0.78800159,10.0463256 C0.916141551,10.1774212 1.10837058,10.1774212 1.23654871,10.0463256 C1.36468867,9.91523005 1.36468867,9.71856717 1.23654871,9.58743255 C1.10840875,9.45633698 0.916179722,9.45633698 0.78800159,9.58743255 Z M2.13364294,9.58743255 C2.00550298,9.71852812 2.00550298,9.915191 2.13364294,10.0463256 C2.2617829,10.1774212 2.48607555,10.1774212 2.58219006,10.0463256 C2.71033002,9.91523005 2.71033002,9.71856717 2.58219006,9.58743255 C2.45401193,9.45633698 2.2617829,9.45633698 2.13364294,9.58743255 Z M3.95985686,8.66968546 C4.08799682,8.53858989 4.08799682,8.34192701 3.95985686,8.21079239 C3.8317169,8.07969682 3.63948787,8.07969682 3.51130974,8.21079239 C3.38313161,8.34188796 3.38316978,8.53855084 3.51130974,8.66968546 C3.6394497,8.80078103 3.83167873,8.80078103 3.95985686,8.66968546 Z M5.30546004,10.0463256 C5.4336,9.91523005 5.4336,9.71856717 5.30546004,9.58743255 C5.17732008,9.45633698 4.98509105,9.45633698 4.85691292,9.58743255 C4.72877296,9.71852812 4.72877296,9.915191 4.85691292,10.0463256 C4.98509105,10.1774212 5.17732008,10.1774212 5.30546004,10.0463256 Z M6.68312684,11.4229658 C6.8112668,11.2918702 6.8112668,11.0952073 6.68312684,10.9640727 C6.55498688,10.8329771 6.36275785,10.8329771 6.23457972,10.9640727 C6.10643976,11.0951683 6.10643976,11.2918312 6.23457972,11.4229658 C6.36271968,11.5541004 6.55494871,11.5541004 6.68312684,11.4229658 Z M2.13364294,5.42466984 C2.00550298,5.55576541 2.00550298,5.75242829 2.13364294,5.88356291 C2.2617829,6.01465848 2.48607555,6.01465848 2.58219006,5.88356291 C2.71033002,5.75246734 2.71033002,5.55580446 2.58219006,5.42466984 C2.45401193,5.29357427 2.2617829,5.29357427 2.13364294,5.42466984 Z M6.68312684,8.66968546 C6.8112668,8.53858989 6.8112668,8.34192701 6.68312684,8.21079239 C6.55498688,8.07965777 6.36275785,8.07969682 6.23457972,8.21079239 C6.10643976,8.34188796 6.10643976,8.53855084 6.23457972,8.66968546 C6.36271968,8.80078103 6.55494871,8.80078103 6.68312684,8.66968546 Z M3.95985686,7.26024212 C4.08799682,7.12914655 4.08799682,6.93248367 3.95985686,6.80134905 C3.8317169,6.67025348 3.63948787,6.67025348 3.51130974,6.80134905 C3.38313161,6.93244462 3.38316978,7.1291075 3.51130974,7.26024212 C3.6394497,7.39133769 3.83167873,7.39133769 3.95985686,7.26024212 Z M5.30546004,8.66968546 C5.4336,8.53858989 5.4336,8.34192701 5.30546004,8.21079239 C5.17732008,8.07965777 4.98509105,8.07969682 4.85691292,8.21079239 C4.72877296,8.34188796 4.72877296,8.53855084 4.85691292,8.66968546 C4.98509105,8.80078103 5.17732008,8.80078103 5.30546004,8.66968546 Z M3.95985686,5.88356291 C4.08799682,5.75246734 4.08799682,5.55580446 3.95985686,5.42466984 C3.8317169,5.29357427 3.63948787,5.29357427 3.51130974,5.42466984 C3.38316978,5.55576541 3.38316978,5.75242829 3.51130974,5.88356291 C3.6394497,6.01469753 3.83167873,6.01469753 3.95985686,5.88356291 Z M5.30546004,7.26024212 C5.4336,7.12914655 5.4336,6.93248367 5.30546004,6.80134905 C5.17732008,6.67021443 4.98509105,6.67025348 4.85691292,6.80134905 C4.72877296,6.93244462 4.72877296,7.1291075 4.85691292,7.26024212 C4.98509105,7.39133769 5.17732008,7.39133769 5.30546004,7.26024212 Z M2.13364294,6.80134905 C2.00550298,6.93244462 2.00550298,7.1291075 2.13364294,7.26024212 C2.2617829,7.39133769 2.48607555,7.39133769 2.58219006,7.26024212 C2.71033002,7.12914655 2.71033002,6.93248367 2.58219006,6.80134905 C2.45401193,6.67025348 2.2617829,6.67025348 2.13364294,6.80134905 Z M8.02873002,12.8324091 C8.15686998,12.7013135 8.15686998,12.5046507 8.02873002,12.373516 C7.90059006,12.2424205 7.70836103,12.2424205 7.5801829,12.373516 C7.45204294,12.5046116 7.45204294,12.7012745 7.5801829,12.8324091 C7.70832286,12.9635437 7.90059006,12.9635437 8.02873002,12.8324091 Z M2.13364294,12.373516 C2.00550298,12.5046116 2.00550298,12.7012745 2.13364294,12.8324091 C2.2617829,12.9635047 2.48607555,12.9635047 2.58219006,12.8324091 C2.71033002,12.7013135 2.71033002,12.5046507 2.58219006,12.373516 C2.45401193,12.2424205 2.2617829,12.2424205 2.13364294,12.373516 Z M12.0976414,18.4046152 C12.2257813,18.2735196 12.2257813,18.0768567 12.0976414,17.9457221 C11.9695014,17.8146265 11.7772724,17.8146265 11.6490942,17.9457221 C11.5209543,18.0768177 11.5209543,18.2734805 11.6490942,18.4046152 C11.7772342,18.5357107 12.0015268,18.5357107 12.0976414,18.4046152 Z" id="Combined-Shape"></path>
                        <path d="M2.83846998,3.3597096 C2.77438091,3.29414229 2.71033002,3.26137816 2.61421551,3.26137816 C2.51810099,3.26137816 2.42198648,3.29414229 2.35789742,3.3597096 C-0.942059642,7.22747799 -0.749830616,13.1274425 2.83846998,16.7657448 C4.69670934,18.6996095 7.16366123,19.6501598 9.63065129,19.6501598 C11.8733487,19.6501598 14.1160461,18.8307051 15.94226,17.2246379 C16.0063491,17.1590706 16.0383746,17.0935423 16.0383746,16.9952109 C16.0383746,16.9296436 16.0063491,16.8313121 15.94226,16.7657839 L2.83846998,3.3597096 L2.83846998,3.3597096 Z M13.5527571,18.0693979 C13.5369924,18.0249574 13.5114179,17.9827038 13.4753082,17.9457221 C13.3471682,17.8146265 13.1549392,17.8146265 13.026761,17.9457221 C12.9209893,18.0539335 12.9027817,18.2066636 12.9715658,18.3304956 C10.933961,19.1586197 8.66618529,19.1948985 6.61949583,18.4556163 C6.64186402,18.4416359 6.6633161,18.4248828 6.68312684,18.4046152 C6.8112668,18.2735196 6.8112668,18.0768567 6.68312684,17.9457221 C6.55498688,17.8146265 6.36275785,17.8146265 6.23457972,17.9457221 C6.14495427,18.0374148 6.11823459,18.1611687 6.1540008,18.2721528 C5.38813837,17.9453316 4.65956899,17.5060814 3.99291292,16.9554565 C4.08643181,16.826665 4.07562942,16.6547998 3.95981869,16.5363178 C3.8331674,16.4067452 3.64403022,16.4054565 3.51589026,16.5320222 C3.43867038,16.4584493 3.36213757,16.383744 3.2870171,16.3068908 C3.05314354,16.0652798 2.83537813,15.8130858 2.63269026,15.5523005 C2.70678012,15.4271407 2.69017575,15.2701931 2.58215189,15.1596776 C2.49802306,15.0736083 2.38629662,15.0443979 2.28319682,15.0713824 C1.81655666,14.38357 1.45042068,13.6440926 1.18608668,12.8752095 C1.20372167,12.8629864 1.22063141,12.8487326 1.23651054,12.8324872 C1.3646505,12.7013917 1.3646505,12.5047288 1.23651054,12.3735941 C1.16971133,12.3052542 1.08554433,12.2728806 1.00210258,12.2757704 C0.928203579,12.0029963 0.866786481,11.7273715 0.817622266,11.4498722 C0.944426243,11.5532022 1.11783698,11.5444156 1.23647237,11.4230439 C1.36461233,11.2919483 1.36461233,11.0952854 1.23647237,10.9641508 C1.10833241,10.8330552 0.91610338,10.8330552 0.787925249,10.9641508 C0.773763817,10.9786389 0.761434592,10.9940251 0.750403181,11.0099581 C0.647799602,10.2155354 0.645318489,9.41006106 0.744524851,8.61548211 C0.756854076,8.63446109 0.771244533,8.65265905 0.787925249,8.66972451 C0.916065209,8.80082008 1.10829423,8.80082008 1.23647237,8.66972451 C1.36461233,8.53862894 1.36461233,8.34196606 1.23647237,8.21083144 C1.11455427,8.08610125 0.934768986,8.08028259 0.80720159,8.19286779 C1.06111491,6.70996876 1.67223221,5.27955481 2.64616461,4.04806873 L15.2693821,16.9624467 C14.730637,17.4043915 14.1541408,17.7729196 13.5527571,18.0693979 L13.5527571,18.0693979 Z" id="Shape"></path>
                        <path d="M9.40639682,9.12853948 C9.47048588,9.19410679 9.53453678,9.22687092 9.63065129,9.22687092 C9.69474036,9.22687092 9.79085487,9.19410679 9.85490577,9.09577535 L15.94226,2.8680524 C16.0063491,2.80248509 16.0383746,2.73695683 16.0383746,2.63862539 C16.0383746,2.54029395 16.0063491,2.47472664 15.9102346,2.40919838 C12.3218958,-0.803014059 6.87535586,-0.803014059 3.2870171,2.40919838 C3.22292803,2.47476569 3.19090258,2.54029395 3.19090258,2.63862539 C3.19090258,2.73695683 3.22292803,2.80252414 3.31904254,2.90085558 L9.40639682,9.12853948 L9.40639682,9.12853948 Z M10.7831475,0.733190145 C11.2047078,0.789189861 11.6230998,0.875376314 12.0347738,0.992257171 L7.13434592,5.88633556 L6.4580326,5.19442275 L10.752,0.77028898 C10.7635658,0.758456404 10.7736811,0.745959955 10.7831475,0.733190145 L10.7831475,0.733190145 Z M13.6576509,1.63262212 L8.31707356,7.09634337 L7.58289304,6.34522863 L12.7180342,1.2167637 C13.0372199,1.33622195 13.3509471,1.4749716 13.6576509,1.63262212 L13.6576509,1.63262212 Z M9.63065129,8.4402194 L8.76562068,7.55523644 L14.2364374,1.95823275 C14.5821137,2.17020378 14.9167968,2.40763632 15.237433,2.67135047 L9.63065129,8.4402194 L9.63065129,8.4402194 Z M9.96258608,0.662624254 L6.00952366,4.73552968 L5.30546004,4.0152265 L8.47727714,0.770249929 C8.49155308,0.755644703 8.50399682,0.740141295 8.5150664,0.724091167 C8.99540994,0.664147259 9.47960875,0.643645271 9.96258608,0.662624254 L9.96258608,0.662624254 Z M7.42333837,0.930751207 L4.85691292,3.55637248 L3.99188231,2.67138952 C5.02242227,1.82377876 6.19644692,1.24374822 7.42333837,0.930751207 L7.42333837,0.930751207 Z" id="Shape"></path>
                        <path d="M16.8393543,3.3597096 C16.7752652,3.29414229 16.7112143,3.26137816 16.6150998,3.26137816 C16.5510107,3.26137816 16.4548962,3.29414229 16.3908453,3.3597096 L10.3034911,9.58743255 C10.239402,9.65299986 10.2073765,9.71852812 10.2073765,9.81685956 C10.2073765,9.915191 10.239402,9.98075831 10.3034911,10.0462866 L16.4228708,16.3068127 C16.4869598,16.37238 16.5510107,16.4051441 16.6471252,16.4051441 C16.7432398,16.4051441 16.8393543,16.37238 16.8713797,16.2740486 C19.9791459,12.6029821 19.9791459,7.06357924 16.8393543,3.3597096 L16.8393543,3.3597096 Z M16.6150616,15.5857285 L10.9762926,9.81689861 L16.5830362,4.04802968 C19.2422553,7.39133769 19.2422553,12.2424205 16.6150616,15.5857285 L16.6150616,15.5857285 Z" id="Shape"></path>
                    </g>
                </g>
            </g>
        </g>
    </g>
</svg>