<?xml version="1.0" encoding="UTF-8"?>
<svg width="105px" height="105px" viewBox="0 0 105 105" version="1.1" xmlns="http://www.w3.org/2000/svg" xmlns:xlink="http://www.w3.org/1999/xlink">
    <!-- Generator: Sketch 42 (36781) - http://www.bohemiancoding.com/sketch -->
    <title>ic_welcome</title>
    <desc>Created with Sketch.</desc>
    <defs></defs>
    <g id="Analyse" stroke="none" stroke-width="1" fill="none" fill-rule="evenodd">
        <g id="01_analyse_landing" transform="translate(-830.000000, -245.000000)" fill="#C32026">
            <g id="ic_welcome" transform="translate(830.000000, 245.000000)">
                <g id="Layer_1">
                    <path d="M12.2499316,5.25 C8.4,5.25 5.25,8.4 5.25,12.2499316 C5.25,16.0998633 8.4,19.2498633 12.2499316,19.2498633 C16.0998633,19.2498633 19.2498633,16.0998633 19.2498633,12.2499316 C19.2498633,8.4 16.1000684,5.25 12.2499316,5.25 L12.2499316,5.25 Z M12.2499316,15.75 C10.3248633,15.75 8.74986328,14.175 8.74986328,12.2499316 C8.74986328,10.3248633 10.3248633,8.74986328 12.2499316,8.74986328 C14.175,8.74986328 15.75,10.3250684 15.75,12.2499316 C15.75,14.1747949 14.175,15.75 12.2499316,15.75 L12.2499316,15.75 Z" id="Shape"></path>
                    <path d="M27.9999316,5.25 C24.15,5.25 21,8.4 21,12.2499316 C21,16.0998633 24.15,19.2498633 27.9999316,19.2498633 C31.8498633,19.2498633 34.9998633,16.0998633 34.9998633,12.2499316 C34.9998633,8.4 31.8500684,5.25 27.9999316,5.25 L27.9999316,5.25 Z M27.9999316,15.75 C26.0748633,15.75 24.4998633,14.175 24.4998633,12.2499316 C24.4998633,10.3248633 26.0748633,8.74986328 27.9999316,8.74986328 C29.925,8.74986328 31.5,10.3248633 31.5,12.2499316 C31.5,14.175 29.925,15.75 27.9999316,15.75 L27.9999316,15.75 Z" id="Shape"></path>
                    <path d="M43.7499316,5.25 C39.9,5.25 36.75,8.4 36.75,12.2499316 C36.75,16.0998633 39.9,19.2498633 43.7499316,19.2498633 C47.5998633,19.2498633 50.7498633,16.0998633 50.7498633,12.2499316 C50.7498633,8.4 47.6000684,5.25 43.7499316,5.25 L43.7499316,5.25 Z M43.7499316,15.75 C41.8248633,15.75 40.2498633,14.175 40.2498633,12.2499316 C40.2498633,10.3248633 41.8248633,8.74986328 43.7499316,8.74986328 C45.675,8.74986328 47.25,10.3248633 47.25,12.2499316 C47.25,14.175 45.675,15.75 43.7499316,15.75 L43.7499316,15.75 Z" id="Shape"></path>
                    <path d="M100.100068,0 L5.07506836,0 C2.27493164,0 0,2.27493164 0,5.07506836 L0,21 L0,24.5000684 L0,52.5 L0,73.1499316 C0,74.2327441 0.289570312,75.2329102 0.79734375,76.0790625 C0.889628906,76.2328711 0.989296875,76.3817578 1.09552734,76.5249023 C1.41462891,76.9547461 1.79484375,77.3349609 2.2246875,77.6540625 C2.51118164,77.8667285 2.81982422,78.0523242 3.14712891,78.2073633 C3.22895508,78.246123 3.31180664,78.282832 3.39609375,78.3176953 C3.64833984,78.4222852 3.91063477,78.5092383 4.18133789,78.5769141 C4.27157227,78.5994727 4.36283203,78.6199805 4.45491211,78.6382324 C4.8234375,78.7114453 5.20611328,78.7495898 5.59986328,78.7495898 L5.59986328,78.7495898 L32.2173633,78.7495898 C34.0210254,85.1843262 39.065127,90.2284277 45.4998633,92.0320898 L45.4998633,103.249658 C45.4998633,104.299658 46.1997949,104.99959 47.2497949,104.99959 L54.2497266,104.99959 C55.2997266,104.99959 55.9996582,104.299658 55.9996582,103.249658 L55.9996582,92.0320898 C62.4343945,90.2284277 67.4784961,85.1843262 69.2821582,78.7495898 L99.3997266,78.7495898 C102.549727,78.7495898 104.999795,76.2995215 104.999795,73.1495215 L104.999795,24.5000684 L104.999795,21 L104.999795,5.07506836 C105,2.27493164 102.725068,0 100.100068,0 L100.100068,0 Z M52.5,92.7500684 L52.5,101.500137 L48.9999316,101.500137 L48.9999316,92.7500684 L52.5,92.7500684 L52.5,92.7500684 Z M50.7500684,89.25 C43.3166016,89.25 37.148877,84.196875 35.4604687,77.3117871 L35.3501367,76.65 C35.2004297,75.752168 35.051748,74.8543359 35.0115527,73.9565039 C35.0072461,73.804541 35.0000684,73.6531934 35.0000684,73.5 C35.0000684,64.7499316 42,57.75 50.7500684,57.75 C51.7106543,57.75 52.6484766,57.8390039 53.5600488,58.0008105 C56.4118652,58.5434473 59.0596289,59.8149316 61.2500684,61.7748633 C64.575,64.7499316 66.5000684,69.1248633 66.5000684,73.4997949 C66.5000684,73.6529883 66.4928906,73.8041309 66.488584,73.9562988 C66.4483887,74.8541309 66.299707,75.7519629 66.15,76.6497949 C66.1046777,76.7859668 66.0837598,76.9221387 66.0823242,77.0554395 L66.039668,77.3117871 C64.3510547,84.196875 58.1835352,89.25 50.7500684,89.25 L50.7500684,89.25 Z M69.9999316,75.2499316 L69.9999316,73.5 C69.9999316,66.1965527 65.9857324,59.8768652 60.0316992,56.6130469 C56.652832,54.7004883 52.7452734,53.8662305 48.6498633,54.2501367 C40.0749316,55.1252051 33.0747949,61.6001367 31.6749316,70.0001367 C31.5,71.7500684 31.3248633,73.5002051 31.5,75.2501367 L5.60006836,75.2501367 C4.37513672,75.2501367 3.50006836,74.3750684 3.50006836,73.1501367 L3.50006836,53.2001367 L14.8751367,43.0502051 C16.2752051,41.6501367 18.3752051,41.6501367 19.9502051,42.8752734 L33.7751367,53.9002734 C34.3001367,54.2503418 34.6502051,54.2503418 35.1752051,54.2503418 C35.7002051,54.2503418 36.0502734,53.9002734 36.4001367,53.5504102 L50.0501367,35.3503418 C50.2250684,35.0002734 50.5751367,35.0002734 50.7500684,35.0002734 C50.925,35.0002734 51.2750684,35.1752051 51.45,35.3503418 L65.1,53.5504102 C65.4500684,53.9004785 65.9750684,54.2503418 66.5000684,54.2503418 C67.0250684,54.2503418 67.3751367,54.0754102 68.0750684,53.5504102 L81.0251367,39.2004785 C81.3752051,38.8504102 82.0751367,38.5005469 82.6001367,38.5005469 C83.1251367,38.5005469 83.8250684,38.8506152 84.1751367,39.2004785 L101.675068,56.7004102 L101.675068,73.1503418 C101.675068,74.3752734 100.8,75.2503418 99.5750684,75.2503418 L69.9999316,75.2503418 L69.9999316,75.2499316 Z M101.675068,52.1499316 L86.2749316,36.75 C85.2249316,35.5250684 83.6499316,35.0000684 82.0749316,35.0000684 C80.4999316,35.0000684 79.0998633,35.7 78.0498633,36.9251367 L66.4998633,49.7000684 L54.2499316,33.2501367 C53.3748633,32.2001367 52.1499316,31.5002051 50.7498633,31.5002051 C49.3497949,31.5002051 48.1248633,32.2001367 47.2497949,33.2501367 L34.8247266,50.0501367 L22.3996582,40.2500684 C19.5997266,37.9751367 15.5746582,37.9751367 12.7747266,40.425 L3.4996582,48.6400195 L3.4996582,24.5000684 L101.674658,24.5000684 L101.674658,52.1499316 L101.675068,52.1499316 Z M3.50006836,21 L3.50006836,5.07506836 C3.50006836,4.2 4.2,3.50006836 5.07506836,3.50006836 L99.9251367,3.50006836 C100.800205,3.50006836 101.500137,4.2 101.500137,5.07506836 L101.500137,21 L3.50006836,21 L3.50006836,21 Z" id="Shape"></path>
                    <path d="M50.7500684,63 C44.9750684,63 40.2500684,67.725 40.2500684,73.5 C40.2500684,74.55 40.95,75.2499316 42,75.2499316 C43.05,75.2499316 43.7499316,74.55 43.7499316,73.5 C43.7499316,69.6500684 46.8999316,66.5000684 50.7498633,66.5000684 C51.7998633,66.5000684 52.4997949,65.8001367 52.4997949,64.7501367 C52.4997949,63.7001367 51.8000684,63 50.7500684,63 L50.7500684,63 Z" id="Shape"></path>
                </g>
            </g>
        </g>
    </g>
</svg>