<?xml version="1.0" encoding="UTF-8"?>
<svg width="22px" height="21px" viewBox="0 0 22 21" version="1.1" xmlns="http://www.w3.org/2000/svg" xmlns:xlink="http://www.w3.org/1999/xlink">
    <!-- Generator: Sketch 41.1 (35376) - http://www.bohemiancoding.com/sketch -->
    <title>Facebook-color</title>
    <desc>Created with Sketch.</desc>
    <defs></defs>
    <g id="Distribute" stroke="none" stroke-width="1" fill="none" fill-rule="evenodd">
        <g id="03_distribute_empty" transform="translate(-149.000000, -899.000000)" fill="#9F9F9F">
            <path d="M160.269607,920 L150.164497,920 C149.521175,920 149,919.480946 149,918.840889 L149,900.15903 C149,899.518809 149.521257,899 150.164497,899 L168.934486,899 C169.577563,899 170.098901,899.518809 170.098901,900.15903 L170.098901,918.840889 C170.098901,919.481028 169.577481,920 168.934486,920 L163.557936,920 L163.557936,911.867643 L166.300449,911.867643 L166.711101,908.698319 L163.557936,908.698319 L163.557936,906.674906 C163.557936,905.757313 163.813939,905.132004 165.135951,905.132004 L166.822115,905.131271 L166.822115,902.296602 C166.530499,902.257979 165.529575,902.171687 164.365078,902.171687 C161.933993,902.171687 160.269607,903.648668 160.269607,906.361029 L160.269607,908.698319 L157.520054,908.698319 L157.520054,911.867643 L160.269607,911.867643 L160.269607,920 L160.269607,920 Z" id="Facebook"></path>
        </g>
    </g>
</svg>