<?xml version="1.0" encoding="UTF-8"?>
<svg width="54px" height="53px" viewBox="0 0 54 53" version="1.1" xmlns="http://www.w3.org/2000/svg" xmlns:xlink="http://www.w3.org/1999/xlink">
    <!-- Generator: Sketch 40.3 (33839) - http://www.bohemiancoding.com/sketch -->
    <title>ic_audio</title>
    <desc>Created with Sketch.</desc>
    <defs></defs>
    <g id="Form-Builder" stroke="none" stroke-width="1" fill="none" fill-rule="evenodd">
        <g id="17_media_image_empty" transform="translate(-632.000000, -435.000000)" fill="#A7A7A7">
            <path d="M674.651382,484.454048 L674.651382,465.054507 C679.336383,465.793645 682.941104,469.864592 682.941104,474.754277 C682.929733,479.655334 679.336383,483.71491 674.651382,484.454048 M644.22162,464.440453 L644.22162,483.839995 C639.53662,483.100856 635.931898,479.029909 635.931898,474.140224 C635.94327,469.250539 639.53662,465.179592 644.22162,464.440453 M686,461.563499 C686,454.46777 683.236759,447.792781 678.221989,442.778011 C673.207219,437.763241 666.53223,435 659.436501,435 C652.340772,435 645.665783,437.763241 640.651013,442.778011 C635.636243,447.792781 632.873002,454.46777 632.873002,461.563499 L632.873002,474.140224 C632.873002,481.247325 638.661025,487.035347 645.768125,487.035347 C646.620977,487.035347 647.303259,486.353066 647.303259,485.500213 L647.303259,462.791606 C647.303259,461.938754 646.620977,461.256472 645.768125,461.256472 C641.833635,461.256472 638.308513,463.019033 635.94327,465.805017 L635.94327,461.563499 C635.94327,448.611519 646.484521,438.070267 659.436501,438.070267 C672.388481,438.070267 682.929733,448.611519 682.929733,461.563499 C682.929733,461.665841 682.941104,461.768183 682.963847,461.870526 C682.941104,461.972868 682.929733,462.07521 682.929733,462.177552 L682.929733,466.41907 C680.56449,463.633087 677.039368,461.870526 673.104877,461.870526 C672.252025,461.870526 671.569743,462.552807 671.569743,463.405659 L671.569743,486.114267 C671.569743,486.967119 672.252025,487.649401 673.104877,487.649401 C680.211977,487.649401 686,481.861378 686,474.754277 L686,462.177552 C686,462.07521 685.988629,461.972868 685.965886,461.870526 C685.988629,461.768183 686,461.665841 686,461.563499" id="ic_audio"></path>
        </g>
    </g>
</svg>