<?xml version="1.0" encoding="UTF-8" standalone="no"?>
<svg width="23px" height="23px" viewBox="0 0 23 23" version="1.1" xmlns="http://www.w3.org/2000/svg" xmlns:xlink="http://www.w3.org/1999/xlink">
    <!-- Generator: Sketch 39.1 (31720) - http://www.bohemiancoding.com/sketch -->
    <title>ic_add</title>
    <desc>Created with Sketch.</desc>
    <defs></defs>
    <g id="Form-Builder" stroke="none" stroke-width="1" fill="none" fill-rule="evenodd">
        <g id="03_multchoice_empty" transform="translate(-267.000000, -498.000000)" fill="#BFBFBF">
            <g id="option-A" transform="translate(40.000000, 483.000000)">
                <path d="M243.1,25.5 L238.9,25.5 L238.9,21.3 C238.9,20.914 238.587,20.6 238.2,20.6 C237.814,20.6 237.5,20.914 237.5,21.3 L237.5,25.5 L233.3,25.5 C232.913,25.5 232.6,25.813 232.6,26.2 C232.6,26.587 232.913,26.9 233.3,26.9 L237.5,26.9 L237.5,31.1 C237.5,31.487 237.814,31.8 238.2,31.8 C238.587,31.8 238.9,31.487 238.9,31.1 L238.9,26.9 L243.1,26.9 C243.487,26.9 243.8,26.587 243.8,26.2 C243.8,25.813 243.487,25.5 243.1,25.5 M238.2,36.022 C232.796,36.022 228.4,31.604 228.4,26.2 C228.4,20.796 232.796,16.4 238.2,16.4 C243.604,16.4 248,20.796 248,26.2 C248,31.604 243.604,36.022 238.2,36.022 M238.2,15 C232.015,15 227,20.015 227,26.2 C227,32.386 232.015,37.4 238.2,37.4 C244.386,37.4 249.4,32.386 249.4,26.2 C249.4,20.015 244.386,15 238.2,15" id="ic_add"></path>
            </g>
        </g>
    </g>
</svg>