<?xml version="1.0" encoding="UTF-8"?>
<svg width="46px" height="58px" viewBox="0 0 46 58" version="1.1" xmlns="http://www.w3.org/2000/svg" xmlns:xlink="http://www.w3.org/1999/xlink">
    <!-- Generator: Sketch 41.1 (35376) - http://www.bohemiancoding.com/sketch -->
    <title>ic_csv</title>
    <desc>Created with Sketch.</desc>
    <defs></defs>
    <g id="Distribute" stroke="none" stroke-width="1" fill="none" fill-rule="evenodd" opacity="0.400000006">
        <g id="06_createnew_step2" transform="translate(-698.000000, -415.000000)" fill="#000000">
            <g id="Group-2" transform="translate(607.000000, 415.000000)">
                <g id="ic_csv" transform="translate(91.000000, 0.000000)">
                    <g id="Capa_1">
                        <g id="Group">
                            <path d="M44.95,12.187 L44.179,11.416 L34.084,1.321 L33.313,0.55 C32.964,0.201 32.48,0 31.985,0 L2.963,0 C1.777,0 0.5,0.916 0.5,2.926 L0.5,39 L0.5,55.537 L0.5,56 C0.5,56.837 1.342,57.653 2.338,57.91 C2.388,57.923 2.436,57.942 2.488,57.952 C2.644,57.983 2.803,58 2.963,58 L43.037,58 C43.197,58 43.356,57.983 43.512,57.952 C43.564,57.942 43.612,57.923 43.662,57.91 C44.658,57.653 45.5,56.837 45.5,56 L45.5,55.537 L45.5,39 L45.5,13.978 C45.5,13.211 45.408,12.645 44.95,12.187 Z M41.935,12 L33.5,12 L33.5,3.565 L41.935,12 Z M2.963,56 C2.892,56 2.828,55.974 2.765,55.951 C2.609,55.877 2.5,55.721 2.5,55.537 L2.5,41 L43.5,41 L43.5,55.537 C43.5,55.721 43.391,55.876 43.235,55.951 C43.172,55.974 43.108,56 43.037,56 L2.963,56 Z M2.5,39 L2.5,2.926 C2.5,2.709 2.533,2 2.963,2 L31.558,2 C31.525,2.126 31.5,2.256 31.5,2.391 L31.5,14 L43.109,14 C43.244,14 43.373,13.975 43.499,13.942 C43.499,13.957 43.5,13.963 43.5,13.978 L43.5,39 L2.5,39 Z" id="Shape"></path>
                            <path d="M12.034,45.954 C12.275,45.648 12.549,45.433 12.854,45.305 C13.159,45.177 13.48,45.114 13.818,45.114 C14.119,45.114 14.408,45.174 14.686,45.292 C14.964,45.41 15.217,45.602 15.445,45.866 L16.58,44.854 C16.206,44.49 15.782,44.216 15.309,44.034 C14.835,43.851 14.325,43.761 13.778,43.761 C13.185,43.761 12.634,43.872 12.124,44.096 C11.613,44.32 11.169,44.645 10.791,45.074 C10.413,45.503 10.116,46.038 9.902,46.68 C9.688,47.323 9.581,48.068 9.581,48.915 C9.581,49.762 9.688,50.51 9.902,51.157 C10.116,51.804 10.412,52.342 10.791,52.77 C11.169,53.199 11.611,53.522 12.117,53.741 C12.623,53.96 13.177,54.069 13.778,54.069 C14.325,54.069 14.835,53.978 15.309,53.796 C15.783,53.613 16.206,53.34 16.58,52.976 L15.445,51.978 C15.208,52.243 14.946,52.434 14.659,52.552 C14.372,52.67 14.064,52.73 13.736,52.73 C13.408,52.73 13.095,52.66 12.799,52.518 C12.503,52.376 12.238,52.154 12.006,51.848 C11.774,51.542 11.591,51.149 11.459,50.665 C11.327,50.182 11.256,49.599 11.247,48.915 C11.256,48.213 11.329,47.621 11.466,47.138 C11.603,46.655 11.792,46.26 12.034,45.954 Z" id="Shape"></path>
                            <path d="M23.532,49.064 C23.218,48.836 22.878,48.642 22.513,48.483 C22.148,48.324 21.811,48.16 21.501,47.991 C21.191,47.822 20.931,47.627 20.722,47.403 C20.512,47.179 20.408,46.885 20.408,46.521 C20.408,46.375 20.444,46.222 20.517,46.063 C20.59,45.904 20.69,45.76 20.818,45.632 C20.945,45.504 21.091,45.398 21.256,45.311 C21.421,45.224 21.593,45.172 21.776,45.154 C22.104,45.127 22.373,45.122 22.583,45.14 C22.792,45.159 22.961,45.19 23.089,45.236 C23.216,45.282 23.315,45.327 23.383,45.373 C23.451,45.419 23.513,45.455 23.568,45.482 C23.577,45.473 23.604,45.427 23.65,45.345 C23.695,45.263 23.75,45.16 23.814,45.037 C23.877,44.914 23.946,44.782 24.019,44.641 C24.092,44.499 24.156,44.37 24.21,44.251 C23.945,44.078 23.599,43.952 23.171,43.875 C22.742,43.798 22.318,43.759 21.9,43.759 C21.49,43.759 21.1,43.822 20.731,43.95 C20.362,44.078 20.038,44.263 19.76,44.504 C19.482,44.745 19.261,45.039 19.097,45.386 C18.933,45.733 18.851,46.129 18.851,46.575 C18.851,47.067 18.955,47.477 19.165,47.805 C19.374,48.133 19.639,48.418 19.958,48.659 C20.277,48.9 20.619,49.11 20.983,49.288 C21.347,49.466 21.687,49.643 22.002,49.821 C22.317,49.999 22.578,50.197 22.788,50.416 C22.997,50.635 23.102,50.899 23.102,51.209 C23.102,51.72 22.954,52.105 22.658,52.364 C22.362,52.624 21.935,52.754 21.38,52.754 C21.197,52.754 21.002,52.735 20.792,52.699 C20.582,52.663 20.373,52.615 20.163,52.555 C19.953,52.495 19.75,52.432 19.555,52.364 C19.359,52.296 19.197,52.225 19.07,52.152 L18.783,53.328 C18.938,53.465 19.122,53.581 19.337,53.677 C19.551,53.773 19.776,53.848 20.014,53.903 C20.251,53.958 20.486,53.997 20.718,54.019 C20.95,54.041 21.176,54.053 21.395,54.053 C21.905,54.053 22.361,53.976 22.762,53.821 C23.163,53.666 23.5,53.459 23.774,53.199 C24.048,52.939 24.259,52.638 24.41,52.297 C24.561,51.956 24.636,51.602 24.636,51.237 C24.636,50.699 24.531,50.259 24.322,49.918 C24.108,49.577 23.847,49.292 23.532,49.064 Z" id="Shape"></path>
                            <polygon id="Shape" points="30.115 52.619 27.777 43.924 25.904 43.924 29.035 54.055 31.168 54.055 34.449 43.924 32.59 43.924"></polygon>
                            <path d="M18.5,13 L6.5,13 L6.5,17 L6.5,19 L6.5,21 L6.5,23 L6.5,25 L6.5,27 L6.5,29 L6.5,31 L6.5,35 L16.5,35 L18.5,35 L39.5,35 L39.5,31 L39.5,29 L39.5,27 L39.5,25 L39.5,23 L39.5,21 L39.5,17 L18.5,17 L18.5,13 Z M8.5,19 L16.5,19 L16.5,21 L8.5,21 L8.5,19 Z M8.5,23 L16.5,23 L16.5,25 L8.5,25 L8.5,23 Z M8.5,27 L16.5,27 L16.5,29 L8.5,29 L8.5,27 Z M16.5,33 L8.5,33 L8.5,31 L16.5,31 L16.5,33 Z M37.5,33 L18.5,33 L18.5,31 L37.5,31 L37.5,33 Z M37.5,29 L18.5,29 L18.5,27 L37.5,27 L37.5,29 Z M37.5,25 L18.5,25 L18.5,23 L37.5,23 L37.5,25 Z M37.5,19 L37.5,21 L18.5,21 L18.5,19 L37.5,19 Z M8.5,17 L8.5,15 L16.5,15 L16.5,17 L8.5,17 Z" id="Shape"></path>
                        </g>
                    </g>
                </g>
            </g>
        </g>
    </g>
</svg>