<?xml version="1.0" encoding="UTF-8"?>
<svg width="16px" height="18px" viewBox="0 0 16 18" version="1.1" xmlns="http://www.w3.org/2000/svg" xmlns:xlink="http://www.w3.org/1999/xlink">
    <!-- Generator: Sketch 41.2 (35397) - http://www.bohemiancoding.com/sketch -->
    <title>ic_categories_normal</title>
    <desc>Created with Sketch.</desc>
    <defs></defs>
    <g id="Analyse" stroke="none" stroke-width="1" fill="none" fill-rule="evenodd">
        <g id="ic_categories_normal" fill="#979797">
            <path d="M2.08648649,2.31270492 C1.91351351,2.13565574 1.63603604,2.13565574 1.46306306,2.30901639 C1.28648649,2.48606557 1.28648649,2.77008197 1.45945946,2.94713115 L2.51171171,4.03155738 C2.59459459,4.11639344 2.70630631,4.16434426 2.82522523,4.16434426 C2.94054054,4.16434426 3.05225225,4.11639344 3.13513514,4.03155738 L6.33873874,0.770901639 C6.51171171,0.593852459 6.51171171,0.309836066 6.34234234,0.132786885 C6.16936937,-0.0442622951 5.89189189,-0.0442622951 5.71891892,0.132786885 L4.74954955,1.11762295 C4.23423423,0.571721311 3.51711712,0.258196721 2.76396396,0.258196721 C1.23963964,0.258196721 0,1.52704918 0,3.08729508 C0,4.64754098 1.23963964,5.91639344 2.76396396,5.91639344 C3.99279279,5.91639344 5.05585586,5.10860656 5.41261261,3.90614754 C5.48468468,3.66639344 5.35135135,3.41557377 5.11711712,3.34180328 C4.88288288,3.27172131 4.63783784,3.4045082 4.56576577,3.6442623 C4.32792793,4.44836066 3.58558559,5.01270492 2.76396396,5.01270492 C1.72612613,5.01270492 0.882882883,4.14959016 0.882882883,3.08729508 C0.882882883,2.025 1.72612613,1.16188525 2.76396396,1.16188525 C3.27927928,1.16188525 3.76936937,1.38319672 4.12252252,1.75942623 L2.82882883,3.07622951 L2.08648649,2.31270492 Z" id="Fill-1"></path>
            <path d="M2.76396396,11.0471311 C1.72612613,11.0471311 0.882882883,10.1840164 0.882882883,9.12172131 C0.882882883,8.05942623 1.72612613,7.19631148 2.76396396,7.19631148 C3.8018018,7.19631148 4.64504505,8.05942623 4.64504505,9.12172131 C4.64504505,10.1840164 3.8018018,11.0471311 2.76396396,11.0471311 M2.76396396,6.29262295 C1.23963964,6.29262295 0,7.56147541 0,9.12172131 C0,10.6819672 1.23963964,11.9508197 2.76396396,11.9508197 C4.28828829,11.9508197 5.52792793,10.6819672 5.52792793,9.12172131 C5.52792793,7.56147541 4.28828829,6.29262295 2.76396396,6.29262295" id="Fill-3"></path>
            <path d="M2.76396396,17.0889344 C1.72612613,17.0889344 0.882882883,16.2258197 0.882882883,15.1635246 C0.882882883,14.1012295 1.72612613,13.2381148 2.76396396,13.2381148 C3.8018018,13.2381148 4.64504505,14.1012295 4.64504505,15.1635246 C4.64504505,16.2258197 3.8018018,17.0889344 2.76396396,17.0889344 M5.52792793,15.1598361 C5.52792793,13.5995902 4.28828829,12.3307377 2.76396396,12.3307377 C1.23963964,12.3307377 0,13.5995902 0,15.1598361 C0,16.720082 1.23963964,17.9889344 2.76396396,17.9889344 C4.28828829,17.9889344 5.52792793,16.720082 5.52792793,15.1598361" id="Fill-5"></path>
            <path d="M15.5243243,8.66803279 L6.93693694,8.66803279 C6.69189189,8.66803279 6.49369369,8.87090164 6.49369369,9.12172131 C6.49369369,9.37254098 6.69189189,9.57540984 6.93693694,9.57540984 L15.5243243,9.57540984 C15.7693694,9.57540984 15.9675676,9.37254098 15.9675676,9.12172131 C15.9675676,8.87090164 15.7693694,8.66803279 15.5243243,8.66803279" id="Fill-7"></path>
            <path d="M15.5243243,2.63729508 L6.93693694,2.63729508 C6.69189189,2.63729508 6.49369369,2.84016393 6.49369369,3.09098361 C6.49369369,3.34180328 6.69189189,3.54467213 6.93693694,3.54467213 L15.5243243,3.54467213 C15.7693694,3.54467213 15.9675676,3.34180328 15.9675676,3.09098361 C15.9675676,2.84016393 15.7693694,2.63729508 15.5243243,2.63729508" id="Fill-9"></path>
            <path d="M15.5243243,14.7098361 L6.93693694,14.7098361 C6.69189189,14.7098361 6.49369369,14.9127049 6.49369369,15.1635246 C6.49369369,15.4143443 6.69189189,15.6172131 6.93693694,15.6172131 L15.5243243,15.6172131 C15.7693694,15.6172131 15.9675676,15.4143443 15.9675676,15.1635246 C15.9675676,14.9090164 15.7693694,14.7098361 15.5243243,14.7098361" id="Fill-11"></path>
        </g>
    </g>
</svg>