<?xml version="1.0" encoding="UTF-8"?>
<svg width="24px" height="24px" viewBox="0 0 24 24" version="1.1" xmlns="http://www.w3.org/2000/svg" xmlns:xlink="http://www.w3.org/1999/xlink">
    <!-- Generator: Sketch 40.3 (33839) - http://www.bohemiancoding.com/sketch -->
    <title>ic_close</title>
    <desc>Created with Sketch.</desc>
    <defs></defs>
    <g id="Form-Builder" stroke="none" stroke-width="1" fill="none" fill-rule="evenodd">
        <g id="01_landing_createnew_project" transform="translate(-946.000000, -233.000000)" fill="#2B2B2B">
            <g id="Group" transform="translate(441.000000, 193.000000)">
                <path d="M521.739177,51.1392273 L517.539177,51.1392273 L517.539177,46.9392273 C517.539177,46.5532273 517.226177,46.2392273 516.839177,46.2392273 C516.453177,46.2392273 516.139177,46.5532273 516.139177,46.9392273 L516.139177,51.1392273 L511.939177,51.1392273 C511.552177,51.1392273 511.239177,51.4522273 511.239177,51.8392273 C511.239177,52.2262273 511.552177,52.5392273 511.939177,52.5392273 L516.139177,52.5392273 L516.139177,56.7392273 C516.139177,57.1262273 516.453177,57.4392273 516.839177,57.4392273 C517.226177,57.4392273 517.539177,57.1262273 517.539177,56.7392273 L517.539177,52.5392273 L521.739177,52.5392273 C522.126177,52.5392273 522.439177,52.2262273 522.439177,51.8392273 C522.439177,51.4522273 522.126177,51.1392273 521.739177,51.1392273 M516.839177,61.6612273 C511.435177,61.6612273 507.039177,57.2432273 507.039177,51.8392273 C507.039177,46.4352273 511.435177,42.0392273 516.839177,42.0392273 C522.243177,42.0392273 526.639177,46.4352273 526.639177,51.8392273 C526.639177,57.2432273 522.243177,61.6612273 516.839177,61.6612273 M516.839177,40.6392273 C510.654177,40.6392273 505.639177,45.6542273 505.639177,51.8392273 C505.639177,58.0252273 510.654177,63.0392273 516.839177,63.0392273 C523.025177,63.0392273 528.039177,58.0252273 528.039177,51.8392273 C528.039177,45.6542273 523.025177,40.6392273 516.839177,40.6392273" id="ic_close" transform="translate(516.839227, 51.839227) rotate(45.000000) translate(-516.839227, -51.839227) "></path>
            </g>
        </g>
    </g>
</svg>
