<?xml version="1.0" encoding="UTF-8"?>
<svg width="20px" height="20px" viewBox="0 0 20 20" version="1.1" xmlns="http://www.w3.org/2000/svg" xmlns:xlink="http://www.w3.org/1999/xlink">
    <!-- Generator: Sketch 41.2 (35397) - http://www.bohemiancoding.com/sketch -->
    <title>ic_dropdown</title>
    <desc>Created with Sketch.</desc>
    <defs></defs>
    <g id="Form-Builder" stroke="none" stroke-width="1" fill="none" fill-rule="evenodd">
        <g id="03_addnew_hover" transform="translate(-538.000000, -659.000000)" fill="#000000">
            <g id="ic_dropdown" transform="translate(538.000000, 659.000000)">
                <g id="Capa_1">
                    <g id="Group">
                        <path d="M19.8052881,14.5658305 C19.6465085,14.4069153 19.3888136,14.4069153 19.2301017,14.5658305 L15.1953898,18.6004746 L15.1953898,0.406779661 C15.1953898,0.182169492 15.0132203,0 14.7886102,0 C14.564,0 14.3818305,0.182169492 14.3818305,0.406779661 L14.3818305,18.6004068 L10.3470508,14.5656949 C10.1882712,14.4069153 9.93064407,14.4068475 9.77179661,14.5657627 C9.61294915,14.7246102 9.61294915,14.9821695 9.77186441,15.1410169 L14.5010169,19.8701017 C14.5804068,19.9494915 14.6845424,19.9892203 14.7886102,19.9892203 C14.892678,19.9892203 14.9968136,19.9494915 15.0762034,19.8700339 L19.8052881,15.1409492 C19.9642034,14.9821695 19.9642034,14.7246102 19.8052881,14.5658305 Z" id="Shape"></path>
                        <path d="M0.47159322,0.813559322 L12.6842712,0.813559322 C12.9088814,0.813559322 13.0910508,0.631389831 13.0910508,0.406779661 C13.0910508,0.182169492 12.9088814,0 12.6842712,0 L0.47159322,0 C0.246983051,0 0.0648135593,0.182169492 0.0648135593,0.406779661 C0.0648135593,0.631389831 0.246983051,0.813559322 0.47159322,0.813559322 Z" id="Shape"></path>
                        <path d="M0.47159322,5.57477966 L12.6842712,5.57477966 C12.9088814,5.57477966 13.0910508,5.39261017 13.0910508,5.168 C13.0910508,4.94338983 12.9088814,4.76122034 12.6842712,4.76122034 L0.47159322,4.76122034 C0.246983051,4.76122034 0.0648135593,4.94338983 0.0648135593,5.168 C0.0648135593,5.39261017 0.246983051,5.57477966 0.47159322,5.57477966 Z" id="Shape"></path>
                        <path d="M0.47159322,10.336 L12.6842712,10.336 C12.9088814,10.336 13.0910508,10.1538305 13.0910508,9.92922034 C13.0910508,9.70461017 12.9088814,9.52244068 12.6842712,9.52244068 L0.47159322,9.52244068 C0.246983051,9.52244068 0.0648135593,9.70461017 0.0648135593,9.92922034 C0.0648135593,10.1538305 0.246983051,10.336 0.47159322,10.336 Z" id="Shape"></path>
                        <path d="M8.43647458,14.2837288 L0.47159322,14.2837288 C0.246983051,14.2837288 0.0648135593,14.4658983 0.0648135593,14.6905085 C0.0648135593,14.9151186 0.246983051,15.0972881 0.47159322,15.0972881 L8.43647458,15.0972881 C8.66108475,15.0972881 8.84325424,14.9151186 8.84325424,14.6905085 C8.84325424,14.4658983 8.66115254,14.2837288 8.43647458,14.2837288 Z" id="Shape"></path>
                        <path d="M8.43647458,19.0448814 L0.47159322,19.0448814 C0.246983051,19.0448814 0.0648135593,19.2270508 0.0648135593,19.451661 C0.0648135593,19.6762712 0.246983051,19.8584407 0.47159322,19.8584407 L8.43647458,19.8584407 C8.66108475,19.8584407 8.84325424,19.6762712 8.84325424,19.451661 C8.84325424,19.2270508 8.66115254,19.0448814 8.43647458,19.0448814 Z" id="Shape"></path>
                    </g>
                </g>
            </g>
        </g>
    </g>
</svg>