<?xml version="1.0" encoding="UTF-8"?>
<svg width="21px" height="20px" viewBox="0 0 21 20" version="1.1" xmlns="http://www.w3.org/2000/svg" xmlns:xlink="http://www.w3.org/1999/xlink">
    <!-- Generator: Sketch 41.2 (35397) - http://www.bohemiancoding.com/sketch -->
    <title>ic_descriptive_text</title>
    <desc>Created with Sketch.</desc>
    <defs></defs>
    <g id="Form-Builder" stroke="none" stroke-width="1" fill="none" fill-rule="evenodd">
        <g id="03_addnew_hover" transform="translate(-510.000000, -659.000000)" fill="#000000">
            <g id="ic_descriptive_text" transform="translate(510.500000, 659.000000)">
                <g id="Capa_1">
                    <g id="Group">
                        <path d="M11.3243478,19.8495652 L0.434782609,19.8495652 C0.194782609,19.8495652 0,19.6547826 0,19.4147826 C0,19.1747826 0.194782609,18.98 0.434782609,18.98 L11.3243478,18.98 C11.5643478,18.98 11.7591304,19.1747826 11.7591304,19.4147826 C11.7591304,19.6547826 11.5652174,19.8495652 11.3243478,19.8495652 Z" id="Shape"></path>
                        <path d="M19.4904348,13.5486957 L0.434782609,13.5486957 C0.194782609,13.5486957 0,13.353913 0,13.113913 C0,12.873913 0.194782609,12.6791304 0.434782609,12.6791304 L19.4904348,12.6791304 C19.7304348,12.6791304 19.9252174,12.873913 19.9252174,13.113913 C19.9252174,13.353913 19.7304348,13.5486957 19.4904348,13.5486957 Z" id="Shape"></path>
                        <path d="M11.3243478,7.24695652 L0.434782609,7.24695652 C0.194782609,7.24695652 0,7.05217391 0,6.81217391 C0,6.57217391 0.194782609,6.3773913 0.434782609,6.3773913 L11.3243478,6.3773913 C11.5643478,6.3773913 11.7591304,6.57217391 11.7591304,6.81217391 C11.7591304,7.05217391 11.5652174,7.24695652 11.3243478,7.24695652 Z" id="Shape"></path>
                        <path d="M19.4904348,0.945217391 L0.434782609,0.945217391 C0.194782609,0.945217391 0,0.750434783 0,0.510434783 C0,0.270434783 0.194782609,0.0756521739 0.434782609,0.0756521739 L19.4904348,0.0756521739 C19.7304348,0.0756521739 19.9252174,0.270434783 19.9252174,0.510434783 C19.9252174,0.750434783 19.7304348,0.945217391 19.4904348,0.945217391 Z" id="Shape"></path>
                    </g>
                </g>
            </g>
        </g>
    </g>
</svg>