<?xml version="1.0" encoding="UTF-8"?>
<svg width="104px" height="106px" viewBox="0 0 104 106" version="1.1" xmlns="http://www.w3.org/2000/svg" xmlns:xlink="http://www.w3.org/1999/xlink">
    <!-- Generator: Sketch 41.1 (35376) - http://www.bohemiancoding.com/sketch -->
    <title>ic_distribute_empty</title>
    <desc>Created with Sketch.</desc>
    <defs>
        <polygon id="path-1" points="0 102.927465 105.762831 102.927465 105.762831 0 0 0"></polygon>
    </defs>
    <g id="Distribute" stroke="none" stroke-width="1" fill="none" fill-rule="evenodd">
        <g id="03_distribute_empty" transform="translate(-688.000000, -317.000000)">
            <g id="ic_distribute_empty" transform="translate(740.000000, 370.000000) rotate(-90.000000) translate(-740.000000, -370.000000) translate(687.000000, 318.500000)">
                <mask id="mask-2" fill="white">
                    <use xlink:href="#path-1"></use>
                </mask>
                <g id="Clip-2"></g>
                <path d="M47.727589,49.4719155 C47.3263379,42.6328122 44.8951142,36.3454601 41.0118356,31.1857887 L49.3350137,25.6421643 C54.2792603,32.3864883 57.3421279,40.5868357 57.742411,49.4719155 L47.727589,49.4719155 Z M49.3350137,77.2833662 L41.0118356,71.7397418 C44.8951142,66.5800704 47.3263379,60.2927183 47.727589,53.453615 L57.742411,53.453615 C57.3421279,62.3386948 54.2792603,70.5390423 49.3350137,77.2833662 L49.3350137,77.2833662 Z M37.7113151,69.5414413 L24.3930685,60.6708685 C26.1505388,58.6838873 27.3446119,56.1993146 27.7410228,53.453615 L43.7455708,53.453615 C43.3452877,59.4754883 41.1705936,65.0147606 37.7113151,69.5414413 L37.7113151,69.5414413 Z M15.9425936,81.2616808 L15.9425936,65.2405869 C17.8515616,64.9654366 19.6337169,64.3063333 21.2125845,63.3387136 L35.0511507,72.5560047 C30.0788311,77.5203146 23.3892146,80.7694085 15.9425936,81.2616808 L15.9425936,81.2616808 Z M3.98589041,51.4627653 C3.98589041,45.973784 8.45628311,41.5075493 13.9503744,41.5075493 C19.4444658,41.5075493 23.9148584,45.973784 23.9148584,51.4627653 C23.9148584,56.9517465 19.4444658,61.4179812 13.9503744,61.4179812 C8.45628311,61.4179812 3.98589041,56.9512629 3.98589041,51.4627653 L3.98589041,51.4627653 Z M15.9430776,21.6638498 C23.3892146,22.1561221 30.0788311,25.4047324 35.0516347,30.3695258 L21.2130685,39.5868169 C19.6337169,38.6191972 17.8520457,37.9596103 15.9430776,37.6849437 L15.9430776,21.6638498 Z M43.7450868,49.4719155 L27.7405388,49.4719155 C27.3446119,46.726216 26.1500548,44.2411596 24.3925845,42.254662 L37.7108311,33.3840892 C41.1701096,37.91077 43.3448037,43.4500423 43.7450868,49.4719155 L43.7450868,49.4719155 Z M93.0801005,38.791831 C92.3017991,38.0142535 91.0404475,38.0142535 90.2621461,38.791831 C89.4833607,39.5694085 89.4838447,40.8295869 90.2621461,41.6071643 L98.1342192,49.4719155 L61.7278174,49.4719155 C61.3275342,39.7705728 58.0183014,30.8110235 52.6505388,23.4337089 L72.239242,10.3865587 L69.6352237,20.8142207 C69.3704658,21.8814554 70.0185662,22.9627136 71.0867945,23.2291596 C71.2484566,23.2678451 71.4120548,23.2876714 71.5712968,23.2876714 C72.4643105,23.2876714 73.2760091,22.6832113 73.5039817,21.778939 L77.8422374,4.39273239 L60.4417808,0.0570610329 C59.3730685,-0.202131455 58.2932237,0.441497653 58.0245936,1.50728169 C57.7598356,2.57451643 58.4098721,3.65577465 59.4761644,3.92222066 L70.5998721,6.69306573 L50.164621,20.3040563 C41.3869498,10.1351033 28.4128402,3.67898592 13.9498904,3.67898592 L13.9498904,7.66116901 C27.030968,7.66116901 38.7843836,13.4214319 46.824411,22.5284695 L38.424758,28.1233521 C32.251589,21.6643333 23.5731416,17.6159014 13.9498904,17.6159014 L11.9571872,17.6159014 L11.9571872,37.6849437 C5.20900457,38.6564319 0,44.4563474 0,51.4627653 C0,58.4691831 5.20900457,64.2690986 11.9571872,65.2405869 L11.9571872,85.3096291 L13.9498904,85.3096291 C23.5731416,85.3096291 32.251589,81.2611972 38.424274,74.802662 L46.8239269,80.3975446 C38.7843836,89.5045822 27.030968,95.2648451 13.9494064,95.2648451 L13.9494064,99.2470282 C28.4123562,99.2470282 41.3864658,92.7909108 50.164137,82.6219577 L70.5993881,96.2329484 L59.4756804,99.0037934 C58.4089041,99.2702394 57.7593516,100.351498 58.0241096,101.418732 C58.2520822,102.323005 59.0632968,102.927465 59.9567945,102.927465 C60.1165205,102.927465 60.2796347,102.908122 60.4412968,102.868953 L77.8417534,98.5332817 L73.5034977,81.1470751 C73.2348676,80.0812911 72.1487306,79.4362113 71.0863105,79.6968545 C70.0180822,79.9633005 69.3699817,81.0445587 69.6347397,82.1117934 L72.238758,92.5394554 L52.6500548,79.4923052 C58.0178174,72.1149906 61.3270502,63.1554413 61.7273333,53.4540986 L98.1337352,53.4540986 L90.2616621,61.3188498 C89.4833607,62.0964272 89.4833607,63.3566056 90.2616621,64.1341831 C90.6508128,64.5229718 91.160968,64.7173662 91.6706393,64.7173662 C92.1803105,64.7173662 92.6904658,64.5229718 93.0796164,64.1341831 L105.762831,51.4627653 L93.0801005,38.791831 Z" id="Fill-1" fill="#C32026" mask="url(#mask-2)"></path>
            </g>
        </g>
    </g>
</svg>