<?xml version="1.0" encoding="UTF-8" standalone="no"?>
<svg width="21px" height="21px" viewBox="0 0 21 21" version="1.1" xmlns="http://www.w3.org/2000/svg" xmlns:xlink="http://www.w3.org/1999/xlink">
    <!-- Generator: Sketch 39.1 (31720) - http://www.bohemiancoding.com/sketch -->
    <title>ic_duplicate</title>
    <desc>Created with Sketch.</desc>
    <defs></defs>
    <g id="Form-Builder" stroke="none" stroke-width="1" fill="none" fill-rule="evenodd" opacity="0.400000006">
        <g id="02_AddNewQuestion" transform="translate(-1329.000000, -190.000000)" fill="#000000">
            <g id="ic_duplicate" transform="translate(1329.000000, 190.000000)">
                <g id="Capa_1">
                    <g id="Group">
                        <path d="M19.1766892,0 L5.42736486,0 C4.42872973,0 3.61824324,0.810486486 3.61824324,1.80912162 L3.61824324,3.61824324 L1.80912162,3.61824324 C0.810486486,3.61824324 0,4.42872973 0,5.42736486 L0,19.1766892 C0,20.1753243 0.810486486,20.9858108 1.80912162,20.9858108 L15.5584459,20.9858108 C16.5570811,20.9858108 17.3675676,20.1753243 17.3675676,19.1766892 L17.3675676,17.3675676 L19.1766892,17.3675676 C20.1753243,17.3675676 20.9858108,16.5570811 20.9858108,15.5584459 L20.9858108,1.80912162 C20.9858108,0.810486486 20.1753243,0 19.1766892,0 L19.1766892,0 Z M16.6439189,19.1766892 C16.6439189,19.7773176 16.1590743,20.2621622 15.5584459,20.2621622 L1.80912162,20.2621622 C1.20849324,20.2621622 0.723648649,19.7773176 0.723648649,19.1766892 L0.723648649,5.42736486 C0.723648649,4.82673649 1.20849324,4.34189189 1.80912162,4.34189189 L15.5584459,4.34189189 C16.1590743,4.34189189 16.6439189,4.82673649 16.6439189,5.42736486 L16.6439189,19.1766892 L16.6439189,19.1766892 Z M20.2621622,15.5584459 C20.2621622,16.1590743 19.7773176,16.6439189 19.1766892,16.6439189 L17.3675676,16.6439189 L17.3675676,5.42736486 C17.3675676,4.42872973 16.5570811,3.61824324 15.5584459,3.61824324 L4.34189189,3.61824324 L4.34189189,1.80912162 C4.34189189,1.20849324 4.82673649,0.723648649 5.42736486,0.723648649 L19.1766892,0.723648649 C19.7773176,0.723648649 20.2621622,1.20849324 20.2621622,1.80912162 L20.2621622,15.5584459 L20.2621622,15.5584459 Z" id="Shape"></path>
                        <path d="M6.87466216,5.2464527 L1.80912162,5.2464527 C1.70781081,5.2464527 1.62820946,5.32605405 1.62820946,5.42736486 L1.62820946,10.4929054 C1.62820946,10.5942162 1.70781081,10.6738176 1.80912162,10.6738176 C1.91043243,10.6738176 1.99003378,10.5942162 1.99003378,10.4929054 L1.99003378,5.60827703 L6.87466216,5.60827703 C6.97597297,5.60827703 7.05557432,5.52867568 7.05557432,5.42736486 C7.05557432,5.32605405 6.97597297,5.2464527 6.87466216,5.2464527 L6.87466216,5.2464527 Z" id="Shape"></path>
                        <path d="M15.5584459,13.9302365 C15.4571351,13.9302365 15.3775338,14.0098378 15.3775338,14.1111486 L15.3775338,18.995777 L10.4929054,18.995777 C10.3915946,18.995777 10.3119932,19.0753784 10.3119932,19.1766892 C10.3119932,19.278 10.3915946,19.3576014 10.4929054,19.3576014 L15.5584459,19.3576014 C15.6597568,19.3576014 15.7393581,19.278 15.7393581,19.1766892 L15.7393581,14.1111486 C15.7393581,14.0098378 15.6597568,13.9302365 15.5584459,13.9302365 L15.5584459,13.9302365 Z" id="Shape"></path>
                    </g>
                </g>
            </g>
        </g>
    </g>
</svg>