<?xml version="1.0" encoding="UTF-8"?>
<svg width="19px" height="20px" viewBox="0 0 19 20" version="1.1" xmlns="http://www.w3.org/2000/svg" xmlns:xlink="http://www.w3.org/1999/xlink">
    <!-- Generator: Sketch 41.2 (35397) - http://www.bohemiancoding.com/sketch -->
    <title>ic_date_time</title>
    <desc>Created with Sketch.</desc>
    <defs></defs>
    <g id="Form-Builder" stroke="none" stroke-width="1" fill="none" fill-rule="evenodd">
        <g id="03_addnew_hover" transform="translate(-706.000000, -656.000000)" fill="#000000">
            <g id="ic_date_time" transform="translate(706.000000, 656.000000)">
                <g id="Capa_1">
                    <g id="Group">
                        <path d="M18.3333333,1.33333333 L16,1.33333333 L16,0.333333333 C16,0.149 15.851,0 15.6666667,0 L13.3333333,0 C13.149,0 13,0.149 13,0.333333333 L13,1.33333333 L5.66666667,1.33333333 L5.66666667,0.333333333 C5.66666667,0.149 5.51766667,0 5.33333333,0 L3,0 C2.81566667,0 2.66666667,0.149 2.66666667,0.333333333 L2.66666667,1.33333333 L0.333333333,1.33333333 C0.149,1.33333333 0,1.48233333 0,1.66666667 L0,5.33333333 L0,19.6666667 C0,19.851 0.149,20 0.333333333,20 L18.3333333,20 C18.5176667,20 18.6666667,19.851 18.6666667,19.6666667 L18.6666667,5.33333333 L18.6666667,1.66666667 C18.6666667,1.48233333 18.5176667,1.33333333 18.3333333,1.33333333 Z M13.6666667,0.666666667 L15.3333333,0.666666667 L15.3333333,1.66666667 L15.3333333,2.66666667 L13.6666667,2.66666667 L13.6666667,1.66666667 L13.6666667,0.666666667 Z M3.33333333,0.666666667 L5,0.666666667 L5,1.66666667 L5,2.66666667 L3.33333333,2.66666667 L3.33333333,1.66666667 L3.33333333,0.666666667 Z M0.666666667,2 L2.66666667,2 L2.66666667,3 C2.66666667,3.18433333 2.81566667,3.33333333 3,3.33333333 L5.33333333,3.33333333 C5.51766667,3.33333333 5.66666667,3.18433333 5.66666667,3 L5.66666667,2 L13,2 L13,3 C13,3.18433333 13.149,3.33333333 13.3333333,3.33333333 L15.6666667,3.33333333 C15.851,3.33333333 16,3.18433333 16,3 L16,2 L18,2 L18,5 L0.666666667,5 L0.666666667,2 Z M0.666666667,19.3333333 L0.666666667,5.66666667 L18,5.66666667 L18,19.3333333 L0.666666667,19.3333333 Z" id="Shape"></path>
                        <path d="M12,7.66666667 L9.66666667,7.66666667 L9,7.66666667 L6.66666667,7.66666667 L6,7.66666667 L3,7.66666667 L3,10.6666667 L3,11.3333333 L3,13.6666667 L3,14.3333333 L3,17.3333333 L6,17.3333333 L6.66666667,17.3333333 L9,17.3333333 L9.66666667,17.3333333 L12,17.3333333 L12.6666667,17.3333333 L15.6666667,17.3333333 L15.6666667,14.3333333 L15.6666667,13.6666667 L15.6666667,11.3333333 L15.6666667,10.6666667 L15.6666667,7.66666667 L12.6666667,7.66666667 L12,7.66666667 Z M9.66666667,8.33333333 L12,8.33333333 L12,10.6666667 L9.66666667,10.6666667 L9.66666667,8.33333333 Z M12,13.6666667 L9.66666667,13.6666667 L9.66666667,11.3333333 L12,11.3333333 L12,13.6666667 Z M6.66666667,11.3333333 L9,11.3333333 L9,13.6666667 L6.66666667,13.6666667 L6.66666667,11.3333333 Z M6.66666667,8.33333333 L9,8.33333333 L9,10.6666667 L6.66666667,10.6666667 L6.66666667,8.33333333 Z M3.66666667,8.33333333 L6,8.33333333 L6,10.6666667 L3.66666667,10.6666667 L3.66666667,8.33333333 Z M3.66666667,11.3333333 L6,11.3333333 L6,13.6666667 L3.66666667,13.6666667 L3.66666667,11.3333333 Z M6,16.6666667 L3.66666667,16.6666667 L3.66666667,14.3333333 L6,14.3333333 L6,16.6666667 Z M9,16.6666667 L6.66666667,16.6666667 L6.66666667,14.3333333 L9,14.3333333 L9,16.6666667 Z M12,16.6666667 L9.66666667,16.6666667 L9.66666667,14.3333333 L12,14.3333333 L12,16.6666667 Z M15,16.6666667 L12.6666667,16.6666667 L12.6666667,14.3333333 L15,14.3333333 L15,16.6666667 Z M15,13.6666667 L12.6666667,13.6666667 L12.6666667,11.3333333 L15,11.3333333 L15,13.6666667 Z M15,8.33333333 L15,10.6666667 L12.6666667,10.6666667 L12.6666667,8.33333333 L15,8.33333333 Z" id="Shape"></path>
                    </g>
                </g>
            </g>
        </g>
    </g>
</svg>