<?xml version="1.0" encoding="UTF-8"?>
<svg width="23px" height="23px" viewBox="0 0 23 23" version="1.1" xmlns="http://www.w3.org/2000/svg" xmlns:xlink="http://www.w3.org/1999/xlink">
    <!-- Generator: Sketch 40.3 (33839) - http://www.bohemiancoding.com/sketch -->
    <title>ic_grid_select</title>
    <desc>Created with Sketch.</desc>
    <defs></defs>
    <g id="Form-Builder" stroke="none" stroke-width="1" fill="none" fill-rule="evenodd">
        <g id="02_landing_projects_filled" transform="translate(-122.000000, -425.000000)" fill="#C32026">
            <g id="Sidebar" transform="translate(0.000000, 64.000000)">
                <g id="Base">
                    <g id="side">
                        <path d="M130.2587,363.3521 L123.3757,363.3521 L123.3757,370.2351 L130.2587,370.2351 L130.2587,363.3521 Z M130.2587,371.6111 L123.3757,371.6111 C122.6157,371.6111 121.9997,370.9951 121.9997,370.2351 L121.9997,363.3521 C121.9997,362.5921 122.6157,361.9751 123.3757,361.9751 L130.2587,361.9751 C131.0187,361.9751 131.6357,362.5921 131.6357,363.3521 L131.6357,370.2351 C131.6357,370.9951 131.0187,371.6111 130.2587,371.6111 L130.2587,371.6111 Z M130.2587,375.7411 L123.3757,375.7411 L123.3757,382.6241 L130.2587,382.6241 L130.2587,375.7411 Z M130.2587,384.0001 L123.3757,384.0001 C122.6157,384.0001 121.9997,383.3841 121.9997,382.6241 L121.9997,375.7411 C121.9997,374.9801 122.6157,374.3641 123.3757,374.3641 L130.2587,374.3641 C131.0187,374.3641 131.6357,374.9801 131.6357,375.7411 L131.6357,382.6241 C131.6357,383.3841 131.0187,384.0001 130.2587,384.0001 L130.2587,384.0001 Z M142.6477,363.3521 L135.7647,363.3521 L135.7647,370.2351 L142.6477,370.2351 L142.6477,363.3521 Z M142.6477,371.6111 L135.7647,371.6111 C135.0047,371.6111 134.3887,370.9951 134.3887,370.2351 L134.3887,363.3521 C134.3887,362.5921 135.0047,361.9751 135.7647,361.9751 L142.6477,361.9751 C143.4077,361.9751 144.0247,362.5921 144.0247,363.3521 L144.0247,370.2351 C144.0247,370.9951 143.4077,371.6111 142.6477,371.6111 L142.6477,371.6111 Z M142.6477,375.7411 L135.7647,375.7411 L135.7647,382.6241 L142.6477,382.6241 L142.6477,375.7411 Z M142.6477,384.0001 L135.7647,384.0001 C135.0047,384.0001 134.3887,383.3841 134.3887,382.6241 L134.3887,375.7411 C134.3887,374.9801 135.0047,374.3641 135.7647,374.3641 L142.6477,374.3641 C143.4077,374.3641 144.0247,374.9801 144.0247,375.7411 L144.0247,382.6241 C144.0247,383.3841 143.4077,384.0001 142.6477,384.0001 L142.6477,384.0001 Z" id="ic_grid_select"></path>
                    </g>
                </g>
            </g>
        </g>
    </g>
</svg>