<?xml version="1.0" encoding="UTF-8"?>
<svg width="23px" height="23px" viewBox="0 0 23 23" version="1.1" xmlns="http://www.w3.org/2000/svg" xmlns:xlink="http://www.w3.org/1999/xlink">
    <!-- Generator: Sketch 40.3 (33839) - http://www.bohemiancoding.com/sketch -->
    <title>ic_grid_deselect</title>
    <desc>Created with Sketch.</desc>
    <defs></defs>
    <g id="Form-Builder" stroke="none" stroke-width="1" fill="none" fill-rule="evenodd">
        <g id="02_landing_projects_filled" transform="translate(-122.000000, -487.000000)" fill="#D1D1D1">
            <g id="Sidebar" transform="translate(0.000000, 64.000000)">
                <g id="Base">
                    <g id="side">
                        <path d="M130.2587,425.3521 L123.3757,425.3521 L123.3757,432.2351 L130.2587,432.2351 L130.2587,425.3521 Z M130.2587,433.6111 L123.3757,433.6111 C122.6157,433.6111 121.9997,432.9951 121.9997,432.2351 L121.9997,425.3521 C121.9997,424.5921 122.6157,423.9751 123.3757,423.9751 L130.2587,423.9751 C131.0187,423.9751 131.6357,424.5921 131.6357,425.3521 L131.6357,432.2351 C131.6357,432.9951 131.0187,433.6111 130.2587,433.6111 L130.2587,433.6111 Z M130.2587,437.7411 L123.3757,437.7411 L123.3757,444.6241 L130.2587,444.6241 L130.2587,437.7411 Z M130.2587,446.0001 L123.3757,446.0001 C122.6157,446.0001 121.9997,445.3841 121.9997,444.6241 L121.9997,437.7411 C121.9997,436.9801 122.6157,436.3641 123.3757,436.3641 L130.2587,436.3641 C131.0187,436.3641 131.6357,436.9801 131.6357,437.7411 L131.6357,444.6241 C131.6357,445.3841 131.0187,446.0001 130.2587,446.0001 L130.2587,446.0001 Z M142.6477,425.3521 L135.7647,425.3521 L135.7647,432.2351 L142.6477,432.2351 L142.6477,425.3521 Z M142.6477,433.6111 L135.7647,433.6111 C135.0047,433.6111 134.3887,432.9951 134.3887,432.2351 L134.3887,425.3521 C134.3887,424.5921 135.0047,423.9751 135.7647,423.9751 L142.6477,423.9751 C143.4077,423.9751 144.0247,424.5921 144.0247,425.3521 L144.0247,432.2351 C144.0247,432.9951 143.4077,433.6111 142.6477,433.6111 L142.6477,433.6111 Z M142.6477,437.7411 L135.7647,437.7411 L135.7647,444.6241 L142.6477,444.6241 L142.6477,437.7411 Z M142.6477,446.0001 L135.7647,446.0001 C135.0047,446.0001 134.3887,445.3841 134.3887,444.6241 L134.3887,437.7411 C134.3887,436.9801 135.0047,436.3641 135.7647,436.3641 L142.6477,436.3641 C143.4077,436.3641 144.0247,436.9801 144.0247,437.7411 L144.0247,444.6241 C144.0247,445.3841 143.4077,446.0001 142.6477,446.0001 L142.6477,446.0001 Z" id="ic_grid_deselect"></path>
                    </g>
                </g>
            </g>
        </g>
    </g>
</svg>