<?xml version="1.0" encoding="UTF-8"?>
<svg width="22px" height="22px" viewBox="0 0 22 22" version="1.1" xmlns="http://www.w3.org/2000/svg" xmlns:xlink="http://www.w3.org/1999/xlink">
    <!-- Generator: Sketch 40.3 (33839) - http://www.bohemiancoding.com/sketch -->
    <title>ic_home_deselect</title>
    <desc>Created with Sketch.</desc>
    <defs></defs>
    <g id="Form-Builder" stroke="none" stroke-width="1" fill="none" fill-rule="evenodd">
        <g id="02_landing_projects_filled" transform="translate(-34.000000, -74.000000)" fill="#D5D5D5">
            <g id="Sidebar" transform="translate(0.000000, 64.000000)">
                <g id="ic_home_deselect" transform="translate(34.000000, 10.000000)">
                    <path d="M18.5287855,9.77046104 L18.5287855,20.6240172 L15.1137744,20.6240172 L15.1137744,13.7539314 C15.1137744,13.3735704 14.8073241,13.06594 14.4284224,13.06594 L7.59840005,13.06594 C7.22145645,13.06594 6.91500619,13.3725876 6.91304804,13.7519657 L6.89150841,20.6240172 L3.47160187,20.6240172 L3.47160187,9.77046104 C3.47160187,9.71542173 3.45299946,9.66726233 3.44125057,9.6161544 L11.0271183,1.68164761 L18.5620741,9.60730879 C18.548367,9.66038242 18.5287855,9.7124732 18.5287855,9.77046104 M21.8096635,11.0294853 L11.5215508,0.211311651 C11.392313,0.0756790565 11.2141214,0 11.0271183,0 C10.8401151,0 10.6619235,0.0756790565 10.5326857,0.211311651 L0.19072389,11.0294853 C-0.0716680229,11.3036991 -0.0618772799,11.7390994 0.21128445,12.0015189 C0.48444618,12.2649214 0.917197021,12.2570586 1.17958893,11.981862 L2.10089785,11.0176912 L2.10089785,21.3120086 C2.10089785,21.6923695 2.40832718,22 2.78624986,22 L7.57490227,22 C7.95184587,22 8.25829613,21.6933524 8.26025428,21.3139743 L8.28179391,14.4419228 L13.7430704,14.4419228 L13.7430704,21.3120086 C13.7430704,21.6923695 14.0495206,22 14.4284224,22 L19.2141376,22 C19.5930393,22 19.8994896,21.6923695 19.8994896,21.3120086 L19.8994896,11.0137598 L20.8198194,11.9828449 C20.9549317,12.1224089 21.1350813,12.1941565 21.315231,12.1941565 C21.4855899,12.1931737 21.6569279,12.1302716 21.789103,12.0015189 C22.0622647,11.7390994 22.0710764,11.3036991 21.8096635,11.0294853" id="Icon"></path>
                </g>
            </g>
        </g>
    </g>
</svg>