<?xml version="1.0" encoding="UTF-8"?>
<svg width="7px" height="14px" viewBox="0 0 7 14" version="1.1" xmlns="http://www.w3.org/2000/svg" xmlns:xlink="http://www.w3.org/1999/xlink">
    <!-- Generator: Sketch 41.2 (35397) - http://www.bohemiancoding.com/sketch -->
    <title>ic_key_variable</title>
    <desc>Created with Sketch.</desc>
    <defs></defs>
    <g id="Analyse" stroke="none" stroke-width="1" fill="none" fill-rule="evenodd">
        <g id="06_analyse_regression_table" transform="translate(-4.000000, -295.000000)" fill="#FFFFFF">
            <g id="Variables" transform="translate(-1.000000, 220.000000)">
                <g id="ic_key_variable" transform="translate(8.500000, 82.000000) rotate(-90.000000) translate(-8.500000, -82.000000) translate(1.500000, 78.500000)">
                    <path d="M2.64242553,2.73766667 C3.05563404,2.73766667 3.39178298,3.07963636 3.39178298,3.5 C3.39178298,3.92036364 3.05563404,4.26233333 2.64242553,4.26233333 C2.22921702,4.26233333 1.89309787,3.92036364 1.89309787,3.5 C1.89309787,3.07963636 2.22924681,2.73766667 2.64242553,2.73766667 M2.64242553,4.71687879 C3.30200426,4.71687879 3.83859149,4.171 3.83859149,3.5 C3.83859149,2.829 3.30200426,2.28312121 2.64242553,2.28312121 C1.98284681,2.28312121 1.44628936,2.829 1.44628936,3.5 C1.44628936,4.171 1.9828766,4.71687879 2.64242553,4.71687879" id="Fill-1"></path>
                    <path d="M3.44042553,0.454545455 C4.71445532,0.454545455 5.87684255,1.29466667 6.33285532,2.54506061 C6.36535319,2.63415152 6.44890638,2.69327273 6.54231915,2.69327273 L12.709617,2.69333333 L13.4662426,3.49845455 L11.8508511,5.18745455 L11.0505277,4.37327273 C11.0086468,4.33063636 10.9518128,4.30669697 10.892566,4.30669697 C10.8333191,4.30669697 10.7764851,4.33063636 10.7346043,4.37327273 L9.93210638,5.18966667 L9.12960851,4.37327273 C9.08772766,4.33063636 9.03089362,4.30669697 8.97164681,4.30669697 L6.49346809,4.30669697 C6.39728511,4.30669697 6.31185532,4.36933333 6.28150213,4.46221212 C5.87386383,5.70827273 4.73214894,6.54545455 3.44042553,6.54545455 C1.78973617,6.54545455 0.446808511,5.17927273 0.446808511,3.5 C0.446808511,1.82072727 1.78973617,0.454545455 3.44042553,0.454545455 M3.44042553,7 C4.87051064,7 6.14057872,6.10712121 6.65053617,4.76127273 L8.87906809,4.76127273 L9.77408511,5.67178788 C9.86133191,5.76054545 10.0027915,5.76054545 10.0900085,5.67178788 L10.8925064,4.85539394 L11.6950043,5.67178788 C11.7372723,5.71478788 11.7950298,5.73860606 11.8544851,5.73836364 C11.9142681,5.73793939 11.9713702,5.71315152 12.0130723,5.66957576 L13.9366723,3.65833333 C14.0205234,3.57063636 14.0211191,3.43118182 13.9380426,3.34278788 L12.9665319,2.309 C12.924383,2.26415152 12.8660596,2.23878788 12.8050553,2.23878788 L6.69417447,2.23872727 C6.43523404,1.61093939 6.01705106,1.07263636 5.47763404,0.674848485 C4.87897021,0.233363636 4.17450213,0 3.44042553,0 C1.54336596,0 0,1.57009091 0,3.5 C0,5.42990909 1.54336596,7 3.44042553,7" id="Fill-3"></path>
                    <path d="M6.65744681,3.72715152 L12.4865106,3.72715152 C12.6098894,3.72715152 12.7099149,3.62539394 12.7099149,3.49987879 C12.7099149,3.37436364 12.6098894,3.27260606 12.4865106,3.27260606 L6.65744681,3.27260606 C6.53406809,3.27260606 6.43404255,3.37436364 6.43404255,3.49987879 C6.43404255,3.62539394 6.53406809,3.72715152 6.65744681,3.72715152" id="Fill-5"></path>
                </g>
            </g>
        </g>
    </g>
</svg>