<?xml version="1.0" encoding="UTF-8"?>
<svg width="76px" height="105px" viewBox="0 0 76 105" version="1.1" xmlns="http://www.w3.org/2000/svg" xmlns:xlink="http://www.w3.org/1999/xlink">
    <!-- Generator: Sketch 41.1 (35376) - http://www.bohemiancoding.com/sketch -->
    <title>ic_lists_empty</title>
    <desc>Created with Sketch.</desc>
    <defs></defs>
    <g id="Distribute" stroke="none" stroke-width="1" fill="none" fill-rule="evenodd">
        <g id="04_lists_default" transform="translate(-702.000000, -332.000000)" fill="#C31F26">
            <g id="ic_lists_empty" transform="translate(702.000000, 332.000000)">
                <path d="M72.5970149,99.6706263 C72.5970149,100.733553 71.7319761,101.598272 70.6686567,101.598272 L5.33134328,101.598272 C4.26802388,101.598272 3.40298507,100.733553 3.40298507,99.6706263 L3.40298507,8.95788337 C3.40298507,7.8949568 4.26802388,7.03023758 5.33134328,7.03023758 L9.07462687,7.03023758 L9.07462687,8.95788337 C9.07462687,9.8974406 9.83621493,10.6587473 10.7761194,10.6587473 C11.7160239,10.6587473 12.4776119,9.8974406 12.4776119,8.95788337 L12.4776119,7.03023758 L19.9641791,7.03023758 L19.9641791,8.95788337 C19.9641791,9.8974406 20.7257672,10.6587473 21.6656716,10.6587473 C22.6055761,10.6587473 23.3671642,9.8974406 23.3671642,8.95788337 L23.3671642,7.03023758 L30.8537313,7.03023758 L30.8537313,8.95788337 C30.8537313,9.8974406 31.6153194,10.6587473 32.5552239,10.6587473 C33.4951284,10.6587473 34.2567164,9.8974406 34.2567164,8.95788337 L34.2567164,7.03023758 L41.7432836,7.03023758 L41.7432836,8.95788337 C41.7432836,9.8974406 42.5048716,10.6587473 43.4447761,10.6587473 C44.3846806,10.6587473 45.1462687,9.8974406 45.1462687,8.95788337 L45.1462687,7.03023758 L52.6328358,7.03023758 L52.6328358,8.95788337 C52.6328358,9.8974406 53.3944239,10.6587473 54.3343284,10.6587473 C55.2742328,10.6587473 56.0358209,9.8974406 56.0358209,8.95788337 L56.0358209,7.03023758 L63.5223881,7.03023758 L63.5223881,8.95788337 C63.5223881,9.8974406 64.2839761,10.6587473 65.2238806,10.6587473 C66.1637851,10.6587473 66.9253731,9.8974406 66.9253731,8.95788337 L66.9253731,7.03023758 L70.6686567,7.03023758 C71.7319761,7.03023758 72.5970149,7.8949568 72.5970149,8.95788337 L72.5970149,99.6706263 Z M70.6686567,3.62850972 L66.9253731,3.62850972 L66.9253731,1.70086393 C66.9253731,0.761306695 66.1637851,0 65.2238806,0 C64.2839761,0 63.5223881,0.761306695 63.5223881,1.70086393 L63.5223881,3.62850972 L56.0358209,3.62850972 L56.0358209,1.70086393 C56.0358209,0.761306695 55.2742328,0 54.3343284,0 C53.3944239,0 52.6328358,0.761306695 52.6328358,1.70086393 L52.6328358,3.62850972 L45.1462687,3.62850972 L45.1462687,1.70086393 C45.1462687,0.761306695 44.3846806,0 43.4447761,0 C42.5048716,0 41.7432836,0.761306695 41.7432836,1.70086393 L41.7432836,3.62850972 L34.2567164,3.62850972 L34.2567164,1.70086393 C34.2567164,0.761306695 33.4951284,0 32.5552239,0 C31.6153194,0 30.8537313,0.761306695 30.8537313,1.70086393 L30.8537313,3.62850972 L23.3671642,3.62850972 L23.3671642,1.70086393 C23.3671642,0.761306695 22.6055761,0 21.6656716,0 C20.7257672,0 19.9641791,0.761306695 19.9641791,1.70086393 L19.9641791,3.62850972 L12.4776119,3.62850972 L12.4776119,1.70086393 C12.4776119,0.761306695 11.7160239,0 10.7761194,0 C9.83621493,0 9.07462687,0.761306695 9.07462687,1.70086393 L9.07462687,3.62850972 L5.33134328,3.62850972 C2.39161791,3.62850972 0,6.01924406 0,8.95788337 L0,99.6706263 C0,102.609266 2.39161791,105 5.33134328,105 L70.6686567,105 C73.6083821,105 76,102.609266 76,99.6706263 L76,8.95788337 C76,6.01924406 73.6083821,3.62850972 70.6686567,3.62850972 L70.6686567,3.62850972 Z" id="Fill-1"></path>
                <path d="M32.5552239,26.987041 L57.9641791,26.987041 C58.9040836,26.987041 59.6656716,26.2257343 59.6656716,25.2861771 C59.6656716,24.3466199 58.9040836,23.5853132 57.9641791,23.5853132 L32.5552239,23.5853132 C31.6153194,23.5853132 30.8537313,24.3466199 30.8537313,25.2861771 C30.8537313,26.2257343 31.6153194,26.987041 32.5552239,26.987041" id="Fill-3"></path>
                <path d="M65.2238806,30.8423326 L32.5552239,30.8423326 C31.6153194,30.8423326 30.8537313,31.6036393 30.8537313,32.5431965 C30.8537313,33.4827538 31.6153194,34.2440605 32.5552239,34.2440605 L65.2238806,34.2440605 C66.1637851,34.2440605 66.9253731,33.4827538 66.9253731,32.5431965 C66.9253731,31.6036393 66.1637851,30.8423326 65.2238806,30.8423326" id="Fill-5"></path>
                <path d="M24.0921815,22.2690259 L16.2208501,30.1379028 L11.9793696,25.8977624 C11.3146531,25.2337451 10.2374949,25.2337451 9.57300537,25.8977624 C8.90851582,26.5622333 8.90851582,27.6389935 9.57300537,28.3032376 L15.0177815,33.7460022 C15.3501397,34.0780108 15.7857218,34.2440151 16.221077,34.2440151 C16.6564322,34.2440151 17.0920143,34.0780108 17.4243725,33.7460022 L26.4989994,24.6747279 C27.163489,24.010257 27.163489,22.9334968 26.4989994,22.2692527 C25.8340561,21.6052354 24.7568979,21.6052354 24.0921815,22.2690259" id="Fill-7"></path>
                <path d="M32.5552239,45.1295896 L57.9641791,45.1295896 C58.9040836,45.1295896 59.6656716,44.3682829 59.6656716,43.4287257 C59.6656716,42.4891685 58.9040836,41.7278618 57.9641791,41.7278618 L32.5552239,41.7278618 C31.6153194,41.7278618 30.8537313,42.4891685 30.8537313,43.4287257 C30.8537313,44.3682829 31.6153194,45.1295896 32.5552239,45.1295896" id="Fill-9"></path>
                <path d="M65.2238806,48.9848812 L32.5552239,48.9848812 C31.6153194,48.9848812 30.8537313,49.7461879 30.8537313,50.6857451 C30.8537313,51.6253024 31.6153194,52.3866091 32.5552239,52.3866091 L65.2238806,52.3866091 C66.1637851,52.3866091 66.9253731,51.6253024 66.9253731,50.6857451 C66.9253731,49.7461879 66.1637851,48.9848812 65.2238806,48.9848812" id="Fill-11"></path>
                <path d="M24.0921815,40.4115745 L16.2208501,48.2804514 L11.9793696,44.040311 C11.3146531,43.3762937 10.2374949,43.3762937 9.57300537,44.040311 C8.90851582,44.7047819 8.90851582,45.7815421 9.57300537,46.4457862 L15.0177815,51.8885508 C15.3501397,52.2205594 15.7857218,52.3865637 16.221077,52.3865637 C16.6564322,52.3865637 17.0920143,52.2205594 17.4243725,51.8885508 L26.4989994,42.8172765 C27.163489,42.1528056 27.163489,41.0760454 26.4989994,40.4118013 C25.8340561,39.747784 24.7568979,39.747784 24.0921815,40.4115745" id="Fill-13"></path>
                <path d="M32.5552239,63.2721382 L57.9641791,63.2721382 C58.9040836,63.2721382 59.6656716,62.5108315 59.6656716,61.5712743 C59.6656716,60.6317171 58.9040836,59.8704104 57.9641791,59.8704104 L32.5552239,59.8704104 C31.6153194,59.8704104 30.8537313,60.6317171 30.8537313,61.5712743 C30.8537313,62.5108315 31.6153194,63.2721382 32.5552239,63.2721382" id="Fill-15"></path>
                <path d="M65.2238806,67.1274298 L32.5552239,67.1274298 C31.6153194,67.1274298 30.8537313,67.8887365 30.8537313,68.8282937 C30.8537313,69.767851 31.6153194,70.5291577 32.5552239,70.5291577 L65.2238806,70.5291577 C66.1637851,70.5291577 66.9253731,69.767851 66.9253731,68.8282937 C66.9253731,67.8887365 66.1637851,67.1274298 65.2238806,67.1274298" id="Fill-17"></path>
                <path d="M24.0921815,58.5542365 L16.2208501,66.4228866 L11.9793696,62.182973 C11.3146531,61.5187289 10.2374949,61.5187289 9.57300537,62.182973 C8.90851582,62.8474438 8.90851582,63.9242041 9.57300537,64.5882214 L15.0177815,70.030986 C15.3501397,70.3629946 15.7857218,70.5292257 16.221077,70.5292257 C16.6564322,70.5292257 17.0920143,70.3629946 17.4243725,70.030986 L26.4989994,60.9597117 C27.163489,60.2954676 27.163489,59.2187073 26.4989994,58.5544633 C25.8340561,57.8902192 24.7568979,57.8902192 24.0921815,58.5542365" id="Fill-19"></path>
                <path d="M32.5552239,81.4146868 L57.9641791,81.4146868 C58.9040836,81.4146868 59.6656716,80.6533801 59.6656716,79.7138229 C59.6656716,78.7742657 58.9040836,78.012959 57.9641791,78.012959 L32.5552239,78.012959 C31.6153194,78.012959 30.8537313,78.7742657 30.8537313,79.7138229 C30.8537313,80.6533801 31.6153194,81.4146868 32.5552239,81.4146868" id="Fill-21"></path>
                <path d="M65.2238806,85.2699784 L32.5552239,85.2699784 C31.6153194,85.2699784 30.8537313,86.0312851 30.8537313,86.9708423 C30.8537313,87.9103996 31.6153194,88.6717063 32.5552239,88.6717063 L65.2238806,88.6717063 C66.1637851,88.6717063 66.9253731,87.9103996 66.9253731,86.9708423 C66.9253731,86.0312851 66.1637851,85.2699784 65.2238806,85.2699784" id="Fill-23"></path>
                <path d="M24.0921815,76.6967851 L16.2208501,84.5654352 L11.9793696,80.3255216 C11.3146531,79.6612775 10.2374949,79.6612775 9.57300537,80.3255216 C8.90851582,80.9899924 8.90851582,82.0667527 9.57300537,82.73077 L15.0177815,88.1735346 C15.3501397,88.5055432 15.7857218,88.6717743 16.221077,88.6717743 C16.6564322,88.6717743 17.0920143,88.5055432 17.4243725,88.1735346 L26.4989994,79.1022603 C27.163489,78.4380162 27.163489,77.3612559 26.4989994,76.6970119 C25.8340561,76.0327678 24.7568979,76.0327678 24.0921815,76.6967851" id="Fill-25"></path>
            </g>
        </g>
    </g>
</svg>