<?xml version="1.0" encoding="UTF-8"?>
<svg width="24px" height="15px" viewBox="0 0 24 15" version="1.1" xmlns="http://www.w3.org/2000/svg" xmlns:xlink="http://www.w3.org/1999/xlink">
    <!-- Generator: Sketch 40.3 (33839) - http://www.bohemiancoding.com/sketch -->
    <title>ic_list_deselect</title>
    <desc>Created with Sketch.</desc>
    <defs></defs>
    <g id="Form-Builder" stroke="none" stroke-width="1" fill="none" fill-rule="evenodd" opacity="0.200000003">
        <g id="02_landing_projects_filled" transform="translate(-121.000000, -370.000000)" fill="#2B2B2B">
            <g id="Sidebar" transform="translate(0.000000, 64.000000)">
                <g id="Base">
                    <g id="side">
                        <path d="M128.508,308.25 L144.276,308.25 C144.69,308.25 145.026,307.914 145.026,307.5 C145.026,307.086 144.69,306.75 144.276,306.75 L128.508,306.75 C128.093,306.75 127.757,307.086 127.757,307.5 C127.757,307.914 128.093,308.25 128.508,308.25 M123.252,306 L121.75,306 C121.336,306 121,306.336 121,306.75 L121,308.25 C121,308.664 121.336,309 121.75,309 L123.252,309 C123.667,309 124.003,308.664 124.003,308.25 L124.003,306.75 C124.003,306.336 123.667,306 123.252,306 M144.276,318.75 L128.508,318.75 C128.093,318.75 127.757,319.086 127.757,319.5 C127.757,319.914 128.093,320.25 128.508,320.25 L144.276,320.25 C144.69,320.25 145.026,319.914 145.026,319.5 C145.026,319.086 144.69,318.75 144.276,318.75 M123.252,318 L121.75,318 C121.336,318 121,318.336 121,318.75 L121,320.25 C121,320.664 121.336,321 121.75,321 L123.252,321 C123.667,321 124.003,320.664 124.003,320.25 L124.003,318.75 C124.003,318.336 123.667,318 123.252,318 M144.276,312.75 L128.508,312.75 C128.093,312.75 127.757,313.086 127.757,313.5 C127.757,313.914 128.093,314.25 128.508,314.25 L144.276,314.25 C144.69,314.25 145.026,313.914 145.026,313.5 C145.026,313.086 144.69,312.75 144.276,312.75 M123.252,312 L121.75,312 C121.336,312 121,312.336 121,312.75 L121,314.25 C121,314.664 121.336,315 121.75,315 L123.252,315 C123.667,315 124.003,314.664 124.003,314.25 L124.003,312.75 C124.003,312.336 123.667,312 123.252,312" id="ic_list_deselect"></path>
                    </g>
                </g>
            </g>
        </g>
    </g>
</svg>