<?xml version="1.0" encoding="UTF-8"?>
<svg width="21px" height="19px" viewBox="0 0 21 19" version="1.1" xmlns="http://www.w3.org/2000/svg" xmlns:xlink="http://www.w3.org/1999/xlink">
    <!-- Generator: Sketch 41.2 (35397) - http://www.bohemiancoding.com/sketch -->
    <title>ic_logicjump_selected</title>
    <desc>Created with Sketch.</desc>
    <defs></defs>
    <g id="Form-Builder" stroke="none" stroke-width="1" fill="none" fill-rule="evenodd">
        <g id="14_addnew_LogicJump" transform="translate(-1243.000000, -192.000000)" fill="#CB1C22">
            <g id="ic_logicjump_selected" transform="translate(1243.000000, 192.000000)">
                <g id="Capa_1">
                    <g id="Group">
                        <path d="M0.686538462,9.36923077 C0.909865385,9.36923077 1.09038462,9.18871154 1.09038462,8.96538462 C1.09038462,6.51605769 3.08336538,4.52307692 5.53269231,4.52307692 L15.225,4.52307692 L15.225,8.14315385 L20.7576923,4.11923077 L15.225,0.0953076923 L15.225,3.71538462 L5.53269231,3.71538462 C2.63792308,3.71538462 0.282692308,6.07061538 0.282692308,8.96538462 C0.282692308,9.18871154 0.463211538,9.36923077 0.686538462,9.36923077 Z M16.0326923,1.68161538 L19.3846154,4.11923077 L16.0326923,6.55684615 L16.0326923,1.68161538 Z" id="Shape"></path>
                        <path d="M20.0711538,9.77307692 C19.8478269,9.77307692 19.6673077,9.95359615 19.6673077,10.1769231 C19.6673077,12.62625 17.6743269,14.6192308 15.225,14.6192308 L5.53269231,14.6192308 L5.53269231,10.9991538 L0,15.0230769 L5.53269231,19.047 L5.53269231,15.4269231 L15.225,15.4269231 C18.1197692,15.4269231 20.475,13.0716923 20.475,10.1769231 C20.475,9.95359615 20.2944808,9.77307692 20.0711538,9.77307692 Z M4.725,17.4606923 L1.37307692,15.0230769 L4.725,12.5854615 L4.725,17.4606923 L4.725,17.4606923 Z" id="Shape"></path>
                    </g>
                </g>
            </g>
        </g>
    </g>
</svg>