<?xml version="1.0" encoding="UTF-8"?>
<svg width="60px" height="60px" viewBox="0 0 60 60" version="1.1" xmlns="http://www.w3.org/2000/svg" xmlns:xlink="http://www.w3.org/1999/xlink">
    <!-- Generator: Sketch 41 (35326) - http://www.bohemiancoding.com/sketch -->
    <title>ic_main_user_temporary</title>
    <desc>Created with Sketch.</desc>
    <defs></defs>
    <g id="Users-and-Roles" stroke="none" stroke-width="1" fill="none" fill-rule="evenodd" opacity="0.400000006">
        <g id="03_users_usertype" transform="translate(-375.000000, -326.000000)" fill="#000000">
            <g id="usertype1" transform="translate(256.000000, 296.000000)">
                <g id="ic_main_user_temporary" transform="translate(119.000000, 30.000000)">
                    <g id="Capa_1">
                        <path d="M60,30 C60,13.458 46.542,0 30,0 C13.458,0 0,13.458 0,30 C0,36.142 1.858,41.857 5.038,46.618 L5.036,46.639 L5.243,46.942 C5.423,47.205 5.617,47.454 5.805,47.71 C5.881,47.814 5.956,47.919 6.034,48.023 C6.272,48.339 6.517,48.649 6.766,48.954 C6.838,49.042 6.911,49.129 6.984,49.216 C8.141,50.601 9.411,51.869 10.777,53.01 C10.86,53.079 10.942,53.149 11.026,53.218 C11.324,53.461 11.625,53.699 11.932,53.93 C12.056,54.024 12.182,54.115 12.307,54.207 C12.599,54.421 12.891,54.633 13.191,54.836 C13.351,54.945 13.517,55.047 13.679,55.153 C14.095,55.423 14.515,55.684 14.943,55.932 C15.241,56.106 15.54,56.279 15.845,56.443 C16.029,56.542 16.217,56.634 16.403,56.729 C16.727,56.895 17.054,57.056 17.385,57.21 C17.552,57.287 17.719,57.363 17.887,57.437 C18.27,57.607 18.658,57.768 19.049,57.922 C19.17,57.97 19.29,58.019 19.412,58.066 C20.485,58.472 21.587,58.82 22.714,59.102 C22.76,59.114 22.807,59.123 22.853,59.134 C23.351,59.256 23.854,59.365 24.362,59.462 C24.497,59.488 24.632,59.511 24.767,59.535 C24.787,59.539 24.806,59.542 24.826,59.545 L24.823,59.565 L25.351,59.639 C25.471,59.658 25.591,59.672 25.711,59.689 L25.821,59.704 C25.842,59.707 25.862,59.708 25.883,59.71 C25.937,59.717 25.992,59.724 26.046,59.731 C26.21,59.753 26.373,59.774 26.537,59.794 C26.934,59.84 27.333,59.876 27.735,59.906 C27.819,59.912 27.903,59.922 27.986,59.928 C28.082,59.934 28.179,59.941 28.275,59.947 C28.847,59.979 29.421,60 30,60 C30.579,60 31.153,59.979 31.724,59.947 C31.823,59.941 31.922,59.934 32.021,59.927 C32.105,59.921 32.189,59.911 32.274,59.905 C32.672,59.875 33.069,59.839 33.463,59.794 C33.627,59.775 33.791,59.753 33.954,59.731 C34.019,59.722 34.084,59.715 34.148,59.706 C34.168,59.703 34.189,59.702 34.209,59.7 L34.31,59.686 C34.423,59.67 34.537,59.656 34.649,59.638 L35.21,59.559 L35.207,59.538 C35.216,59.536 35.225,59.535 35.234,59.533 C35.369,59.509 35.504,59.486 35.639,59.46 C36.147,59.363 36.65,59.254 37.148,59.132 C37.194,59.121 37.241,59.111 37.287,59.1 C38.414,58.818 39.516,58.47 40.589,58.064 C40.711,58.018 40.832,57.968 40.954,57.92 C41.345,57.766 41.732,57.605 42.115,57.436 C42.283,57.362 42.451,57.286 42.617,57.209 C42.948,57.055 43.275,56.894 43.599,56.728 C43.786,56.633 43.973,56.54 44.157,56.442 C44.462,56.278 44.76,56.105 45.059,55.931 C45.487,55.682 45.908,55.422 46.323,55.152 C46.486,55.046 46.651,54.944 46.811,54.835 C47.11,54.632 47.403,54.42 47.695,54.206 C47.82,54.114 47.946,54.023 48.07,53.929 C48.376,53.698 48.678,53.46 48.976,53.217 C49.06,53.148 49.142,53.078 49.225,53.009 C50.591,51.867 51.861,50.6 53.019,49.214 C53.092,49.127 53.164,49.041 53.235,48.953 C53.484,48.648 53.729,48.338 53.967,48.022 C54.045,47.919 54.119,47.814 54.196,47.709 C54.384,47.453 54.578,47.204 54.758,46.941 L54.965,46.638 L54.963,46.617 C58.142,41.857 60,36.142 60,30 Z M58,30 C58,34.972 56.691,39.642 54.409,43.694 C52.802,38.366 48.083,34.504 42.424,34.052 L42.386,34 L41.311,34 L36.532,34 L35.366,34 C35.164,34 35,33.836 35,33.635 L35,32.99 C35,32.807 35.149,32.687 35.276,32.638 C41.715,30.217 45.731,20.174 44.889,13.15 C44.45,9.492 42.639,6.223 40.006,3.855 C50.517,7.892 58,18.086 58,30 Z M52.538,46.59 C52.457,46.699 52.376,46.807 52.294,46.915 C52.071,47.208 51.846,47.499 51.612,47.783 C51.588,47.812 51.563,47.84 51.539,47.869 C50.731,48.841 49.858,49.757 48.928,50.612 C48.873,50.663 48.818,50.715 48.762,50.765 C48.485,51.016 48.201,51.26 47.914,51.5 C47.824,51.575 47.733,51.649 47.642,51.723 C47.363,51.95 47.082,52.173 46.795,52.389 C46.698,52.462 46.598,52.531 46.5,52.603 C46.335,52.724 46.168,52.841 46,52.958 L46,48 L44,48 L44,54.233 C43.961,54.256 43.922,54.278 43.882,54.301 C43.627,54.447 43.372,54.592 43.113,54.729 C42.936,54.823 42.756,54.914 42.576,55.005 C42.274,55.157 41.97,55.304 41.663,55.445 C41.513,55.514 41.364,55.583 41.213,55.649 C40.828,55.817 40.439,55.977 40.047,56.128 C39.966,56.159 39.887,56.193 39.806,56.223 C38.806,56.597 37.784,56.915 36.743,57.173 C36.668,57.192 36.592,57.207 36.517,57.225 C36.086,57.328 35.652,57.422 35.215,57.504 C35.113,57.523 35.01,57.541 34.907,57.559 L33.162,46 L34,46 L34,43.535 L38.471,46.515 L42.644,36.083 C47.923,36.678 52.168,40.756 52.891,46.095 C52.774,46.261 52.659,46.427 52.538,46.59 Z M23.482,57.226 C23.407,57.208 23.332,57.192 23.257,57.174 C22.216,56.915 21.193,56.598 20.193,56.224 C20.112,56.194 20.032,56.16 19.952,56.129 C19.56,55.978 19.171,55.818 18.787,55.65 C18.636,55.584 18.486,55.515 18.336,55.446 C18.029,55.305 17.725,55.158 17.423,55.006 C17.243,54.915 17.063,54.825 16.886,54.73 C16.627,54.593 16.372,54.447 16.117,54.302 C16.078,54.279 16.038,54.257 15.999,54.234 L15.999,48 L13.999,48 L13.999,52.958 C13.832,52.841 13.664,52.723 13.499,52.603 C13.401,52.531 13.301,52.462 13.204,52.389 C12.917,52.173 12.636,51.95 12.358,51.724 C12.266,51.65 12.175,51.575 12.084,51.5 C11.797,51.261 11.514,51.017 11.238,50.766 C11.181,50.715 11.126,50.662 11.07,50.611 C10.14,49.756 9.267,48.841 8.46,47.869 C8.436,47.84 8.411,47.812 8.387,47.783 C8.153,47.499 7.928,47.208 7.705,46.915 C7.623,46.807 7.541,46.699 7.461,46.59 C7.341,46.427 7.226,46.261 7.109,46.095 C7.833,40.756 12.077,36.678 17.356,36.083 L21.529,46.515 L26,43.535 L26,46 L26.84,46 L25.12,57.566 C25.008,57.546 24.896,57.527 24.785,57.506 C24.348,57.423 23.913,57.329 23.482,57.226 Z M25.491,30.791 C20.709,29.022 17,20.85 17,15 C17,14.872 17.015,14.747 17.019,14.62 L17.751,13.717 C19.402,11.753 22.22,11.191 24.763,12.317 C25.785,12.771 26.874,13 28,13 C30.971,13 33.64,11.385 35.028,8.816 C38.21,9.861 41.05,11.831 42.971,14.314 C43.264,20.414 39.677,28.847 34.573,30.766 C33.617,31.126 33,31.999 33,32.99 L33,33.635 C33,34.781 33.82,35.738 34.904,35.954 L33.198,38 L26.802,38 L25.096,35.953 C26.18,35.738 27,34.78 27,33.635 L27,33 C27,32.014 26.395,31.126 25.491,30.791 Z M30.04,2.002 L30.073,2.002 C30.562,2.005 31.043,2.032 31.503,2.085 C36.462,2.638 40.629,6.09 42.255,10.674 C40.14,8.832 37.547,7.414 34.758,6.647 L33.898,6.411 L33.565,7.237 C32.644,9.522 30.46,11 28,11 C27.155,11 26.338,10.828 25.573,10.489 C22.807,9.265 19.787,9.596 17.556,11.219 C18.169,9.193 19.276,7.337 20.817,5.799 C23.271,3.35 26.53,2.002 30.04,2.002 Z M34,40.162 L37.469,36 L40.523,36 L37.53,43.484 L34,41.132 L34,40.162 Z M32.365,57.888 C32.095,57.911 31.824,57.937 31.556,57.953 C31.042,57.981 30.525,58 30.007,58 C29.973,58 29.938,57.997 29.904,57.997 C29.419,57.995 28.935,57.98 28.454,57.953 C28.19,57.938 27.924,57.912 27.658,57.89 C27.472,57.874 27.287,57.859 27.102,57.839 L28.862,46 L31.139,46 L32.925,57.837 C32.739,57.856 32.552,57.872 32.365,57.888 Z M32,44 L28,44 L28,42.202 L28,40 L32,40 L32,42.202 L32,44 Z M26,40.162 L26,41.132 L22.471,43.485 L19.478,36 L22.532,36 L26,40.162 Z M19.982,3.86 C19.789,4.034 19.59,4.198 19.404,4.383 C16.564,7.218 15,10.987 15,15 C15,21.629 19.19,30.593 24.797,32.666 C24.916,32.711 25,32.848 25,33 L25,33.635 C25,33.836 24.836,34 24.635,34 L23.469,34 L18.69,34 L18.145,34 C18.049,34 17.954,34.014 17.864,34.039 C12.079,34.382 7.226,38.278 5.592,43.695 C3.309,39.642 2,34.972 2,30 C2,18.09 9.478,7.9 19.982,3.86 Z" id="Shape"></path>
                    </g>
                </g>
            </g>
        </g>
    </g>
</svg>