<?xml version="1.0" encoding="UTF-8"?>
<svg width="21px" height="20px" viewBox="0 0 21 20" version="1.1" xmlns="http://www.w3.org/2000/svg" xmlns:xlink="http://www.w3.org/1999/xlink">
    <!-- Generator: Sketch 41.2 (35397) - http://www.bohemiancoding.com/sketch -->
    <title>ic_mult_choice</title>
    <desc>Created with Sketch.</desc>
    <defs></defs>
    <g id="Form-Builder" stroke="none" stroke-width="1" fill="none" fill-rule="evenodd">
        <g id="03_addnew_hover" transform="translate(-453.000000, -659.000000)" fill="#2B2B2B">
            <g id="ic_mult_choice" transform="translate(453.000000, 659.000000)">
                <g id="Capa_1">
                    <g id="Group">
                        <path d="M18.6260118,5.40105176 C18.3041435,5.40105176 18.0426071,5.66224235 18.0426071,5.98445647 L18.0426071,16.6372871 C18.0426071,17.7631341 17.1265624,18.67908 16.0008141,18.67908 L3.20860235,18.67908 C2.08295294,18.67908 1.16680941,17.7631341 1.16680941,16.6372871 L1.16680941,3.84502588 C1.16680941,2.71912941 2.08295294,1.80318353 3.20860235,1.80318353 L16.0008141,1.80318353 C16.3232259,1.80318353 16.5843176,1.54194353 16.5843176,1.21977882 C16.5843176,0.897564706 16.3233741,0.636374118 16.0008141,0.636374118 L3.20860235,0.636374118 C1.43971059,0.636423529 0,2.07578824 0,3.84497647 L0,16.6372376 C0,18.4064753 1.43971059,19.84584 3.20860235,19.84584 L16.0008141,19.84584 C17.7703482,19.84584 19.2095153,18.4064753 19.2095153,16.6372376 L19.2095153,5.98440706 C19.2094165,5.66229176 18.9485224,5.40105176 18.6260118,5.40105176 L18.6260118,5.40105176 Z" id="Shape"></path>
                        <path d="M19.9604259,0.194237647 L8.23797882,11.9160918 L5.30800941,8.98641882 C5.08017176,8.75858118 4.71091765,8.75858118 4.48308,8.98641882 C4.25524235,9.21430588 4.25524235,9.58360941 4.48308,9.81134824 L7.82608235,13.1535106 C7.94007529,13.2675529 8.08934824,13.3244259 8.23857176,13.3244259 C8.38784471,13.3244259 8.53716706,13.2675529 8.65106118,13.1535106 C8.65106118,13.1532141 20.7852565,1.01911765 20.7852565,1.01911765 C21.0131435,0.791428235 21.0131435,0.421927059 20.7852565,0.194237647 C20.5574188,-0.0336494118 20.1875718,-0.0336494118 19.9604259,0.194237647 Z" id="Shape"></path>
                    </g>
                </g>
            </g>
        </g>
    </g>
</svg>