<?xml version="1.0" encoding="UTF-8"?>
<svg width="15px" height="20px" viewBox="0 0 15 20" version="1.1" xmlns="http://www.w3.org/2000/svg" xmlns:xlink="http://www.w3.org/1999/xlink">
    <!-- Generator: Sketch 41.2 (35397) - http://www.bohemiancoding.com/sketch -->
    <title>ic_notes</title>
    <desc>Created with Sketch.</desc>
    <defs></defs>
    <g id="Analyse" stroke="none" stroke-width="1" fill="none" fill-rule="evenodd">
        <g id="06_analyse_regression_table" transform="translate(-1319.000000, -184.000000)" fill="#BCBCBC">
            <path d="M1331.36135,189.681879 L1331.36135,184.668181 L1332.03087,184.668181 C1332.3987,184.668181 1332.69771,184.967526 1332.69771,185.335026 L1332.69771,189.681879 L1331.36135,189.681879 Z M1332.69771,200.70453 C1332.69771,201.072364 1332.39837,201.371375 1332.03087,201.371375 L1331.36135,201.371375 L1331.36135,196.363691 L1332.69771,196.363691 L1332.69771,200.70453 Z M1331.36135,195.69551 L1332.69771,195.69551 L1332.69771,190.35006 L1331.36135,190.35006 L1331.36135,195.69551 Z M1329.6909,201.371375 L1329.6909,196.363691 L1329.6909,189.681879 L1329.6909,184.668181 L1330.69317,184.668181 L1330.69317,189.681879 L1330.69317,196.363691 L1330.69317,201.371375 L1329.6909,201.371375 L1329.6909,201.371375 Z M1323.00909,201.371375 L1320.33636,201.371375 L1319.66818,201.371375 L1319.66818,196.363691 L1329.02272,196.363691 L1329.02272,201.371375 L1323.00909,201.371375 L1323.00909,201.371375 Z M1322.34091,202.751837 L1321.67272,202.306161 L1321.00454,202.751837 L1321.00454,202.039556 L1322.34091,202.039556 L1322.34091,202.751837 Z M1319.66818,195.69551 L1329.02272,195.69551 L1329.02272,190.35006 L1319.66818,190.35006 L1319.66818,195.69551 Z M1319.66818,184.668181 L1329.02272,184.668181 L1329.02272,189.681879 L1319.66818,189.681879 L1319.66818,184.668181 L1319.66818,184.668181 Z M1332.03087,184 L1331.36135,184 L1329.02272,184 L1319,184 L1319,189.681879 L1319,196.363691 L1319,202.039556 L1320.33636,202.039556 L1320.33636,204 L1321.67272,203.109314 L1323.00909,204 L1323.00909,202.039556 L1329.02272,202.039556 L1331.36135,202.039556 L1332.03087,202.039556 C1332.76687,202.039556 1333.3659,201.440532 1333.3659,200.70453 L1333.3659,196.363691 L1333.3659,189.681879 L1333.3659,185.335026 C1333.3659,184.599024 1332.76687,184 1332.03087,184 L1332.03087,184 Z" id="ic_notes"></path>
        </g>
    </g>
</svg>