<?xml version="1.0" encoding="UTF-8" standalone="no"?>
<svg width="21px" height="21px" viewBox="0 0 21 21" version="1.1" xmlns="http://www.w3.org/2000/svg" xmlns:xlink="http://www.w3.org/1999/xlink">
    <!-- Generator: Sketch 39.1 (31720) - http://www.bohemiancoding.com/sketch -->
    <title>ic_page</title>
    <desc>Created with Sketch.</desc>
    <defs></defs>
    <g id="Form-Builder" stroke="none" stroke-width="1" fill="none" fill-rule="evenodd">
        <g id="02_AddNewQuestion" transform="translate(-387.000000, -191.000000)" fill="#2B2B2B">
            <g id="ic_page" transform="translate(387.000000, 191.000000)">
                <g id="Capa_1">
                    <g id="Group">
                        <path d="M8.4975,0 L1.2525,0 C0.56175,0 0,0.56175 0,1.2525 L0,8.4975 C0,9.18825 0.56175,9.75 1.2525,9.75 L8.4975,9.75 C9.18825,9.75 9.75,9.18825 9.75,8.4975 L9.75,1.2525 C9.75,0.56175 9.18825,0 8.4975,0 L8.4975,0 Z M9,8.4975 C9,8.774625 8.774625,9 8.4975,9 L1.2525,9 C0.975375,9 0.75,8.774625 0.75,8.4975 L0.75,1.2525 C0.75,0.975375 0.975375,0.75 1.2525,0.75 L8.4975,0.75 C8.774625,0.75 9,0.975375 9,1.2525 L9,8.4975 L9,8.4975 Z" id="Shape"></path>
                        <path d="M19.7475,0 L12.5025,0 C11.81175,0 11.25,0.56175 11.25,1.2525 L11.25,8.4975 C11.25,9.18825 11.81175,9.75 12.5025,9.75 L19.7475,9.75 C20.43825,9.75 21,9.18825 21,8.4975 L21,1.2525 C21,0.56175 20.43825,0 19.7475,0 L19.7475,0 Z M20.25,8.4975 C20.25,8.774625 20.024625,9 19.7475,9 L12.5025,9 C12.225375,9 12,8.774625 12,8.4975 L12,1.2525 C12,0.975375 12.225375,0.75 12.5025,0.75 L19.7475,0.75 C20.024625,0.75 20.25,0.975375 20.25,1.2525 L20.25,8.4975 L20.25,8.4975 Z" id="Shape"></path>
                        <path d="M8.4975,11.25 L1.2525,11.25 C0.56175,11.25 0,11.81175 0,12.5025 L0,19.7475 C0,20.43825 0.56175,21 1.2525,21 L8.4975,21 C9.18825,21 9.75,20.43825 9.75,19.7475 L9.75,12.5025 C9.75,11.81175 9.18825,11.25 8.4975,11.25 L8.4975,11.25 Z M9,19.7475 C9,20.024625 8.774625,20.25 8.4975,20.25 L1.2525,20.25 C0.975375,20.25 0.75,20.024625 0.75,19.7475 L0.75,12.5025 C0.75,12.225375 0.975375,12 1.2525,12 L8.4975,12 C8.774625,12 9,12.225375 9,12.5025 L9,19.7475 L9,19.7475 Z" id="Shape"></path>
                        <path d="M20.625,15.75 L16.5,15.75 L16.5,11.625 C16.5,11.417625 16.332375,11.25 16.125,11.25 C15.917625,11.25 15.75,11.417625 15.75,11.625 L15.75,15.75 L11.625,15.75 C11.417625,15.75 11.25,15.917625 11.25,16.125 C11.25,16.332375 11.417625,16.5 11.625,16.5 L15.75,16.5 L15.75,20.625 C15.75,20.832375 15.917625,21 16.125,21 C16.332375,21 16.5,20.832375 16.5,20.625 L16.5,16.5 L20.625,16.5 C20.832375,16.5 21,16.332375 21,16.125 C21,15.917625 20.832375,15.75 20.625,15.75 L20.625,15.75 Z" id="Shape"></path>
                    </g>
                </g>
            </g>
        </g>
    </g>
</svg>