<?xml version="1.0" encoding="UTF-8"?>
<svg width="22px" height="20px" viewBox="0 0 22 20" version="1.1" xmlns="http://www.w3.org/2000/svg" xmlns:xlink="http://www.w3.org/1999/xlink">
    <!-- Generator: Sketch 41.2 (35397) - http://www.bohemiancoding.com/sketch -->
    <title>ic_pages</title>
    <desc>Created with Sketch.</desc>
    <defs></defs>
    <g id="Form-Builder" stroke="none" stroke-width="1" fill="none" fill-rule="evenodd">
        <g id="03_addnew_hover" transform="translate(-24.000000, -293.000000)" fill="#000000">
            <g id="ic_pages" transform="translate(24.000000, 293.000000)">
                <g id="Capa_1">
                    <g id="Group">
                        <path d="M0,4.80769231 L0,19.8076923 L21.5384615,19.8076923 L21.5384615,4.80769231 L0,4.80769231 Z M20.7692308,19.0384615 L0.769230769,19.0384615 L0.769230769,5.57692308 L20.7692308,5.57692308 L20.7692308,19.0384615 Z" id="Shape"></path>
                        <path d="M1.15384615,4.03846154 L20.3846154,4.03846154 C20.5969231,4.03846154 20.7692308,3.86615385 20.7692308,3.65384615 C20.7692308,3.44153846 20.5969231,3.26923077 20.3846154,3.26923077 L1.15384615,3.26923077 C0.941538462,3.26923077 0.769230769,3.44153846 0.769230769,3.65384615 C0.769230769,3.86615385 0.941538462,4.03846154 1.15384615,4.03846154 Z" id="Shape"></path>
                        <path d="M2.30769231,2.5 L19.2307692,2.5 C19.4430769,2.5 19.6153846,2.32769231 19.6153846,2.11538462 C19.6153846,1.90307692 19.4430769,1.73076923 19.2307692,1.73076923 L2.30769231,1.73076923 C2.09538462,1.73076923 1.92307692,1.90307692 1.92307692,2.11538462 C1.92307692,2.32769231 2.09538462,2.5 2.30769231,2.5 Z" id="Shape"></path>
                        <path d="M3.46153846,0.961538462 L18.0769231,0.961538462 C18.2892308,0.961538462 18.4615385,0.789230769 18.4615385,0.576923077 C18.4615385,0.364615385 18.2892308,0.192307692 18.0769231,0.192307692 L3.46153846,0.192307692 C3.24923077,0.192307692 3.07692308,0.364615385 3.07692308,0.576923077 C3.07692308,0.789230769 3.24923077,0.961538462 3.46153846,0.961538462 Z" id="Shape"></path>
                    </g>
                </g>
            </g>
        </g>
    </g>
</svg>