<?xml version="1.0" encoding="UTF-8" standalone="no"?>
<svg width="22px" height="14px" viewBox="0 0 22 14" version="1.1" xmlns="http://www.w3.org/2000/svg" xmlns:xlink="http://www.w3.org/1999/xlink">
    <!-- Generator: Sketch 39.1 (31720) - http://www.bohemiancoding.com/sketch -->
    <title>ic_preview</title>
    <desc>Created with Sketch.</desc>
    <defs></defs>
    <g id="Form-Builder" stroke="none" stroke-width="1" fill="none" fill-rule="evenodd" opacity="0.400000006">
        <g id="02_AddNewQuestion" transform="translate(-1287.000000, -194.000000)" fill="#000000">
            <g id="ic_preview" transform="translate(1287.000000, 194.000000)">
                <g id="Group">
                    <path d="M21.9281633,6.32163265 C19.6383673,2.44693878 15.4808163,0.0179591837 11,0.0179591837 C6.51918367,0.0179591837 2.35714286,2.44693878 0.0718367347,6.32163265 C-0.0224489796,6.46081633 -0.0224489796,6.64938776 0.0718367347,6.78857143 C2.36163265,10.6632653 6.51918367,13.0922449 11,13.0922449 C15.4808163,13.0922449 19.6428571,10.6632653 21.9281633,6.78857143 C22.022449,6.64938776 22.022449,6.46081633 21.9281633,6.32163265 L21.9281633,6.32163265 Z M11,12.1583673 C6.93673469,12.1583673 3.15183673,10.0122449 1.05061224,6.55510204 C3.15183673,3.09795918 6.93673469,0.951836735 11,0.951836735 C15.0632653,0.951836735 18.8481633,3.09795918 20.9493878,6.55510204 C18.8481633,10.0122449 15.0632653,12.1583673 11,12.1583673 L11,12.1583673 Z" id="Shape"></path>
                    <path d="M11,2.35265306 C8.66530612,2.35265306 6.79755102,4.22040816 6.79755102,6.55510204 C6.79755102,8.88979592 8.66530612,10.757551 11,10.757551 C13.3346939,10.757551 15.202449,8.88979592 15.202449,6.55510204 C15.202449,4.22040816 13.3346939,2.35265306 11,2.35265306 L11,2.35265306 Z M11,9.82367347 C9.17714286,9.82367347 7.73142857,8.37346939 7.73142857,6.55510204 C7.73142857,4.73673469 9.18163265,3.28653061 11,3.28653061 C12.8183673,3.28653061 14.2685714,4.73673469 14.2685714,6.55510204 C14.2685714,8.37346939 12.8228571,9.82367347 11,9.82367347 L11,9.82367347 Z" id="Shape"></path>
                    <path d="M11,4.68734694 L11,5.62122449 C11.5118367,5.62122449 11.9338776,6.04326531 11.9338776,6.55510204 C11.9338776,7.06693878 11.5118367,7.48897959 11,7.48897959 C10.4881633,7.48897959 10.0661224,7.06693878 10.0661224,6.55510204 L9.1322449,6.55510204 C9.1322449,7.58326531 9.97183673,8.42285714 11,8.42285714 C12.0281633,8.42285714 12.8677551,7.58326531 12.8677551,6.55510204 C12.8677551,5.52693878 12.0281633,4.68734694 11,4.68734694 L11,4.68734694 Z" id="Shape"></path>
                </g>
            </g>
        </g>
    </g>
</svg>