<?xml version="1.0" encoding="UTF-8"?>
<svg width="19px" height="21px" viewBox="0 0 19 21" version="1.1" xmlns="http://www.w3.org/2000/svg" xmlns:xlink="http://www.w3.org/1999/xlink">
    <!-- Generator: Sketch 41.2 (35397) - http://www.bohemiancoding.com/sketch -->
    <title>ic_share</title>
    <desc>Created with Sketch.</desc>
    <defs></defs>
    <g id="Analyse" stroke="none" stroke-width="1" fill="none" fill-rule="evenodd">
        <g id="06_analyse_regression_table" transform="translate(-1371.000000, -183.000000)" fill="#BCBCBC">
            <path d="M1386.39251,202.020925 C1385.02819,202.020925 1383.91916,200.911894 1383.91916,199.547577 C1383.91916,198.18326 1385.02819,197.074229 1386.39251,197.074229 C1387.75683,197.074229 1388.86586,198.18326 1388.86586,199.547577 C1388.86586,200.911894 1387.75683,202.020925 1386.39251,202.020925 M1374.60749,195.546696 C1373.24317,195.546696 1372.13414,194.437665 1372.13414,193.073348 C1372.13414,191.709031 1373.24317,190.6 1374.60749,190.6 C1375.97181,190.6 1377.08084,191.709031 1377.08084,193.073348 C1377.08084,194.437665 1375.96762,195.546696 1374.60749,195.546696 M1386.39251,184.134141 C1387.75683,184.134141 1388.86586,185.243172 1388.86586,186.607489 C1388.86586,187.971806 1387.75683,189.080837 1386.39251,189.080837 C1385.02819,189.080837 1383.91916,187.971806 1383.91916,186.607489 C1383.91916,185.243172 1385.03238,184.134141 1386.39251,184.134141 M1386.39251,195.948458 C1385.23326,195.948458 1384.19956,196.500881 1383.53833,197.354626 L1378.00154,194.261894 C1378.13128,193.889427 1378.20242,193.487665 1378.20242,193.073348 C1378.20242,192.654846 1378.13128,192.257269 1377.99736,191.880617 L1383.52996,188.79207 C1384.187,189.65 1385.22489,190.206608 1386.38833,190.206608 C1388.37203,190.206608 1389.99163,188.591189 1389.99163,186.603304 C1389.99163,184.615419 1388.37621,183 1386.38833,183 C1384.40044,183 1382.78502,184.615419 1382.78502,186.603304 C1382.78502,187.021806 1382.85617,187.423568 1382.99009,187.796035 L1377.46167,190.884581 C1376.80463,190.022467 1375.76674,189.470044 1374.6033,189.470044 C1372.6196,189.470044 1371,191.085463 1371,193.073348 C1371,195.061233 1372.6196,196.676652 1374.60749,196.676652 C1375.77093,196.676652 1376.80881,196.120044 1377.47004,195.25793 L1383.00264,198.350661 C1382.86872,198.727313 1382.79339,199.13326 1382.79339,199.551762 C1382.79339,201.535463 1384.40881,203.155066 1386.3967,203.155066 C1388.38458,203.155066 1390,201.539648 1390,199.551762 C1390,197.563877 1388.3804,195.948458 1386.39251,195.948458" id="ic_share"></path>
        </g>
    </g>
</svg>