<?xml version="1.0" encoding="UTF-8"?>
<svg width="16px" height="17px" viewBox="0 0 16 17" version="1.1" xmlns="http://www.w3.org/2000/svg" xmlns:xlink="http://www.w3.org/1999/xlink">
    <!-- Generator: Sketch 41.2 (35397) - http://www.bohemiancoding.com/sketch -->
    <title>ic_switch_variables</title>
    <desc>Created with Sketch.</desc>
    <defs></defs>
    <g id="Analyse" stroke="none" stroke-width="1" fill="none" fill-rule="evenodd">
        <g id="06_analyse_regression_table" transform="translate(-1266.000000, -243.000000)" fill="#BCBCBC">
            <g id="Group-6" transform="translate(1253.000000, 231.000000)">
                <g id="ic_switch_variables" transform="translate(20.722449, 20.722449) rotate(90.000000) translate(-20.722449, -20.722449) translate(12.722449, 12.722449)">
                    <path d="M3.88571429,15.0432653 L3.88571429,1.36816327 L6.28897959,3.77142857 C6.36734694,3.84979592 6.46857143,3.88897959 6.57306122,3.88897959 C6.67755102,3.88897959 6.77877551,3.84979592 6.85714286,3.77142857 C7.01387755,3.61469388 7.01387755,3.36326531 6.85714286,3.20653061 L3.77142857,0.120816327 C3.62122449,-0.0293877551 3.35673469,-0.0293877551 3.20653061,0.120816327 L0.11755102,3.20653061 C-0.0391836735,3.36326531 -0.0391836735,3.61469388 0.11755102,3.77142857 C0.274285714,3.92816327 0.525714286,3.92816327 0.68244898,3.77142857 L3.08571429,1.36816327 L3.08571429,15.0432653 C3.08571429,15.2653061 3.26530612,15.444898 3.48734694,15.444898 C3.70612245,15.4416327 3.88571429,15.2620408 3.88571429,15.0432653" id="Fill-1"></path>
                    <path d="M12.2057143,15.3240816 C12.2840816,15.402449 12.3853061,15.4416327 12.4897959,15.4416327 C12.5942857,15.4416327 12.6955102,15.402449 12.7738776,15.3240816 L15.8595918,12.2383673 C16.0163265,12.0816327 16.0163265,11.8302041 15.8595918,11.6734694 C15.7028571,11.5167347 15.4514286,11.5167347 15.2946939,11.6734694 L12.8914286,14.0767347 L12.8914286,0.401632653 C12.8914286,0.179591837 12.7118367,0 12.4897959,0 C12.2677551,0 12.0881633,0.179591837 12.0881633,0.401632653 L12.0881633,14.0767347 L9.68816327,11.6734694 C9.53142857,11.5167347 9.28,11.5167347 9.12326531,11.6734694 C8.96653061,11.8302041 8.96653061,12.0816327 9.12326531,12.2383673 L12.2057143,15.3240816 Z" id="Fill-3"></path>
                </g>
            </g>
        </g>
    </g>
</svg>