<?xml version="1.0" encoding="UTF-8" standalone="no"?>
<svg width="90px" height="103px" viewBox="0 0 90 103" version="1.1" xmlns="http://www.w3.org/2000/svg" xmlns:xlink="http://www.w3.org/1999/xlink">
    <!-- Generator: Sketch 39.1 (31720) - http://www.bohemiancoding.com/sketch -->
    <title>ic_surveys_empty</title>
    <desc>Created with Sketch.</desc>
    <defs></defs>
    <g id="Form-Builder" stroke="none" stroke-width="1" fill="none" fill-rule="evenodd">
        <g id="00_Dashboard_landing_empty" transform="translate(-847.000000, -219.000000)" fill="#C32026">
            <g id="ic_surveys_empty" transform="translate(847.000000, 219.000000)">
                <g id="Capa_1">
                    <path d="M88.7084713,53.1811889 C82.4078981,49.7055111 75.2933121,47.5030278 67.8422293,46.6549944 L67.8422293,16.4325056 C67.8422293,15.54785 67.1250955,14.8291389 66.2359873,14.8291389 L46.1625478,14.8291389 C45.2797452,14.8291389 44.5557325,15.54785 44.5557325,16.4325056 L44.5557325,34.06725 L26.086242,34.06725 C25.2040127,34.06725 24.48,34.7859611 24.48,35.6706167 L24.48,50.0986278 L6.01165605,50.0986278 C5.12828025,50.0986278 4.40484076,50.8190556 4.40484076,51.7019944 L4.40484076,78.1546833 C4.40484076,79.0387667 5.12828025,79.75805 6.01165605,79.75805 L26.0868153,79.75805 L39.3099363,79.75805 C44.1607643,89.2454944 51.3017197,97.0986722 60.1607006,102.283578 C60.4117834,102.434072 60.6909554,102.499878 60.9741401,102.499878 C61.2550318,102.499878 61.5387898,102.434072 61.7852866,102.283578 C77.6419108,92.9969833 88.0125478,75.2111722 89.5442675,54.7021556 C89.5809554,54.0761444 89.2605096,53.4781722 88.7084713,53.1811889 L88.7084713,53.1811889 Z M24.4805732,76.5513167 L7.61789809,76.5513167 L7.61789809,53.3053611 L24.4805732,53.3053611 L24.4805732,76.5513167 L24.4805732,76.5513167 Z M47.7682166,35.6706167 L47.7682166,18.0358722 L64.6303185,18.0358722 L64.6303185,46.3671667 C63.4207643,46.2996444 62.2026115,46.2601611 60.9735669,46.2601611 C56.4695541,46.2601611 52.0389172,46.7740167 47.7682166,47.7427889 L47.7682166,35.6706167 L47.7682166,35.6706167 Z M27.6924841,76.5513167 L27.6924841,51.7025667 L27.6924841,37.2739833 L44.5557325,37.2739833 L44.5557325,48.09585 L44.5557325,48.5650722 C40.5928662,49.6980722 36.7801911,51.2327722 33.2432484,53.1806167 C32.6912102,53.4804611 32.3730573,54.0755722 32.4131847,54.7078778 C32.9950318,62.4866667 34.8529299,69.8694778 37.7942675,76.5513167 L27.6924841,76.5513167 L27.6924841,76.5513167 Z M60.9735669,99.0299222 C46.7529936,90.3063944 37.3775159,74.1622889 35.7007643,55.4975444 C43.2418471,51.5457778 51.9575159,49.4628889 60.9735669,49.4628889 C69.9936306,49.4628889 78.7087261,51.5389111 86.2457962,55.4975444 C84.5736306,74.1622889 75.1947134,90.3109722 60.9735669,99.0299222 L60.9735669,99.0299222 Z M47.9029299,6.07299444 L3.17006369,44.1028833 C2.86910828,44.3598111 2.49878981,44.4845556 2.13019108,44.4845556 C1.67388535,44.4845556 1.22675159,44.2854222 0.906878981,43.9163389 C0.331910828,43.2394 0.417324841,42.2362944 1.09203822,41.6554889 L46.1894904,3.31373889 C46.2542675,3.25766111 46.3276433,3.24335556 46.3889809,3.20616111 L39.0703185,3.20616111 C38.1863694,3.20616111 37.4640764,2.48115556 37.4640764,1.60279444 C37.4640764,0.715277778 38.1869427,0 39.0703185,0 L49.504586,0 C50.393121,0 51.1102548,0.715277778 51.1102548,1.60336667 L51.1102548,12.0178111 C51.1102548,12.9024667 50.393121,13.6211778 49.504586,13.6211778 C48.6240764,13.6211778 47.8994904,12.9024667 47.8994904,12.0178111 L47.8994904,6.07299444 L47.9029299,6.07299444 L47.9029299,6.07299444 Z" id="Shape"></path>
                </g>
            </g>
        </g>
    </g>
</svg>