<?xml version="1.0" encoding="UTF-8"?>
<svg width="21px" height="20px" viewBox="0 0 21 20" version="1.1" xmlns="http://www.w3.org/2000/svg" xmlns:xlink="http://www.w3.org/1999/xlink">
    <!-- Generator: Sketch 41.2 (35397) - http://www.bohemiancoding.com/sketch -->
    <title>ic_slider</title>
    <desc>Created with Sketch.</desc>
    <defs></defs>
    <g id="Form-Builder" stroke="none" stroke-width="1" fill="none" fill-rule="evenodd">
        <g id="03_addnew_hover" transform="translate(-595.000000, -659.000000)" fill="#000000">
            <g id="ic_slider" transform="translate(595.000000, 659.000000)">
                <g id="Capa_1">
                    <g id="Group">
                        <path d="M4.4822594,8.9645188 L15.568814,8.9645188 C18.0403362,8.9645188 20.0510734,6.95378156 20.0510734,4.4822594 C20.0510734,2.01073724 18.0403362,0 15.568814,0 L4.4822594,0 C2.01073724,0 0,2.01073724 0,4.4822594 C0,6.95378156 2.01073724,8.9645188 4.4822594,8.9645188 Z M15.568814,0.649602811 C17.6821452,0.649602811 19.4014706,2.36892823 19.4014706,4.4822594 C19.4014706,6.59559057 17.6821452,8.31491599 15.568814,8.31491599 L6.80432961,8.31491599 C8.09838172,7.52798714 8.9645188,6.10436093 8.9645188,4.4822594 C8.9645188,2.86015787 8.09838172,1.43653166 6.80432961,0.649602811 L15.568814,0.649602811 Z M4.4822594,0.649602811 C6.59559057,0.649602811 8.31491599,2.36892823 8.31491599,4.4822594 C8.31491599,6.59559057 6.59559057,8.31491599 4.4822594,8.31491599 C2.36892823,8.31491599 0.649602811,6.59559057 0.649602811,4.4822594 C0.649602811,2.36892823 2.36892823,0.649602811 4.4822594,0.649602811 Z" id="Shape"></path>
                        <path d="M4.4822594,2.03542214 C5.83144113,2.03542214 6.92909666,3.13307767 6.92909666,4.4822594 C6.92909666,4.66163639 7.07452107,4.8070608 7.25389806,4.8070608 C7.43327505,4.8070608 7.57869947,4.66163639 7.57869947,4.4822594 C7.57869947,2.77488668 6.18963212,1.38581933 4.4822594,1.38581933 C4.30288241,1.38581933 4.15745799,1.53124375 4.15745799,1.71062074 C4.15745799,1.88999773 4.30288241,2.03542214 4.4822594,2.03542214 Z" id="Shape"></path>
                        <path d="M15.568814,10.393645 L4.4822594,10.393645 C2.01073724,10.393645 0,12.4043822 0,14.8759044 C0,17.3474265 2.01073724,19.3581638 4.4822594,19.3581638 L15.568814,19.3581638 C18.0403362,19.3581638 20.0510734,17.3474265 20.0510734,14.8759044 C20.0510734,12.4043822 18.0403362,10.393645 15.568814,10.393645 Z M4.4822594,18.708561 C2.36892823,18.708561 0.649602811,16.9892356 0.649602811,14.8759044 C0.649602811,12.7625732 2.36892823,11.0432478 4.4822594,11.0432478 L13.2467438,11.0432478 C11.9526917,11.8301766 11.0865546,13.2538029 11.0865546,14.8759044 C11.0865546,16.4980059 11.9526917,17.9216321 13.2467438,18.708561 L4.4822594,18.708561 Z M15.568814,18.708561 C13.4554829,18.708561 11.7361575,16.9892356 11.7361575,14.8759044 C11.7361575,12.7625732 13.4554829,11.0432478 15.568814,11.0432478 C17.6821452,11.0432478 19.4014706,12.7625732 19.4014706,14.8759044 C19.4014706,16.9892356 17.6821452,18.708561 15.568814,18.708561 Z" id="Shape"></path>
                        <path d="M15.568814,11.7794643 C15.3894371,11.7794643 15.2440126,11.9248887 15.2440126,12.1042657 C15.2440126,12.2836427 15.3894371,12.4290671 15.568814,12.4290671 C16.9179958,12.4290671 18.0156513,13.5267226 18.0156513,14.8759044 C18.0156513,15.0552814 18.1610757,15.2007058 18.3404527,15.2007058 C18.5198297,15.2007058 18.6652541,15.0552814 18.6652541,14.8759044 C18.6652541,13.1685317 17.2761868,11.7794643 15.568814,11.7794643 Z" id="Shape"></path>
                    </g>
                </g>
            </g>
        </g>
    </g>
</svg>