<?xml version="1.0" encoding="UTF-8" standalone="no"?>
<svg width="23px" height="23px" viewBox="0 0 23 23" version="1.1" xmlns="http://www.w3.org/2000/svg" xmlns:xlink="http://www.w3.org/1999/xlink">
    <!-- Generator: Sketch 39.1 (31720) - http://www.bohemiancoding.com/sketch -->
    <title>ic_subtract</title>
    <desc>Created with Sketch.</desc>
    <defs></defs>
    <g id="Form-Builder" stroke="none" stroke-width="1" fill="none" fill-rule="evenodd">
        <g id="03_multchoice_empty" transform="translate(-298.000000, -498.000000)" fill="#BFBFBF">
            <g id="option-A" transform="translate(40.000000, 483.000000)">
                <path d="M274.1,25.5 L269.9,25.5 L269.9,21.3 C269.9,20.914 269.587,20.6 269.2,20.6 C268.814,20.6 268.5,20.914 268.5,21.3 L268.5,25.5 L264.3,25.5 C263.913,25.5 263.6,25.813 263.6,26.2 C263.6,26.587 263.913,26.9 264.3,26.9 L268.5,26.9 L268.5,31.1 C268.5,31.487 268.814,31.8 269.2,31.8 C269.587,31.8 269.9,31.487 269.9,31.1 L269.9,26.9 L274.1,26.9 C274.487,26.9 274.8,26.587 274.8,26.2 C274.8,25.813 274.487,25.5 274.1,25.5 M269.2,36.022 C263.796,36.022 259.4,31.604 259.4,26.2 C259.4,20.796 263.796,16.4 269.2,16.4 C274.604,16.4 279,20.796 279,26.2 C279,31.604 274.604,36.022 269.2,36.022 M269.2,15 C263.015,15 258,20.015 258,26.2 C258,32.386 263.015,37.4 269.2,37.4 C275.386,37.4 280.4,32.386 280.4,26.2 C280.4,20.015 275.386,15 269.2,15" id="ic_subtract" transform="translate(269.200050, 26.200000) rotate(45.000000) translate(-269.200050, -26.200000) "></path>
            </g>
        </g>
    </g>
</svg>