<?xml version="1.0" encoding="UTF-8"?>
<svg width="10px" height="10px" viewBox="0 0 10 10" version="1.1" xmlns="http://www.w3.org/2000/svg" xmlns:xlink="http://www.w3.org/1999/xlink">
    <!-- Generator: Sketch 41.2 (35397) - http://www.bohemiancoding.com/sketch -->
    <title>ic_search</title>
    <desc>Created with Sketch.</desc>
    <defs></defs>
    <g id="Analyse" stroke="none" stroke-width="1" fill="none" fill-rule="evenodd" opacity="0.300000012">
        <g id="06_analyse_regression_table" transform="translate(-291.000000, -244.000000)" fill="#000000">
            <g id="Variables" transform="translate(-1.000000, 220.000000)">
                <g id="Group-2" transform="translate(1.000000, 0.000000)">
                    <path d="M297.944444,30.1111111 L297.505556,30.1111111 L297.35,29.9611111 C297.894444,29.3277778 298.222222,28.5055556 298.222222,27.6111111 C298.222222,25.6166667 296.605556,24 294.611111,24 C292.616667,24 291,25.6166667 291,27.6111111 C291,29.6055556 292.616667,31.2222222 294.611111,31.2222222 C295.505556,31.2222222 296.327778,30.8944444 296.961111,30.35 L297.111111,30.5055556 L297.111111,30.9444444 L299.888889,33.7166667 L300.716667,32.8888889 L297.944444,30.1111111 L297.944444,30.1111111 Z M294.611111,30.1111111 C293.227778,30.1111111 292.111111,28.9944444 292.111111,27.6111111 C292.111111,26.2277778 293.227778,25.1111111 294.611111,25.1111111 C295.994444,25.1111111 297.111111,26.2277778 297.111111,27.6111111 C297.111111,28.9944444 295.994444,30.1111111 294.611111,30.1111111 L294.611111,30.1111111 Z" id="ic_search"></path>
                </g>
            </g>
        </g>
    </g>
</svg>