<?xml version="1.0" encoding="UTF-8"?>
<svg width="23px" height="23px" viewBox="0 0 23 23" version="1.1" xmlns="http://www.w3.org/2000/svg" xmlns:xlink="http://www.w3.org/1999/xlink">
    <!-- Generator: Sketch 40.3 (33839) - http://www.bohemiancoding.com/sketch -->
    <title>ic_temp_3</title>
    <desc>Created with Sketch.</desc>
    <defs></defs>
    <g id="Form-Builder" stroke="none" stroke-width="1" fill="none" fill-rule="evenodd" opacity="0.200000003">
        <g id="02_landing_projects_filled" transform="translate(-34.000000, -255.000000)" fill="#2B2B2B">
            <g id="Sidebar" transform="translate(0.000000, 64.000000)">
                <g id="ic_temp_3" transform="translate(34.000000, 191.000000)">
                    <path d="M21.912,16.0164 L19.944,15.0494 L18.444,15.8574 L20.085,16.6594 L11.095,21.5034 L2.209,16.6654 L3.944,15.8804 L2.449,15.0654 L0.386,16.0154 C0.153,16.1314 0.004,16.3684 -3.24450211e-14,16.6294 C-0.004,16.8894 0.137,17.1304 0.365,17.2554 L10.758,22.9144 C10.862,22.9714 10.977,23.0004 11.093,23.0004 C11.207,23.0004 11.321,22.9724 11.425,22.9164 L21.927,17.2564 C22.156,17.1334 22.298,16.8924 22.295,16.6324 C22.291,16.3714 22.144,16.1344 21.912,16.0164 L21.912,16.0164 Z" id="Icon-4"></path>
                    <path d="M21.912,11.1164 L19.834,10.0614 L18.335,10.8704 L20.085,11.7594 L11.095,16.6034 L2.209,11.7654 L4.076,10.8274 L2.58,10.0124 L0.386,11.1154 C0.153,11.2324 0.004,11.4684 -3.24450211e-14,11.7294 C-0.004,11.9894 0.137,12.2304 0.365,12.3554 L10.758,18.0144 C10.862,18.0714 10.977,18.1004 11.093,18.1004 C11.207,18.1004 11.321,18.0724 11.425,18.0164 L21.927,12.3564 C22.156,12.2334 22.298,11.9924 22.295,11.7324 C22.291,11.4714 22.144,11.2344 21.912,11.1164 L21.912,11.1164 Z" id="Icon-3"></path>
                    <path d="M22.032,5.9734 L11.639,0.6954 C11.441,0.5944 11.207,0.5944 11.007,0.6934 L0.506,5.9714 C0.273,6.0884 0.125,6.3254 0.12,6.5854 C0.116,6.8464 0.257,7.0874 0.485,7.2114 L10.878,12.8714 C10.983,12.9274 11.097,12.9564 11.213,12.9564 C11.327,12.9564 11.441,12.9284 11.545,12.8724 L22.047,7.2134 C22.276,7.0904 22.418,6.8494 22.415,6.5894 C22.412,6.3274 22.264,6.0914 22.032,5.9734 L22.032,5.9734 Z" id="Icon-2"></path>
                </g>
            </g>
        </g>
    </g>
</svg>