<?xml version="1.0" encoding="UTF-8"?>
<svg width="16px" height="16px" viewBox="0 0 16 16" version="1.1" xmlns="http://www.w3.org/2000/svg" xmlns:xlink="http://www.w3.org/1999/xlink">
    <!-- Generator: Sketch 41.2 (35397) - http://www.bohemiancoding.com/sketch -->
    <title>ic_time_normal</title>
    <desc>Created with Sketch.</desc>
    <defs></defs>
    <g id="Analyse" stroke="none" stroke-width="1" fill="none" fill-rule="evenodd">
        <g id="ic_time_normal" fill="#979797">
            <path d="M8,0 C3.5888,0 0,3.5888 0,8 C0,12.4112 3.5888,16 8,16 C12.4112,16 16,12.4112 16,8 C16,3.5888 12.4112,0 8,0 L8,0 Z M8,15.1166667 C4.07592083,15.1166667 0.883333333,11.9240792 0.883333333,8 C0.883333333,4.07592083 4.07592083,0.883333333 8,0.883333333 C11.9240792,0.883333333 15.1166667,4.07592083 15.1166667,8 C15.1166667,11.9240792 11.9240792,15.1166667 8,15.1166667 L8,15.1166667 Z" id="Shape"></path>
            <path d="M8.26666667,6.93893333 L8.26666667,4.2344 C8.26666667,4.08693333 8.1472,3.96773333 8,3.96773333 C7.8528,3.96773333 7.73333333,4.08693333 7.73333333,4.2344 L7.73333333,6.93893333 C7.36026667,7.036 7.06826667,7.328 6.9712,7.70106667 L5.06666667,7.70106667 C4.91946667,7.70106667 4.8,7.82026667 4.8,7.96773333 C4.8,8.1152 4.91946667,8.2344 5.06666667,8.2344 L6.9712,8.2344 C7.0904,8.69306667 7.50453333,9.0344 8,9.0344 C8.58826667,9.0344 9.06666667,8.556 9.06666667,7.96773333 C9.06666667,7.472 8.72533333,7.05813333 8.26666667,6.93893333 L8.26666667,6.93893333 Z M8,8.50106667 C7.70586667,8.50106667 7.46666667,8.26186667 7.46666667,7.96773333 C7.46666667,7.6736 7.70586667,7.4344 8,7.4344 C8.29413333,7.4344 8.53333333,7.6736 8.53333333,7.96773333 C8.53333333,8.26186667 8.29413333,8.50106667 8,8.50106667 L8,8.50106667 Z" id="Shape"></path>
            <path d="M8,2.6344 C8.1472,2.6344 8.26666667,2.5152 8.26666667,2.36773333 L8.26666667,2.10106667 C8.26666667,1.9536 8.1472,1.8344 8,1.8344 C7.8528,1.8344 7.73333333,1.9536 7.73333333,2.10106667 L7.73333333,2.36773333 C7.73333333,2.5152 7.8528,2.6344 8,2.6344 L8,2.6344 Z" id="Shape"></path>
            <path d="M8,13.3010667 C7.8528,13.3010667 7.73333333,13.4202667 7.73333333,13.5677333 L7.73333333,13.8344 C7.73333333,13.9818667 7.8528,14.1010667 8,14.1010667 C8.1472,14.1010667 8.26666667,13.9818667 8.26666667,13.8344 L8.26666667,13.5677333 C8.26666667,13.4202667 8.1472,13.3010667 8,13.3010667 L8,13.3010667 Z" id="Shape"></path>
            <path d="M13.8666667,7.70106667 L13.6,7.70106667 C13.4528,7.70106667 13.3333333,7.82026667 13.3333333,7.96773333 C13.3333333,8.1152 13.4528,8.2344 13.6,8.2344 L13.8666667,8.2344 C14.0138667,8.2344 14.1333333,8.1152 14.1333333,7.96773333 C14.1333333,7.82026667 14.0138667,7.70106667 13.8666667,7.70106667 L13.8666667,7.70106667 Z" id="Shape"></path>
            <path d="M2.4,7.70106667 L2.13333333,7.70106667 C1.98613333,7.70106667 1.86666667,7.82026667 1.86666667,7.96773333 C1.86666667,8.1152 1.98613333,8.2344 2.13333333,8.2344 L2.4,8.2344 C2.5472,8.2344 2.66666667,8.1152 2.66666667,7.96773333 C2.66666667,7.82026667 2.5472,7.70106667 2.4,7.70106667 L2.4,7.70106667 Z" id="Shape"></path>
            <path d="M11.9597333,3.63066667 L11.7712,3.8192 C11.6669333,3.92346667 11.6669333,4.092 11.7712,4.19626667 C11.8232,4.24826667 11.8914667,4.2744 11.9597333,4.2744 C12.028,4.2744 12.0962667,4.24826667 12.1482667,4.19626667 L12.3368,4.00773333 C12.4410667,3.90346667 12.4410667,3.73493333 12.3368,3.63066667 C12.2325333,3.5264 12.064,3.52666667 11.9597333,3.63066667 L11.9597333,3.63066667 Z" id="Shape"></path>
            <path d="M3.85173333,11.7389333 L3.6632,11.9274667 C3.55893333,12.0317333 3.55893333,12.2002667 3.6632,12.3045333 C3.7152,12.3565333 3.78346667,12.3826667 3.85173333,12.3826667 C3.92,12.3826667 3.98826667,12.3565333 4.04026667,12.3045333 L4.2288,12.116 C4.33306667,12.0117333 4.33306667,11.8432 4.2288,11.7389333 C4.12453333,11.6346667 3.95573333,11.6349333 3.85173333,11.7389333 L3.85173333,11.7389333 Z" id="Shape"></path>
            <path d="M12.1482667,11.7389333 C12.044,11.6346667 11.8754667,11.6346667 11.7712,11.7389333 C11.6669333,11.8432 11.6669333,12.0117333 11.7712,12.116 L11.9597333,12.3045333 C12.0117333,12.3565333 12.08,12.3826667 12.1482667,12.3826667 C12.2165333,12.3826667 12.2848,12.3565333 12.3368,12.3045333 C12.4410667,12.2002667 12.4410667,12.0317333 12.3368,11.9274667 L12.1482667,11.7389333 L12.1482667,11.7389333 Z" id="Shape"></path>
            <path d="M4.04026667,3.63066667 C3.936,3.5264 3.76746667,3.5264 3.6632,3.63066667 C3.55893333,3.73493333 3.55893333,3.90346667 3.6632,4.00773333 L3.85173333,4.19626667 C3.90373333,4.24826667 3.972,4.2744 4.04026667,4.2744 C4.10853333,4.2744 4.1768,4.24826667 4.2288,4.19626667 C4.33306667,4.092 4.33306667,3.92346667 4.2288,3.8192 L4.04026667,3.63066667 L4.04026667,3.63066667 Z" id="Shape"></path>
        </g>
    </g>
</svg>