<?xml version="1.0" encoding="UTF-8"?>
<svg width="22px" height="22px" viewBox="0 0 22 22" version="1.1" xmlns="http://www.w3.org/2000/svg" xmlns:xlink="http://www.w3.org/1999/xlink">
    <!-- Generator: Sketch 40.3 (33839) - http://www.bohemiancoding.com/sketch -->
    <title>ic_temp_2</title>
    <desc>Created with Sketch.</desc>
    <defs></defs>
    <g id="Form-Builder" stroke="none" stroke-width="1" fill="none" fill-rule="evenodd" opacity="0.200000003">
        <g id="02_landing_projects_filled" transform="translate(-34.000000, -184.000000)" fill="#2B2B2B">
            <g id="Sidebar" transform="translate(0.000000, 64.000000)">
                <g id="ic_temp_2" transform="translate(34.000000, 120.000000)">
                    <path d="M8.93755937,8.2499625 L8.93755937,4.69462152 L12.4929004,8.2499625 L8.93755937,8.2499625 Z M13.0625406,20.6249063 L1.37509375,20.6249063 L1.37509375,4.12498125 L7.56256562,4.12498125 L7.56256562,9.62495625 L13.0625406,9.62495625 L13.0625406,20.6249063 Z M1.37509375,2.7499875 C0.615900772,2.7499875 9.99999993e-05,3.36578827 9.99999993e-05,4.12498125 L9.99999993e-05,20.6249063 C9.99999993e-05,21.3840992 0.615900772,21.9999 1.37509375,21.9999 L13.0625406,21.9999 C13.8217336,21.9999 14.4375344,21.3840992 14.4375344,20.6249063 L14.4375344,8.2499625 L8.93755937,2.7499875 L1.37509375,2.7499875 Z M16.500025,5.499975 L16.500025,1.94463402 L20.055366,5.499975 L16.500025,5.499975 Z M16.500025,0 L8.93755937,0 C8.1783664,0 7.56256562,0.615800772 7.56256562,1.37499375 L8.93755937,1.37499375 L15.1250312,1.37499375 L15.1250312,6.87496875 L20.6250062,6.87496875 L20.6250062,17.8749188 L15.8125281,17.8749188 L15.8125281,19.2499125 L20.6250062,19.2499125 C21.3841992,19.2499125 22,18.6341117 22,17.8749188 L22,5.499975 L16.500025,0 Z" id="Icon"></path>
                </g>
            </g>
        </g>
    </g>
</svg>