<?xml version="1.0" encoding="UTF-8"?>
<svg width="24px" height="22px" viewBox="0 0 24 22" version="1.1" xmlns="http://www.w3.org/2000/svg" xmlns:xlink="http://www.w3.org/1999/xlink">
    <!-- Generator: Sketch 41 (35326) - http://www.bohemiancoding.com/sketch -->
    <title>ic_users_deselected</title>
    <desc>Created with Sketch.</desc>
    <defs></defs>
    <g id="Users-and-Roles" stroke="none" stroke-width="1" fill="none" fill-rule="evenodd" opacity="0.200000003">
        <g id="01_users_empty" transform="translate(-32.000000, -376.000000)" fill="#2B2B2B">
            <g id="Sidebar" transform="translate(0.000000, 64.000000)">
                <g id="ic_users_deselected" transform="translate(32.000000, 312.000000)">
                    <g id="Capa_1">
                        <path d="M21.81025,17.5017857 L17.9708571,15.8388214 C17.8805,15.7936429 17.7803214,15.68325 17.6942857,15.5359286 L20.2576786,15.5339643 C20.3024643,15.5382857 21.35925,15.6349286 22.2066429,15.27075 C22.5276071,15.1324643 22.7664643,14.8594286 22.8623214,14.5215714 C22.9589643,14.1805714 22.8976786,13.8195357 22.6949643,13.5303929 C21.9622857,12.48775 20.2521786,9.76328571 20.19875,6.99992857 C20.1975714,6.95239286 20.0427857,2.25303571 15.4019643,2.21492857 C14.7187857,2.22042857 14.0870714,2.33632143 13.5123214,2.55003571 C13.387,2.23064286 13.2023571,1.8975 12.92775,1.584 C12.1212143,0.663142857 10.8118214,0.196428571 9.03571429,0.196428571 C7.25960714,0.196428571 5.95021429,0.663142857 5.14328571,1.58321429 C4.213,2.64432143 4.29942857,3.93092857 4.32142857,4.14660714 L4.32142857,6.23621429 C4.07,6.52260714 3.92857143,6.88914286 3.92857143,7.26746429 L3.92857143,8.83889286 C3.92857143,9.317 4.14582143,9.76289286 4.51667857,10.0602857 C4.87653571,11.4851786 5.62964286,12.5588571 5.89285714,12.9033929 L5.89285714,14.2033571 C5.89285714,14.5836429 5.68542857,14.9325 5.35189286,15.1147857 L1.84721429,17.0264286 C0.707535714,17.6487143 0,18.8406429 0,20.1386429 L0,21.8035714 L17.2857143,21.8035714 L18.0714286,21.8035714 L23.5714286,21.8035714 L23.5714286,20.3511786 C23.5714286,19.1364643 22.8965,18.0451071 21.81025,17.5017857 Z M17.2857143,21.0178571 L0.785714286,21.0178571 L0.785714286,20.1386429 C0.785714286,19.1286071 1.3365,18.2002857 2.22317857,17.7170714 L5.72785714,15.8054286 C6.31439286,15.48525 6.67857143,14.8712143 6.67857143,14.20375 L6.67857143,12.6248571 L6.58703571,12.5156429 C6.57760714,12.50425 5.61471429,11.3394286 5.24739286,9.74010714 L5.21164286,9.58453571 L5.07767857,9.49810714 C4.85021429,9.35117857 4.71428571,9.10485714 4.71428571,8.83928571 L4.71428571,7.26785714 C4.71428571,7.04746429 4.80778571,6.842 4.9775,6.68839286 L5.10714286,6.57171429 L5.10714286,4.125 L5.10360714,4.07353571 C5.10242857,4.06292857 4.96885714,2.97392857 5.73414286,2.101 C6.38510714,1.3585 7.49610714,0.982142857 9.03571429,0.982142857 C10.5698214,0.982142857 11.6784643,1.35575 12.3302143,2.09314286 C12.6543214,2.45928571 12.8173571,2.86825 12.8986786,3.21946429 C12.9049643,3.24696429 12.9108571,3.27407143 12.9163571,3.30117857 C12.9218571,3.32907143 12.92775,3.35696429 12.9320714,3.38367857 C12.9371786,3.41432143 12.9415,3.44339286 12.9458214,3.47246429 C12.9489643,3.49328571 12.9521071,3.5145 12.9544643,3.53453571 C12.9603571,3.58325 12.9650714,3.63039286 12.9682143,3.674 C12.9686071,3.67753571 12.9686071,3.68067857 12.9686071,3.68421429 C12.9713571,3.72664286 12.9733214,3.76671429 12.9745,3.80325 C12.9745,3.81032143 12.9745,3.81621429 12.9748929,3.82328571 C12.9756786,3.85589286 12.9756786,3.88692857 12.9752857,3.91403571 L12.9752857,3.92582143 C12.9737143,4.01814286 12.9674286,4.07314286 12.9674286,4.07432143 L12.9642857,6.57171429 L13.0939286,6.68878571 C13.2636429,6.842 13.3571429,7.04746429 13.3571429,7.26785714 L13.3571429,8.83928571 C13.3571429,9.18225 13.1324286,9.48239286 12.7985,9.58532143 L12.6028571,9.64542857 L12.54,9.83989286 C12.2771786,10.6574286 11.9027857,11.4125 11.4266429,12.0842857 C11.3099643,12.2496786 11.1964286,12.3962143 11.0978214,12.5081786 L11,12.61975 L11,14.2402857 C11,14.3396786 11.0098214,14.4371071 11.0251429,14.5329643 C11.0282857,14.5533929 11.0337857,14.5730357 11.0377143,14.5934643 C11.0530357,14.6724286 11.0734643,14.7498214 11.0986071,14.82525 C11.1045,14.8429286 11.1107857,14.8598214 11.1174643,14.8775 C11.1481071,14.9596071 11.1838571,15.0389643 11.2255,15.1151786 C11.2302143,15.1238214 11.2345357,15.1328571 11.23925,15.1415 C11.2962143,15.2420714 11.3618214,15.3375357 11.43725,15.4255357 L11.5268214,15.5359286 L11.5421429,15.5359286 C11.6768929,15.6687143 11.8316786,15.7842143 12.0076786,15.8722143 L15.7606429,17.7485 C16.7015357,18.2183571 17.2857143,19.1635714 17.2857143,20.21525 L17.2857143,21.0178571 Z M22.7857143,21.0178571 L18.0714286,21.0178571 L18.0714286,20.21525 C18.0714286,18.8642143 17.3206786,17.6498929 16.1126429,17.0456786 L13.4184286,15.6981786 C13.4848214,15.5465357 13.4934643,15.3728929 13.4353214,15.2055357 C13.3390714,14.9285714 13.0876429,14.7498214 12.7949643,14.7498214 L11.924,14.7498214 C11.9059286,14.718 11.8941429,14.6830357 11.8796071,14.64925 C11.8599643,14.6040714 11.8367857,14.5596786 11.8238214,14.5121429 C11.7998571,14.4249286 11.7857143,14.3337857 11.7857143,14.2402857 L11.7857143,12.9120357 C11.8756786,12.8020357 11.9703571,12.6767143 12.0681786,12.5384286 C12.5549286,11.8509286 12.9450357,11.0856429 13.2286786,10.26025 C13.783,10.0060714 14.1428571,9.45803571 14.1428571,8.83928571 L14.1428571,7.26785714 C14.1428571,6.88953571 14.0014286,6.523 13.75,6.23660714 L13.75,4.147 C13.7602143,4.04878571 13.7822143,3.72703571 13.717,3.30667857 C14.223,3.10789286 14.7898929,3.00535714 15.4023571,3.00025 C19.2684643,3.03207143 19.4095,6.85457143 19.4134286,7.01564286 C19.4711786,9.99467857 21.2779286,12.8798214 22.05225,13.9817857 C22.1186429,14.0760714 22.1386786,14.1947143 22.1068571,14.3066786 C22.0887857,14.3711071 22.0369286,14.4881786 21.8966786,14.5482857 C21.2366786,14.8323214 20.3413571,14.7517857 20.2953929,14.7498214 L17.5913571,14.7498214 C17.33875,14.7498214 17.1085357,14.8782857 16.9753571,15.0931786 C16.8425714,15.3072857 16.83,15.5689286 16.9415714,15.7936429 C17.0645357,16.0415357 17.2817857,16.3727143 17.6388929,16.5506786 L21.4680714,18.2093214 C22.2808929,18.6198571 22.7857143,19.4393571 22.7857143,20.3511786 L22.7857143,21.0178571 Z" id="Shape"></path>
                    </g>
                </g>
            </g>
        </g>
    </g>
</svg>