<?xml version="1.0" encoding="UTF-8"?>
<svg width="100px" height="100px" viewBox="0 0 100 100" version="1.1" xmlns="http://www.w3.org/2000/svg" xmlns:xlink="http://www.w3.org/1999/xlink">
    <!-- Generator: Sketch 41 (35326) - http://www.bohemiancoding.com/sketch -->
    <title>ic_users_empty</title>
    <desc>Created with Sketch.</desc>
    <defs>
        <polygon id="path-1" points="99.9998333 1.18423789e-14 0 1.18423789e-14 0 99.9998333 99.9998333 99.9998333 99.9998333 0"></polygon>
    </defs>
    <g id="Users-and-Roles" stroke="none" stroke-width="1" fill="none" fill-rule="evenodd">
        <g id="01_users_empty" transform="translate(-671.000000, -167.000000)">
            <g id="ic_users_empty" transform="translate(671.000000, 167.000000)">
                <mask id="mask-2" fill="white">
                    <use xlink:href="#path-1"></use>
                </mask>
                <g id="Clip-2"></g>
                <path d="M33.3031667,6.43316667 C32.9815,6.72316667 32.6498333,6.9965 32.3398333,7.30483333 C27.6065,12.0298333 24.9998333,18.3115 24.9998333,24.9998333 C24.9998333,36.0481667 31.9831667,50.9881667 41.3281667,54.4431667 C41.5265,54.5181667 41.6665,54.7465 41.6665,54.9998333 L41.6665,56.0581667 C41.6665,56.3931667 41.3931667,56.6665 41.0581667,56.6665 L32.6431667,56.6665 L31.1498333,56.6665 C20.9031667,56.6665 12.1715,63.3665 9.31816667,72.8231667 C5.51483333,66.0698333 3.33316667,58.2865 3.33316667,49.9998333 C3.33316667,30.1498333 15.7948333,13.1665 33.3031667,6.43316667 M50.0665,3.3365 L50.1215,3.3365 C50.9365,3.3415 51.7381667,3.3865 52.5048333,3.47483333 C60.7698333,4.3965 67.7165,10.1498333 70.4248333,17.7898333 C66.8998333,14.7198333 62.5781667,12.3565 57.9298333,11.0781667 L56.4981667,10.6848333 L55.9415,12.0615 C54.4065,15.8698333 50.7665,18.3331667 46.6665,18.3331667 C45.2581667,18.3331667 43.8965,18.0465 42.6215,17.4815 C38.0115,15.4415 32.9781667,15.9931667 29.2598333,18.6981667 C30.2815,15.3215 32.1265,12.2281667 34.6948333,9.66483333 C38.7848333,5.58316667 44.2165,3.3365 50.0665,3.3365 M42.4848333,51.3181667 C34.5148333,48.3698333 28.3331667,34.7498333 28.3331667,24.9998333 C28.3331667,24.7865 28.3581667,24.5781667 28.3631667,24.3665 L29.5831667,22.8615 C32.3348333,19.5881667 37.0315,18.6515 41.2698333,20.5281667 C42.9748333,21.2848333 44.7898333,21.6665 46.6665,21.6665 C51.6181667,21.6665 56.0665,18.9748333 58.3798333,14.6931667 C63.6831667,16.4348333 68.4165,19.7181667 71.6181667,23.8565 C72.1065,34.0231667 66.1281667,48.0781667 57.6215,51.2765 C56.0281667,51.8765 54.9998333,53.3315 54.9998333,54.9831667 L54.9998333,56.0581667 C54.9998333,58.2315 56.7698333,59.9998333 58.9415,59.9998333 L59.3098333,59.9998333 L49.9998333,69.3098333 L40.6898333,59.9998333 L41.0581667,59.9998333 C43.2298333,59.9998333 44.9998333,58.2315 44.9998333,56.0581667 L44.9998333,54.9998333 C44.9998333,53.3565 43.9915,51.8765 42.4848333,51.3181667 M87.5631667,77.6498333 C87.4281667,77.8315 87.2931667,78.0115 87.1565,78.1915 C86.7848333,78.6798333 86.4098333,79.1648333 86.0198333,79.6381667 C85.9798333,79.6865 85.9398333,79.7331667 85.8981667,79.7815 C84.5531667,81.4015 83.0965,82.9281667 81.5465,84.3531667 C81.4548333,84.4381667 81.3631667,84.5248333 81.2698333,84.6081667 C80.8081667,85.0265 80.3348333,85.4331667 79.8565,85.8331667 C79.7065,85.9581667 79.5548333,86.0831667 79.4031667,86.2048333 C78.9381667,86.5831667 78.4698333,86.9548333 77.9915,87.3148333 C77.8298333,87.4365 77.6631667,87.5515 77.4998333,87.6715 C77.2248333,87.8731667 76.9465,88.0681667 76.6681667,88.2631667 L76.6681667,79.9998333 L73.3348333,79.9998333 L73.3348333,90.3898333 C73.2698333,90.4265 73.2048333,90.4631667 73.1381667,90.5015 C72.7131667,90.7448333 72.2898333,90.9865 71.8581667,91.2148333 C71.5648333,91.3715 71.2631667,91.5231667 70.9631667,91.6748333 C70.4598333,91.9281667 69.9531667,92.1731667 69.4415,92.4081667 C69.1915,92.5231667 68.9431667,92.6381667 68.6915,92.7498333 C68.0498333,93.0298333 67.4015,93.2948333 66.7481667,93.5465 C66.6131667,93.5981667 66.4815,93.6548333 66.3465,93.7048333 C64.6798333,94.3281667 62.9765,94.8581667 61.2415,95.2881667 C61.1165,95.3215 60.9898333,95.3448333 60.8648333,95.3748333 C60.1465,95.5465 59.4215,95.7031667 58.6931667,95.8398333 C58.4765,95.8815 58.2598333,95.9181667 58.0415,95.9565 C57.3948333,96.0698333 56.7448333,96.1681667 56.0915,96.2531667 C55.8398333,96.2881667 55.5881667,96.3215 55.3348333,96.3498333 C54.6898333,96.4265 54.0381667,96.4798333 53.3848333,96.5281667 C53.1431667,96.5448333 52.9031667,96.5715 52.6598333,96.5831667 C51.7748333,96.6381667 50.8898333,96.6665 49.9998333,96.6665 C49.1098333,96.6665 48.2248333,96.6381667 47.3415,96.5865 C47.0981667,96.5731667 46.8581667,96.5481667 46.6165,96.5315 C45.9648333,96.4831667 45.3131667,96.4298333 44.6665,96.3531667 C44.4131667,96.3248333 44.1615,96.2915 43.9098333,96.2565 C43.2565,96.1698333 42.6065,96.0715 41.9598333,95.9598333 C41.7431667,95.9215 41.5248333,95.8848333 41.3081667,95.8431667 C40.5798333,95.7048333 39.8548333,95.5498333 39.1365,95.3765 C39.0115,95.3465 38.8865,95.3215 38.7615,95.2898333 C37.0265,94.8581667 35.3215,94.3298333 33.6548333,93.7065 C33.5198333,93.6565 33.3865,93.5998333 33.2531667,93.5481667 C32.5998333,93.2965 31.9531667,93.0298333 31.3115,92.7515 C31.0598333,92.6398333 30.8098333,92.5248333 30.5598333,92.4098333 C30.0481667,92.1748333 29.5415,91.9298333 29.0381667,91.6765 C28.7381667,91.5248333 28.4381667,91.3748333 28.1431667,91.2181667 C27.7115,90.9881667 27.2865,90.7448333 26.8631667,90.5031667 C26.7981667,90.4648333 26.7315,90.4281667 26.6665,90.3915 L26.6665,79.9998333 L23.3331667,79.9998333 L23.3331667,88.2631667 C23.0531667,88.0681667 22.7748333,87.8715 22.5015,87.6715 C22.3381667,87.5515 22.1715,87.4365 22.0098333,87.3148333 C21.5315,86.9548333 21.0631667,86.5831667 20.5998333,86.2065 C20.4465,86.0848333 20.2948333,85.9581667 20.1431667,85.8331667 C19.6648333,85.4348333 19.1931667,85.0281667 18.7315,84.6098333 C18.6381667,84.5248333 18.5448333,84.4365 18.4515,84.3515 C16.9015,82.9265 15.4465,81.4015 14.1015,79.7815 C14.0615,79.7331667 14.0198333,79.6865 13.9798333,79.6381667 C13.5898333,79.1648333 13.2148333,78.6798333 12.8431667,78.1915 C12.7065,78.0115 12.5698333,77.8315 12.4365,77.6498333 C12.2365,77.3781667 12.0431667,77.1015 11.8498333,76.8248333 C13.1548333,67.1898333 21.3398333,59.9998333 31.1481667,59.9998333 L35.9748333,59.9998333 L49.9998333,74.0231667 L64.0231667,59.9998333 L68.8498333,59.9998333 C78.6581667,59.9998333 86.8448333,67.1898333 88.1498333,76.8248333 C87.9565,77.1015 87.7648333,77.3781667 87.5631667,77.6498333 M96.6665,49.9998333 C96.6665,58.2865 94.4848333,66.0698333 90.6815,72.8231667 C87.8281667,63.3665 79.0965,56.6665 68.8515,56.6665 L67.3581667,56.6665 L58.9431667,56.6665 C58.6065,56.6665 58.3331667,56.3931667 58.3331667,56.0581667 L58.3331667,54.9831667 C58.3331667,54.6781667 58.5815,54.4781667 58.7931667,54.3965 C69.5248333,50.3615 76.2198333,33.6231667 74.8148333,21.9165 C74.0831667,15.8198333 71.0631667,10.3715 66.6765,6.42483333 C84.1948333,13.1531667 96.6665,30.1431667 96.6665,49.9998333 M99.9998333,49.9998333 C99.9998333,22.4298333 77.5698333,-0.000166666667 49.9998333,-0.000166666667 C22.4298333,-0.000166666667 -0.000166666667,22.4298333 -0.000166666667,49.9998333 C-0.000166666667,60.2365 3.0965,69.7631667 8.3965,77.6965 L8.39316667,77.7315 L8.73816667,78.2381667 C9.03816667,78.6748333 9.3615,79.0898333 9.67483333,79.5165 C9.8015,79.6915 9.9265,79.8648333 10.0565,80.0398333 C10.4531667,80.5648333 10.8615,81.0831667 11.2765,81.5898333 C11.3965,81.7365 11.5181667,81.8815 11.6398333,82.0265 C13.5681667,84.3348333 15.6848333,86.4481667 17.9615,88.3498333 C18.0998333,88.4648333 18.2365,88.5831667 18.3765,88.6965 C18.8731667,89.1015 19.3748333,89.4981667 19.8865,89.8831667 C20.0931667,90.0415 20.3031667,90.1915 20.5115,90.3448333 C20.9981667,90.7015 21.4848333,91.0548333 21.9848333,91.3931667 C22.2515,91.5748333 22.5281667,91.7448333 22.7981667,91.9215 C23.4915,92.3715 24.1915,92.8065 24.9048333,93.2198333 C25.4015,93.5115 25.8998333,93.7981667 26.4081667,94.0715 C26.7148333,94.2365 27.0281667,94.3898333 27.3381667,94.5498333 C27.8798333,94.8248333 28.4231667,95.0931667 28.9748333,95.3498333 C29.2531667,95.4781667 29.5315,95.6048333 29.8115,95.7281667 C30.4498333,96.0131667 31.0965,96.2798333 31.7481667,96.5365 C31.9498333,96.6165 32.1498333,96.6981667 32.3531667,96.7781667 C34.1415,97.4531667 35.9781667,98.0331667 37.8565,98.5031667 C37.9331667,98.5231667 38.0115,98.5381667 38.0881667,98.5565 C38.9181667,98.7598333 39.7565,98.9415 40.6031667,99.1031667 C40.8281667,99.1465 41.0531667,99.1848333 41.2781667,99.2248333 C41.9848333,99.3498333 42.6948333,99.4598333 43.4115,99.5565 C43.6848333,99.5915 43.9565,99.6281667 44.2298333,99.6598333 C44.9281667,99.7398333 45.6315,99.8031667 46.3381667,99.8548333 C46.6015,99.8748333 46.8631667,99.9015 47.1265,99.9148333 C48.0781667,99.9648333 49.0348333,99.9998333 49.9998333,99.9998333 C50.9648333,99.9998333 51.9215,99.9648333 52.8731667,99.9115 C53.1365,99.8981667 53.3981667,99.8698333 53.6615,99.8515 C54.3681667,99.7998333 55.0715,99.7381667 55.7698333,99.6565 C56.0431667,99.6265 56.3165,99.5881667 56.5881667,99.5531667 C57.3048333,99.4565 58.0148333,99.3481667 58.7215,99.2215 C58.9465,99.1815 59.1715,99.1431667 59.3965,99.0998333 C60.2448333,98.9381667 61.0815,98.7565 61.9131667,98.5531667 C61.9881667,98.5348333 62.0665,98.5181667 62.1431667,98.4998333 C64.0215,98.0298333 65.8581667,97.4498333 67.6465,96.7748333 C67.8498333,96.6965 68.0515,96.6131667 68.2548333,96.5331667 C68.9065,96.2765 69.5531667,96.0098333 70.1898333,95.7265 C70.4698333,95.6031667 70.7498333,95.4765 71.0265,95.3481667 C71.5781667,95.0915 72.1231667,94.8231667 72.6631667,94.5465 C72.9731667,94.3881667 73.2865,94.2331667 73.5931667,94.0715 C74.1015,93.7965 74.5981667,93.5098333 75.0965,93.2181667 C75.8098333,92.8031667 76.5115,92.3698333 77.2031667,91.9198333 C77.4748333,91.7431667 77.7498333,91.5731667 78.0165,91.3915 C78.5148333,91.0531667 79.0015,90.6998333 79.4898333,90.3431667 C79.6981667,90.1898333 79.9081667,90.0398333 80.1148333,89.8815 C80.6248333,89.4965 81.1281667,89.0998333 81.6248333,88.6948333 C81.7648333,88.5815 81.9015,88.4631667 82.0398333,88.3481667 C84.3181667,86.4448333 86.4331667,84.3331667 88.3631667,82.0231667 C88.4848333,81.8781667 88.6048333,81.7348333 88.7231667,81.5881667 C89.1381667,81.0815 89.5465,80.5631667 89.9431667,80.0381667 C90.0731667,79.8648333 90.1965,79.6915 90.3248333,79.5148333 C90.6365,79.0881667 90.9615,78.6731667 91.2615,78.2365 L91.6065,77.7298333 L91.6031667,77.6948333 C96.9031667,69.7631667 99.9998333,60.2365 99.9998333,49.9998333" id="Fill-1" fill="#C32026" mask="url(#mask-2)"></path>
            </g>
        </g>
    </g>
</svg>