<?xml version="1.0" encoding="UTF-8" standalone="no"?>
<svg width="126px" height="40px" viewBox="0 0 126 40" version="1.1" xmlns="http://www.w3.org/2000/svg" xmlns:xlink="http://www.w3.org/1999/xlink">
    <!-- Generator: Sketch 39.1 (31720) - http://www.bohemiancoding.com/sketch -->
    <title>ih_logo_signup</title>
    <desc>Created with Sketch.</desc>
    <defs>
        <polygon id="path-1" points="0 39.0573449 125.166698 39.0573449 125.166698 0.151736057 0 0.151736057"></polygon>
    </defs>
    <g id="Sign-In-/-Sign-Up" stroke="none" stroke-width="1" fill="none" fill-rule="evenodd">
        <g id="12_SignUp_step1" transform="translate(-657.000000, -50.000000)">
            <g id="ih_logo_signup" transform="translate(657.000000, 50.000000)">
                <polygon id="Fill-1" fill="#221F20" points="0 24.861901 1.90189327 24.861901 1.90189327 14.7349882 0 14.7349882"></polygon>
                <polygon id="Fill-2" fill="#221F20" points="4.13343202 14.7350919 5.97143652 14.7350919 10.2774026 21.3986897 10.2774026 14.7350919 12.1933789 14.7350919 12.1933789 24.8620047 10.350222 24.8620047 6.04906481 18.218454 6.04906481 24.8620047 4.13343202 24.8620047"></polygon>
                <g id="Group-18" transform="translate(0.000000, 0.193904)">
                    <path d="M19.843991,15.9176654 L18.4253854,17.177524 C17.9273277,16.480022 17.4199959,16.1309254 16.9037334,16.1309254 C16.6523001,16.1309254 16.4465508,16.1990165 16.2868289,16.3341618 C16.1271069,16.4699984 16.0467307,16.6224258 16.0467307,16.7924808 C16.0467307,16.9618445 16.1040932,17.1225672 16.2184747,17.2739576 C16.3737313,17.4765027 16.8419055,17.9099356 17.6233408,18.5746017 C18.3539399,19.1905326 18.7973829,19.5779953 18.952983,19.7394093 C19.3411245,20.1334391 19.6166019,20.5115695 19.7783848,20.8720723 C19.9408546,21.2311925 20.0219178,21.6248767 20.0219178,22.052088 C20.0219178,22.8830071 19.7368227,23.5684116 19.1656021,24.1103755 C18.594725,24.6519937 17.8507299,24.9233213 16.9329299,24.9233213 C16.2160703,24.9233213 15.5919526,24.7463535 15.0595461,24.3931092 C14.5278266,24.038828 14.0723615,23.4840754 13.6934942,22.7271233 L15.3037661,21.7496528 C15.7880842,22.6441697 16.3448783,23.0917738 16.9755224,23.0917738 C17.3045839,23.0917738 17.5807483,22.9960314 17.8047025,22.8028185 C18.0283132,22.6096057 18.1402903,22.3877046 18.1402903,22.1350416 C18.1402903,21.9048452 18.0557923,21.6753401 17.8871396,21.445835 C17.7178,21.2170212 17.3451155,20.8651595 16.7701165,20.391978 C15.6730157,19.4929678 14.9650869,18.7996135 14.644956,18.310187 C14.3255122,17.8214517 14.1654467,17.334099 14.1654467,16.8477832 C14.1654467,16.1444053 14.43165,15.5429914 14.9633695,15.0400848 C15.4954324,14.5371783 16.1521816,14.2858979 16.9329299,14.2858979 C17.4351094,14.2858979 17.9132447,14.4027243 18.3680229,14.6370683 C18.8221141,14.8714124 19.3143324,15.2986237 19.843991,15.9176654 L19.843991,15.9176654 Z" id="Fill-3" fill="#221F20"></path>
                    <mask id="mask-2" fill="white">
                        <use xlink:href="#path-1"></use>
                    </mask>
                    <g id="Clip-6"></g>
                    <polygon id="Fill-5" fill="#221F20" mask="url(#mask-2)" points="21.7819505 24.6679969 23.6838438 24.6679969 23.6838438 14.5410841 21.7819505 14.5410841"></polygon>
                    <path d="M35.1999673,16.1937973 L33.8510898,17.5359183 C32.9971785,16.6272302 32.0017502,16.1727133 30.8658352,16.1727133 C29.8748722,16.1727133 29.0453486,16.503491 28.3762339,17.1640094 C27.7074627,17.8255648 27.3729053,18.6281414 27.3729053,19.5731218 C27.3729053,20.5505923 27.7198283,21.3797832 28.4140176,22.0596575 C29.1082069,22.7381493 29.9641791,23.0775679 30.9826211,23.0775679 C31.6445226,23.0775679 32.2026907,22.9379293 32.6571253,22.6576151 C33.11156,22.3783378 33.4773748,21.9393747 33.7566305,21.3431453 L30.841791,21.3431453 L30.841791,19.5319906 L35.9048047,19.5319906 L35.9182008,19.9588562 C35.9182008,20.8443865 35.6904682,21.6842922 35.2343161,22.4796104 C34.7778205,23.2732003 34.1873645,23.878762 33.4619178,24.296641 C32.737158,24.7138288 31.8866817,24.9232867 30.9104887,24.9232867 C29.8659415,24.9232867 28.9340585,24.6944729 28.115183,24.2378822 C27.2969945,23.7809458 26.6488325,23.1307965 26.1727581,22.2863975 C25.6956532,21.4413071 25.457616,20.5305452 25.457616,19.5523833 C25.457616,18.2130275 25.8976242,17.047183 26.7779841,16.0555412 C27.8221877,14.8758712 29.1817134,14.2858633 30.8555306,14.2858633 C31.7310816,14.2858633 32.5499571,14.4486599 33.31147,14.7752899 C33.9548231,15.0500738 34.5844367,15.5229097 35.1999673,16.1937973" id="Fill-7" fill="#221F20" mask="url(#mask-2)"></path>
                    <polygon id="Fill-8" fill="#221F20" mask="url(#mask-2)" points="37.7398896 14.5411877 39.6826579 14.5411877 39.6826579 18.3622404 43.0426579 18.3622404 43.0426579 14.5411877 44.978213 14.5411877 44.978213 24.6681005 43.0426579 24.6681005 43.0426579 20.227315 39.6826579 20.227315 39.6826579 24.6681005 37.7398896 24.6681005"></polygon>
                    <polygon id="Fill-9" fill="#221F20" mask="url(#mask-2)" points="46.3556001 14.5411877 51.9173584 14.5411877 51.9173584 16.4415177 50.0841627 16.4415177 50.0841627 24.6681005 48.1410509 24.6681005 48.1410509 16.4415177 46.3556001 16.4415177"></polygon>
                    <polygon id="Fill-10" fill="#221F20" mask="url(#mask-2)" points="75.3504903 14.5411877 77.2936021 14.5411877 77.2936021 18.362586 80.6525717 18.362586 80.6525717 14.5411877 82.5898442 14.5411877 82.5898442 24.6684462 80.6525717 24.6684462 80.6525717 20.2276606 77.2936021 20.2276606 77.2936021 24.6684462 75.3504903 24.6684462"></polygon>
                    <polygon id="Fill-11" fill="#221F20" mask="url(#mask-2)" points="84.9644801 14.5411877 90.4589147 14.5411877 90.4589147 16.4280377 86.8663733 16.4280377 86.8663733 18.258894 90.4589147 18.258894 90.4589147 20.1104886 86.8663733 20.1104886 86.8663733 22.7746834 90.4589147 22.7746834 90.4589147 24.6684462 84.9644801 24.6684462"></polygon>
                    <path d="M94.3597367,18.4995287 L94.9594668,18.4995287 C95.5701885,18.4995287 95.9892439,18.4189945 96.2186939,18.2579262 C96.4478004,18.0965122 96.5625255,17.8300236 96.5625255,17.4570778 C96.5625255,17.2365593 96.5068804,17.0433464 96.3921554,16.8802042 C96.2794913,16.7163708 96.1273261,16.5991987 95.9356598,16.5279969 C95.7439935,16.456795 95.3950096,16.4208484 94.8859603,16.4208484 L94.3597367,16.4208484 L94.3597367,18.4995287 Z M92.4451343,14.5412569 L94.4741182,14.5412569 C95.5863324,14.5412569 96.3780724,14.6411469 96.8489945,14.8402357 C97.3199166,15.0403614 97.6998144,15.3718303 97.9862834,15.8349882 C98.2744698,16.299183 98.4180478,16.8480597 98.4180478,17.4816182 C98.4180478,18.14663 98.2586694,18.7034564 97.9416299,19.1503692 C97.6245905,19.5979733 97.1461116,19.9367007 96.5085978,20.1655145 L98.8924048,24.6685153 L96.7988452,24.6685153 L94.535259,20.3787745 L94.3597367,20.3787745 L94.3597367,24.6685153 L92.4451343,24.6685153 L92.4451343,14.5412569 Z" id="Fill-12" fill="#221F20" mask="url(#mask-2)"></path>
                    <path d="M105.243018,16.1731972 C104.311478,16.1731972 103.529012,16.4991359 102.894934,17.1506677 C102.259481,17.8021995 101.942441,18.6310448 101.942441,19.6358209 C101.942441,20.7556952 102.341918,21.6412255 103.140527,22.2927573 C103.761897,22.8032679 104.474635,23.0569678 105.277023,23.0569678 C106.186579,23.0569678 106.960458,22.727227 107.599689,22.0660173 C108.239264,21.4054988 108.557677,20.5908248 108.557677,19.6223409 C108.557677,18.6580047 108.235486,17.8426394 107.592476,17.1748625 C106.947749,16.5063943 106.165283,16.1731972 105.243018,16.1731972 M105.264314,14.2863472 C106.688072,14.2863472 107.911576,14.8051532 108.937575,15.8424195 C109.961856,16.8793401 110.473997,18.1443833 110.473997,19.6358209 C110.473997,21.1134328 109.96907,22.3643048 108.957497,23.3877455 C107.947299,24.4111862 106.72036,24.9230793 105.277023,24.9230793 C103.76705,24.9230793 102.511944,24.3977062 101.512738,23.3462687 C100.512844,22.2955224 100.013412,21.0467243 100.013412,19.6016025 C100.013412,18.632773 100.246297,17.7427494 100.712067,16.9298036 C101.177493,16.1178947 101.816725,15.473967 102.631478,14.9990573 C103.446919,14.5241477 104.324187,14.2863472 105.264314,14.2863472" id="Fill-13" fill="#221F20" mask="url(#mask-2)"></path>
                    <polygon id="Fill-14" fill="#221F20" mask="url(#mask-2)" points="112.356312 14.5411877 117.850746 14.5411877 117.850746 16.4280377 114.258205 16.4280377 114.258205 18.258894 117.850746 18.258894 117.850746 20.1104886 114.258205 20.1104886 114.258205 22.7746834 117.850746 22.7746834 117.850746 24.6684462 112.356312 24.6684462"></polygon>
                    <path d="M124.987535,15.918011 L123.568929,17.1778696 C123.071215,16.4803676 122.564227,16.131271 122.046934,16.131271 C121.796187,16.131271 121.590094,16.1993621 121.431059,16.3341618 C121.271681,16.4703441 121.190618,16.6227714 121.190618,16.7928264 C121.190618,16.9621901 121.24798,17.1225672 121.362705,17.2743032 C121.516932,17.4768484 121.986136,17.9102812 122.766884,18.5749474 C123.497484,19.1908782 123.941614,19.5783409 124.097214,19.7394093 C124.484325,20.1337848 124.760146,20.5115695 124.923302,20.8720723 C125.084055,21.2315381 125.166835,21.6252223 125.166835,22.0524336 C125.166835,22.8830071 124.880366,23.5687573 124.31052,24.1103755 C123.739299,24.6519937 122.994274,24.9233213 122.07716,24.9233213 C121.360644,24.9233213 120.73584,24.7466991 120.20412,24.3934548 C119.672057,24.0391736 119.215218,23.4844211 118.837725,22.7271233 L120.447653,21.7496528 C120.930941,22.6445153 121.489796,23.0921194 122.120097,23.0921194 C122.448128,23.0921194 122.725666,22.9960314 122.949277,22.8031642 C123.173574,22.6099513 123.284521,22.3877046 123.284521,22.1353873 C123.284521,21.9051909 123.200366,21.6756858 123.029996,21.445835 C122.862031,21.2170212 122.489346,20.8655051 121.914347,20.3923236 C120.816559,19.4933134 120.109318,18.7996135 119.7885,18.3105326 C119.470086,17.8217973 119.308647,17.3344446 119.308647,16.8477832 C119.308647,16.144751 119.575537,15.543337 120.107257,15.0404305 C120.63932,14.537524 121.296412,14.2862435 122.07716,14.2862435 C122.578653,14.2862435 123.057132,14.4030699 123.51191,14.637414 C123.966688,14.8717581 124.457533,15.2989694 124.987535,15.918011" id="Fill-15" fill="#221F20" mask="url(#mask-2)"></path>
                    <polygon id="Fill-16" fill="#C32026" mask="url(#mask-2)" points="39.658442 9.74256088 51.9171867 9.74256088 51.9171867 0.151736057 39.658442 0.151736057"></polygon>
                    <polygon id="Fill-17" fill="#C32026" mask="url(#mask-2)" points="87.5721726 9.7427337 87.5721726 0.151908877 68.3646649 0.151908877 58.8383676 0.151908877 58.8335588 0.151908877 58.8335588 29.4663472 39.6586825 29.4663472 39.6586825 39.0575177 87.5721726 39.0575177 87.5721726 29.4663472 68.3646649 29.4663472 68.3646649 9.7427337"></polygon>
                </g>
            </g>
        </g>
    </g>
</svg>