<?xml version="1.0" encoding="UTF-8" standalone="no"?>
<svg width="210px" height="66px" viewBox="0 0 210 66" version="1.1" xmlns="http://www.w3.org/2000/svg" xmlns:xlink="http://www.w3.org/1999/xlink">
    <!-- Generator: Sketch 39.1 (31720) - http://www.bohemiancoding.com/sketch -->
    <title>ih_logo_signin</title>
    <desc>Created with Sketch.</desc>
    <defs>
        <polygon id="path-1" points="0 65.4210526 209.654219 65.4210526 209.654219 0.254157895 0 0.254157895"></polygon>
    </defs>
    <g id="Sign-In-/-Sign-Up" stroke="none" stroke-width="1" fill="none" fill-rule="evenodd">
        <g id="10_SignIn_emptystate" transform="translate(-616.000000, -71.000000)">
            <g id="Group" transform="translate(410.000000, 71.000000)">
                <g id="ih_logo_signin" transform="translate(206.000000, 0.000000)">
                    <polygon id="Fill-1" fill="#221F20" points="0 41.6436842 3.18567123 41.6436842 3.18567123 24.6811053 0 24.6811053"></polygon>
                    <polygon id="Fill-2" fill="#221F20" points="6.92349863 24.6812789 10.0021562 24.6812789 17.2146493 35.8428053 17.2146493 24.6812789 20.4239096 24.6812789 20.4239096 41.6438579 17.3366219 41.6438579 10.1321836 30.5159105 10.1321836 41.6438579 6.92349863 41.6438579"></polygon>
                    <g id="Group-18" transform="translate(0.000000, 0.324789)">
                        <path d="M33.2386849,26.6620895 L30.8625205,28.7723526 C30.028274,27.6040368 29.1784932,27.0193 28.3137534,27.0193 C27.8926027,27.0193 27.5479726,27.1333526 27.2804384,27.3597211 C27.0129041,27.5872474 26.878274,27.8425632 26.878274,28.1274053 C26.878274,28.4110895 26.9743562,28.6803 27.1659452,28.9338789 C27.426,29.2731421 28.2101918,29.9991421 29.5190959,31.1124579 C30.7428493,32.1441421 31.4856164,32.7931421 31.7462466,33.0635105 C32.3963836,33.7235105 32.8578082,34.3568789 33.1287945,34.9607211 C33.4009315,35.5622474 33.5367123,36.2216684 33.5367123,36.9372474 C33.5367123,38.3290368 33.0591781,39.4770895 32.1023836,40.3848789 C31.1461644,41.2920895 29.8999726,41.7465632 28.3626575,41.7465632 C27.1619178,41.7465632 26.1165205,41.4501421 25.2247397,40.8584579 C24.3341096,40.2650368 23.5712055,39.3358263 22.9366027,38.0679316 L25.6338082,36.4306684 C26.4450411,37.9289842 27.3776712,38.6787211 28.434,38.6787211 C28.9851781,38.6787211 29.4477534,38.5183526 29.8228767,38.1947211 C30.1974247,37.8710895 30.3849863,37.4994053 30.3849863,37.0761947 C30.3849863,36.6906158 30.2434521,36.3061947 29.9609589,35.9217737 C29.6773151,35.5385105 29.0530685,34.9491421 28.0899452,34.1565632 C26.2523014,32.6507211 25.0665205,31.4893526 24.5303014,30.6695632 C23.9952329,29.8509316 23.7271233,29.0346158 23.7271233,28.2200368 C23.7271233,27.0418789 24.1730137,26.0345105 25.0636438,25.1921421 C25.9548493,24.3497737 27.0549041,23.9288789 28.3626575,23.9288789 C29.2038082,23.9288789 30.0046849,24.1245632 30.7664384,24.5170895 C31.5270411,24.9096158 32.3515068,25.6251947 33.2386849,26.6620895 L33.2386849,26.6620895 Z" id="Fill-3" fill="#221F20"></path>
                        <mask id="mask-2" fill="white">
                            <use xlink:href="#path-1"></use>
                        </mask>
                        <g id="Clip-6"></g>
                        <polygon id="Fill-5" fill="#221F20" mask="url(#mask-2)" points="36.4847671 41.3188947 39.6704384 41.3188947 39.6704384 24.3563158 36.4847671 24.3563158"></polygon>
                        <path d="M58.9599452,27.1246105 L56.7005753,29.3726632 C55.270274,27.8506105 53.6029315,27.0892947 51.700274,27.0892947 C50.040411,27.0892947 48.6509589,27.6433474 47.5301918,28.7497158 C46.41,29.8578211 45.8496164,31.2021368 45.8496164,32.7849789 C45.8496164,34.4222421 46.4307123,35.8111368 47.5934795,36.9499263 C48.7562466,38.0864 50.19,38.6549263 51.8958904,38.6549263 C53.0045753,38.6549263 53.9395068,38.4210316 54.7006849,37.9515053 C55.461863,37.4837158 56.0746027,36.7484526 56.5423562,35.7497684 L51.66,35.7497684 L51.66,32.7160842 L60.1405479,32.7160842 L60.1629863,33.4310842 C60.1629863,34.9143474 59.7815342,36.3211895 59.0174795,37.6533474 C58.2528493,38.9826105 57.2638356,39.9969263 56.0487123,40.6968737 C54.8347397,41.3956632 53.4101918,41.7465053 51.7750685,41.7465053 C50.0254521,41.7465053 48.4645479,41.3632421 47.0929315,40.5984526 C45.7224658,39.8330842 44.6367945,38.7440842 43.8393699,37.3297158 C43.0402192,35.9141895 42.6415068,34.3886632 42.6415068,32.7502421 C42.6415068,30.5068211 43.3785205,28.5540316 44.8531233,26.8930316 C46.6021644,24.9170842 48.8793699,23.9288211 51.6830137,23.9288211 C53.1495616,23.9288211 54.5211781,24.2015053 55.7967123,24.7486105 C56.8743288,25.2088737 57.9289315,26.0008737 58.9599452,27.1246105" id="Fill-7" fill="#221F20" mask="url(#mask-2)"></path>
                        <polygon id="Fill-8" fill="#221F20" mask="url(#mask-2)" points="63.2143151 24.3564895 66.4684521 24.3564895 66.4684521 30.7567526 72.0964521 30.7567526 72.0964521 24.3564895 75.3385068 24.3564895 75.3385068 41.3190684 72.0964521 41.3190684 72.0964521 33.8807526 66.4684521 33.8807526 66.4684521 41.3190684 63.2143151 41.3190684"></polygon>
                        <polygon id="Fill-9" fill="#221F20" mask="url(#mask-2)" points="77.6456301 24.3564895 86.9615753 24.3564895 86.9615753 27.5395421 83.8909726 27.5395421 83.8909726 41.3190684 80.6362603 41.3190684 80.6362603 27.5395421 77.6456301 27.5395421"></polygon>
                        <polygon id="Fill-10" fill="#221F20" mask="url(#mask-2)" points="126.212071 24.3564895 129.466784 24.3564895 129.466784 30.7573316 135.093058 30.7573316 135.093058 24.3564895 138.337989 24.3564895 138.337989 41.3196474 135.093058 41.3196474 135.093058 33.8813316 129.466784 33.8813316 129.466784 41.3196474 126.212071 41.3196474"></polygon>
                        <polygon id="Fill-11" fill="#221F20" mask="url(#mask-2)" points="142.315504 24.3564895 151.518682 24.3564895 151.518682 27.5169632 145.501175 27.5169632 145.501175 30.5836474 151.518682 30.5836474 151.518682 33.6850684 145.501175 33.6850684 145.501175 38.1475947 151.518682 38.1475947 151.518682 41.3196474 142.315504 41.3196474"></polygon>
                        <path d="M158.052559,30.9867105 L159.057107,30.9867105 C160.080066,30.9867105 160.781984,30.8518158 161.166312,30.5820263 C161.550066,30.3116579 161.74223,29.8652895 161.74223,29.2406053 C161.74223,28.8712368 161.649025,28.5476053 161.45686,28.2743421 C161.268148,27.9999211 161.013271,27.8036579 160.69223,27.6843947 C160.371189,27.5651316 159.786641,27.5049211 158.933984,27.5049211 L158.052559,27.5049211 L158.052559,30.9867105 Z M154.8456,24.3566053 L158.244148,24.3566053 C160.107107,24.3566053 161.433271,24.5239211 162.222066,24.8573947 C163.01086,25.1926053 163.647189,25.7478158 164.127025,26.5236053 C164.609737,27.3011316 164.85023,28.2205 164.85023,29.2817105 C164.85023,30.3956053 164.583271,31.3282895 164.05223,32.0768684 C163.521189,32.8266053 162.719737,33.3939737 161.651901,33.7772368 L165.644778,41.3197632 L162.138066,41.3197632 L158.346559,34.1344474 L158.052559,34.1344474 L158.052559,41.3197632 L154.8456,41.3197632 L154.8456,24.3566053 Z" id="Fill-12" fill="#221F20" mask="url(#mask-2)"></path>
                        <path d="M176.282055,27.0901053 C174.721726,27.0901053 173.411096,27.6360526 172.349014,28.7273684 C171.28463,29.8186842 170.753589,31.207 170.753589,32.89 C170.753589,34.7657895 171.422712,36.2490526 172.760384,37.3403684 C173.801178,38.1954737 174.995014,38.6204211 176.339014,38.6204211 C177.862521,38.6204211 179.158767,38.0681053 180.229479,36.9605789 C181.300767,35.8542105 181.83411,34.4896316 181.83411,32.8674211 C181.83411,31.2521579 181.294438,29.8864211 180.217397,28.7678947 C179.137479,27.6482105 177.826849,27.0901053 176.282055,27.0901053 M176.317726,23.9296316 C178.702521,23.9296316 180.75189,24.7986316 182.470438,26.5360526 C184.18611,28.2728947 185.043945,30.3918421 185.043945,32.89 C185.043945,35.365 184.198192,37.4602105 182.503808,39.1744737 C180.811726,40.8887368 178.756603,41.7461579 176.339014,41.7461579 C173.809808,41.7461579 171.707507,40.8661579 170.033836,39.105 C168.359014,37.345 167.522466,35.2532632 167.522466,32.8326842 C167.522466,31.2098947 167.912548,29.7191053 168.692712,28.3574211 C169.472301,26.9974737 170.543014,25.9188947 171.907726,25.1234211 C173.273589,24.3279474 174.743014,23.9296316 176.317726,23.9296316" id="Fill-13" fill="#221F20" mask="url(#mask-2)"></path>
                        <polygon id="Fill-14" fill="#221F20" mask="url(#mask-2)" points="188.196822 24.3564895 197.4 24.3564895 197.4 27.5169632 191.382493 27.5169632 191.382493 30.5836474 197.4 30.5836474 197.4 33.6850684 191.382493 33.6850684 191.382493 38.1475947 197.4 38.1475947 197.4 41.3196474 188.196822 41.3196474"></polygon>
                        <path d="M209.354121,26.6626684 L206.977956,28.7729316 C206.144285,27.6046158 205.295079,27.0198789 204.428614,27.0198789 C204.008614,27.0198789 203.663408,27.1339316 203.397025,27.3597211 C203.130066,27.5878263 202.994285,27.8431421 202.994285,28.1279842 C202.994285,28.4116684 203.090367,28.6803 203.282532,28.9344579 C203.54086,29.2737211 204.326778,29.9997211 205.634532,31.1130368 C206.858285,32.1447211 207.602203,32.7937211 207.862833,33.0635105 C208.511244,33.7240895 208.973244,34.3568789 209.246532,34.9607211 C209.515792,35.5628263 209.654449,36.2222474 209.654449,36.9378263 C209.654449,38.3290368 209.174614,39.4776684 208.220121,40.3848789 C207.263326,41.2920895 206.015408,41.7465632 204.479244,41.7465632 C203.279079,41.7465632 202.232532,41.4507211 201.341901,40.8590368 C200.450696,40.2656158 199.68549,39.3364053 199.053189,38.0679316 L201.749819,36.4306684 C202.559326,37.9295632 203.495408,38.6793 204.551162,38.6793 C205.100614,38.6793 205.56549,38.5183526 205.940038,38.1953 C206.315737,37.8716684 206.501573,37.4994053 206.501573,37.0767737 C206.501573,36.6911947 206.360614,36.3067737 206.075244,35.9217737 C205.793901,35.5385105 205.169655,34.9497211 204.206532,34.1571421 C202.367737,32.6513 201.183107,31.4893526 200.645737,30.6701421 C200.112395,29.8515105 199.841984,29.0351947 199.841984,28.2200368 C199.841984,27.0424579 200.289025,26.0350895 201.179655,25.1927211 C202.07086,24.3503526 203.17149,23.9294579 204.479244,23.9294579 C205.319244,23.9294579 206.120696,24.1251421 206.882449,24.5176684 C207.644203,24.9101947 208.466367,25.6257737 209.354121,26.6626684" id="Fill-15" fill="#221F20" mask="url(#mask-2)"></path>
                        <polygon id="Fill-16" fill="#C32026" mask="url(#mask-2)" points="66.4278904 16.3187895 86.9612877 16.3187895 86.9612877 0.254157895 66.4278904 0.254157895"></polygon>
                        <polygon id="Fill-17" fill="#C32026" mask="url(#mask-2)" points="146.683389 16.3190789 146.683389 0.254447368 114.510814 0.254447368 98.5542658 0.254447368 98.546211 0.254447368 98.546211 49.3561316 66.4282932 49.3561316 66.4282932 65.4213421 146.683389 65.4213421 146.683389 49.3561316 114.510814 49.3561316 114.510814 16.3190789"></polygon>
                    </g>
                </g>
            </g>
        </g>
    </g>
</svg>