<?xml version="1.0" encoding="UTF-8" standalone="no"?>
<svg width="114px" height="103px" viewBox="0 0 114 103" version="1.1" xmlns="http://www.w3.org/2000/svg" xmlns:xlink="http://www.w3.org/1999/xlink">
    <!-- Generator: Sketch 39.1 (31720) - http://www.bohemiancoding.com/sketch -->
    <title>img_rocket</title>
    <desc>Created with Sketch.</desc>
    <defs></defs>
    <g id="Form-Builder" stroke="none" stroke-width="1" fill="none" fill-rule="evenodd">
        <g id="01_CreateNew_Landing" transform="translate(-825.000000, -171.000000)" fill="#C32026">
            <g id="img_rocket" transform="translate(825.000000, 171.000000)">
                <g id="Capa_1">
                    <g id="Group">
                        <path d="M53.3439366,73.5417224 C52.7297268,73.5417224 52.2317415,74.0389542 52.2317415,74.6522345 L52.2317415,81.1817682 C52.2317415,81.7950485 52.7297268,82.2922803 53.3439366,82.2922803 C53.9581463,82.2922803 54.4561317,81.7950485 54.4561317,81.1817682 L54.4561317,74.6522345 C54.4561317,74.0389542 53.9581463,73.5417224 53.3439366,73.5417224 L53.3439366,73.5417224 Z" id="Shape"></path>
                        <path d="M61.5675073,81.671504 L61.5675073,74.816035 C61.5675073,74.2027547 61.069522,73.7055229 60.4553122,73.7055229 C59.8411024,73.7055229 59.3431171,74.2027547 59.3431171,74.816035 L59.3431171,81.671504 C59.3431171,82.2847844 59.8411024,82.7820162 60.4553122,82.7820162 C61.069522,82.7820162 61.5675073,82.2847844 61.5675073,81.671504 L61.5675073,81.671504 Z" id="Shape"></path>
                        <path d="M61.417639,88.9017709 C61.2563707,88.9450809 61.0964927,88.9670135 60.9427317,88.9670135 C60.328522,88.9670135 59.8305366,89.4642453 59.8305366,90.0775256 C59.8305366,90.6908059 60.328522,91.1880377 60.9427317,91.1880377 C61.2916829,91.1880377 61.6459171,91.1402857 61.9959805,91.0461698 C62.5890585,90.8868113 62.9402341,90.2774178 62.7806341,89.6852372 C62.6207561,89.0930566 62.0107171,88.7429677 61.417639,88.9017709 L61.417639,88.9017709 Z" id="Shape"></path>
                        <path d="M113.796468,93.5872992 C113.796468,91.4390135 112.786317,89.4764609 111.098283,88.2346307 C111.582366,87.2373908 111.834556,86.143814 111.834556,85.0174771 C111.834556,82.4161024 110.481015,80.1259488 108.441527,78.8074933 C108.470166,78.5406927 108.48518,78.2708383 108.48518,77.9995957 C108.48518,73.8310108 105.089649,70.4397844 100.916137,70.4397844 C96.9439317,70.4397844 93.6790829,73.5128491 93.3732293,77.4032507 C89.8812146,77.9968194 87.2133366,81.0379569 87.2133366,84.6912642 C87.2133366,85.3162049 87.2903561,85.9297628 87.443561,86.5258302 C86.4756732,87.0536011 85.7585854,87.9595013 85.471361,89.0289245 C85.1443756,88.9881132 84.8148878,88.9672911 84.4837317,88.9672911 C81.0331463,88.9672911 78.0391171,91.2046954 76.9886488,94.3693774 C76.1125171,94.0570458 75.177161,93.9454394 74.1984293,94.0861968 C73.5669805,91.7746658 71.4707707,90.1100081 68.953039,90.1100081 C68.8487707,90.1100081 68.7447805,90.113062 68.6416244,90.1186146 C68.6641463,89.9445418 68.6758244,89.7674151 68.6758244,89.5880674 C68.6758244,87.3703747 66.8804634,85.5632938 64.6646927,85.5396954 C64.0376927,84.0893666 62.5887805,83.0910162 60.9424537,83.0910162 C60.3282439,83.0910162 59.8302585,83.588248 59.8302585,84.2015283 C59.8302585,84.8148086 60.3282439,85.3120404 60.9424537,85.3120404 C61.856122,85.3120404 62.6349366,85.9938949 62.7542195,86.898407 C62.7959268,87.2157358 62.9724878,87.4991941 63.2388585,87.6771536 C63.5057854,87.8551132 63.8352732,87.9098059 64.1450195,87.8262399 C64.307678,87.7829299 64.4678341,87.7607197 64.621039,87.7607197 C65.6303561,87.7607197 66.4514341,88.5805553 66.4514341,89.588345 C66.4514341,90.3459919 65.9932098,91.013965 65.2836293,91.2896496 C64.9691561,91.4118059 64.7203024,91.6680566 64.626322,91.9914933 C64.4636634,92.5517466 64.8682244,93.1167197 64.8682244,93.1167197 C65.0445073,93.4173908 65.3514732,93.6178383 65.6976439,93.6586496 C66.0463171,93.7000162 66.3897073,93.5753612 66.6307756,93.3243854 C67.2455415,92.6838976 68.0702341,92.33131 68.953039,92.33131 C70.7142,92.33131 72.1264098,93.7097332 72.1681171,95.4696173 C72.1764585,95.8285903 72.3585805,96.1611887 72.6563707,96.3627466 C72.954161,96.5645822 73.3317512,96.6090027 73.6681902,96.4843477 C73.8200049,96.4279892 74.3894488,96.2489191 75.0022683,96.2489191 C75.7616195,96.2489191 76.493722,96.4787951 77.1187756,96.9141159 C77.4388098,97.1362183 77.8514341,97.1753639 78.2070585,97.0173935 C78.5626829,96.8591456 78.8098683,96.5265472 78.8582488,96.1409218 C79.2122049,93.3177224 81.6309512,91.1888706 84.4840098,91.1888706 C85.0456683,91.1888706 85.6017659,91.2713261 86.1367317,91.4340162 C86.4918,91.5420135 86.8780098,91.4656658 87.1655122,91.2305148 C87.4527366,90.9950863 87.603439,90.6322264 87.5670146,90.2629811 C87.5611756,90.2021806 87.557561,90.1411024 87.557561,90.0786361 C87.557561,89.4650782 87.8675854,88.9170404 88.3466634,88.5841644 C89.2708976,89.9203881 90.7740293,90.8149057 92.4681805,90.9259569 C92.4932049,90.9276226 92.5179512,90.9284555 92.5424195,90.9284555 C93.1235415,90.9284555 93.6126293,90.4778652 93.651,89.8909596 C93.6913171,89.2787898 93.2272537,88.750186 92.6141561,88.7099299 C91.3907415,88.6294178 90.356678,87.8501159 89.8692585,86.7651456 C89.7485854,86.4966792 89.4377268,85.7679057 89.4377268,84.692097 C89.4377268,81.839469 91.7622146,79.518221 94.6194439,79.518221 C96.0183073,79.518221 97.3190195,80.0654259 98.2860732,81.0374016 C96.8610732,83.5191186 97.201961,86.7443235 99.3229171,88.8617925 C99.5397951,89.0786199 99.8247951,89.1871725 100.109239,89.1871725 C100.393683,89.1871725 100.678683,89.0786199 100.895561,88.8617925 C101.330151,88.4281375 101.330151,87.7249057 100.895561,87.2915283 C99.2598,85.657965 99.2267122,83.0210539 100.79602,81.3466792 C100.828551,81.3119757 100.908073,81.2275768 100.915302,81.2200809 C101.868454,80.3408329 103.118561,79.8447116 104.428449,79.8447116 C107.285678,79.8447116 109.610444,82.1656819 109.610444,85.0185876 C109.610444,86.0835687 109.288185,87.106628 108.678424,87.9772695 C108.492688,88.2424043 108.432073,88.5750027 108.512429,88.8887224 C108.592507,89.2021644 108.805771,89.4650782 109.096332,89.6086119 C110.623376,90.3643154 111.572078,91.8890485 111.572078,93.5884097 C111.572078,95.6067655 110.208249,97.3724798 108.255512,97.8827601 C107.965229,97.9585526 107.718044,98.1484501 107.569844,98.4088652 C107.421922,98.6692803 107.38522,98.978558 107.468912,99.2661806 C107.588195,99.6770701 107.648532,100.101008 107.648532,100.526057 C107.648532,100.558261 107.648254,100.590189 107.64742,100.622671 L6.14904878,100.622671 C6.14849268,100.590466 6.15210732,100.300623 6.16072683,100.188183 C6.18408293,99.8769623 6.23997073,99.5682399 6.3275561,99.2661806 C6.41097073,98.978558 6.37454634,98.669558 6.22634634,98.4088652 C6.07814634,98.1484501 5.83123902,97.9588302 5.5409561,97.8827601 C3.58821951,97.3713693 2.22439024,95.605655 2.22439024,93.5872992 C2.22439024,92.2646792 2.80106341,91.049779 3.77562439,90.2188383 C3.84902927,90.156372 4.15794146,89.9273288 4.20910244,89.8940135 C5.80093171,88.8565175 8.05674146,88.8701213 9.48062927,90.2915768 C9.69778537,90.5084043 9.98222927,90.6169569 10.2669512,90.6169569 C10.5516732,90.6169569 10.8361171,90.5084043 11.0535512,90.2915768 C11.4878634,89.8579218 11.4878634,89.15469 11.0535512,88.7213127 C9.33076098,87.0008518 6.84722927,86.4994555 4.67483415,87.2057412 C4.35507805,86.5249973 4.18630244,85.7826199 4.18630244,85.0174771 C4.18630244,82.1648491 6.51079024,79.8436011 9.36801951,79.8436011 C10.6259122,79.8436011 11.8256927,80.3052965 12.7632732,81.1201348 C12.3284049,82.0010485 12.0970683,82.9758005 12.0970683,83.9860889 C12.0970683,85.7207089 12.7743951,87.3523288 14.0042049,88.5802776 C14.221361,88.7971051 14.5058049,88.9056577 14.7905268,88.9056577 C15.0752488,88.9056577 15.3596927,88.7971051 15.5771268,88.5802776 C16.011439,88.1466226 16.011439,87.4433908 15.5771268,87.0100135 C14.7674488,86.2015606 14.3214585,85.1276954 14.3214585,83.9860889 C14.3214585,82.8825175 14.7415902,81.8444663 15.5009415,81.0460081 C16.4688293,80.0679245 17.7734341,79.5173881 19.1767463,79.5173881 C22.0339756,79.5173881 24.3584634,81.8383585 24.3584634,84.6912642 C24.3584634,85.4053235 24.2147122,86.0980054 23.9311024,86.7495984 C23.7962488,87.0597089 23.8101512,87.4145175 23.9689171,87.7129677 C24.1276829,88.0116954 24.4140732,88.2215822 24.7468976,88.2837709 C25.4587024,88.4167547 26.0034,88.9542426 26.1755122,89.6297116 C23.7931902,90.7591024 22.2388976,93.2807978 22.4763512,96.0548571 C22.5286244,96.6659164 23.0672049,97.1190054 23.6791902,97.0668113 C24.2911756,97.0146173 24.7449512,96.4768518 24.692678,95.8657925 C24.5202878,93.8513235 25.7848537,92.0425768 27.6316537,91.440124 C28.2911854,91.2330135 29.0894634,91.188593 29.3121805,91.188593 C32.165239,91.188593 34.5837073,93.3174447 34.9379415,96.1406442 C34.986322,96.5265472 35.2335073,96.8591456 35.5891317,97.0171159 C35.9447561,97.1750863 36.3579366,97.1359407 36.6771366,96.9138383 C37.3236,96.4638032 38.1457902,96.2405903 38.9613073,96.2583585 C39.4651317,96.2583585 39.9845268,96.4010593 40.2411659,96.499062 C40.242278,96.4993396 40.2433902,96.4996173 40.2445024,96.5001725 C41.187922,96.9049542 41.8505122,97.8416712 41.8505122,98.929973 C41.8505122,99.5432534 42.3484976,100.040485 42.9627073,100.040485 C43.5769171,100.040485 44.0749024,99.5432534 44.0749024,98.929973 C44.0749024,97.1695337 43.1303707,95.6289757 41.723722,94.7749919 C42.0740634,93.3774124 43.3475268,92.3310323 44.8425951,92.3310323 C45.7254,92.3310323 46.5503707,92.6838976 47.1651366,93.3241078 C47.4064829,93.5750836 47.7518195,93.698628 48.0979902,93.658372 C48.444439,93.6175606 48.7514049,93.4171132 48.9276878,93.116442 C48.9276878,93.116442 49.3820195,92.4964987 49.1695902,91.9912156 C49.0389073,91.6808275 48.8267561,91.4115283 48.5122829,91.289372 C47.8027024,91.0136873 47.344478,90.3457143 47.344478,89.5880674 C47.344478,88.5802776 48.1655561,87.760442 49.1748732,87.760442 C49.3278,87.760442 49.4879561,87.7823747 49.6506146,87.8259623 C49.9600829,87.9092507 50.2901268,87.854558 50.5564976,87.676876 C50.8228683,87.4991941 50.9997073,87.2154582 51.0414146,86.898407 C51.1606976,85.9938949 51.9395122,85.3117628 52.8531805,85.3117628 C53.4673902,85.3117628 53.9653756,84.814531 53.9653756,84.2012507 C53.9653756,83.5879704 53.4673902,83.0907385 52.8531805,83.0907385 C51.2071317,83.0907385 49.7584976,84.0893666 49.1312195,85.5394178 C46.9154488,85.5630162 45.1200878,87.370097 45.1200878,89.5877898 C45.1200878,89.7671375 45.1317659,89.9442642 45.1542878,90.1183369 C45.0508537,90.1125067 44.9471415,90.1097305 44.8425951,90.1097305 C42.3696293,90.1097305 40.2508976,91.7996523 39.6041561,94.0834205 C38.6599024,93.9518248 37.6914585,94.0537143 36.8069854,94.3688221 C35.7565171,91.2038625 32.7624878,88.9667358 29.3119024,88.9667358 C28.9807463,88.9667358 28.6512585,88.9872803 28.3242732,89.0283693 C28.0367707,87.9592237 27.319961,87.0533235 26.3520732,86.5252749 C26.505,85.9294852 26.5822976,85.3156496 26.5822976,84.6907089 C26.5822976,80.613186 23.2598927,77.2958086 19.1761902,77.2958086 C17.247922,77.2958086 15.4489463,78.0204178 14.0842829,79.3177736 C12.7660537,78.2291941 11.1027659,77.6222992 9.36746341,77.6222992 C5.28348293,77.6222992 1.9613561,80.9396765 1.9613561,85.0171995 C1.9613561,86.1435364 2.21354634,87.2371132 2.69762927,88.2343531 C1.01015122,89.4767385 0,91.4390135 0,93.5872992 C0,96.2566927 1.59127317,98.6323558 3.97665366,99.6820674 C3.94134146,99.9613612 3.92354634,100.242876 3.92354634,100.524668 C3.92354634,101.006908 3.97637561,101.492757 4.08036585,101.968612 C4.19186341,102.478615 4.64397073,102.84203 5.16698049,102.84203 L108.629488,102.84203 C109.152498,102.84203 109.604883,102.478059 109.716102,101.968334 C109.820093,101.492202 109.872644,101.006631 109.872644,100.524668 C109.872644,100.242598 109.855127,99.9613612 109.819537,99.6820674 C112.204917,98.6323558 113.796468,96.2569704 113.796468,93.5872992 L113.796468,93.5872992 Z M99.7116293,79.3183288 C98.5846976,78.2469623 97.1610878,77.5676065 95.6137463,77.3629946 C95.9301659,74.7188652 98.1854195,72.6608086 100.916415,72.6608086 C103.812849,72.6608086 106.173205,74.9759488 106.253283,77.8505094 C105.66938,77.7022561 105.057951,77.6228544 104.428171,77.6228544 C102.692868,77.6228544 101.029859,78.2294717 99.7116293,79.3183288 L99.7116293,79.3183288 Z" id="Shape"></path>
                        <path d="M51.9431268,98.3441779 C51.8396927,98.9485741 52.246478,99.5224313 52.8520683,99.6257089 C52.9154634,99.6365364 52.9785805,99.6420889 53.0408634,99.6420889 C53.5727707,99.6420889 54.0429512,99.2597951 54.1358195,98.7186981 C54.435,96.9713073 55.8163463,95.6167601 57.5727805,95.3477385 C59.2132683,95.0970404 60.8356829,95.8460809 61.7062537,97.2567089 C62.0282341,97.7786496 62.7133463,97.9413396 63.2366341,97.6195687 C63.7596439,97.2977978 63.9223024,96.6137224 63.6000439,96.091504 C62.2595707,93.9193423 59.7615805,92.7682965 57.2355073,93.1522561 C57.1340195,93.1678032 57.0350341,93.1902911 56.9352146,93.210558 C56.3023756,91.0408949 54.3596488,89.461469 52.069639,89.310717 C51.4565415,89.2676846 50.9271366,89.7338221 50.8868195,90.3459919 C50.8462244,90.9578841 51.3105659,91.4867655 51.9236634,91.5270216 C53.3472732,91.6205822 54.5426049,92.6483612 54.8501268,94.0326146 C53.3397659,94.9679434 52.2564878,96.515442 51.9431268,98.3441779 L51.9431268,98.3441779 Z" id="Shape"></path>
                        <path d="M49.2977707,72.8246092 L64.501478,72.8246092 C65.1156878,72.8246092 65.6136732,72.3273774 65.6136732,71.714097 L65.6136732,55.3093342 C65.6136732,55.102779 65.5561171,54.9003881 65.447122,54.7249272 L61.5675073,48.4680243 L61.5675073,11.066531 C61.5675073,10.9366011 61.5447073,10.807504 61.5002195,10.6856253 L57.9445317,0.961703504 C57.7843756,0.523606469 57.3667463,0.232097035 56.8996244,0.232097035 C56.4325024,0.232097035 56.0151512,0.523606469 55.8549951,0.961703504 L52.2993073,10.6856253 C52.2545415,10.807504 52.2317415,10.9366011 52.2317415,11.066531 L52.2317415,48.4683019 L48.3521268,54.7249272 C48.2431317,54.9006658 48.1855756,55.102779 48.1855756,55.3093342 L48.1855756,71.714097 C48.1855756,72.3273774 48.683561,72.8246092 49.2977707,72.8246092 L49.2977707,72.8246092 Z M59.3431171,12.1770431 L59.3431171,13.6287601 L54.4561317,13.6287601 L54.4561317,12.1770431 L59.3431171,12.1770431 L59.3431171,12.1770431 Z M54.4561317,70.6035849 L54.4561317,15.8497844 L59.3431171,15.8497844 L59.3431171,70.6035849 L54.4561317,70.6035849 L54.4561317,70.6035849 Z M63.3892829,55.6252749 L63.3892829,70.6035849 L61.5675073,70.6035849 L61.5675073,52.6874151 L63.3892829,55.6252749 L63.3892829,55.6252749 Z M56.8996244,4.58058491 L58.8651512,9.95601887 L54.9340976,9.95601887 L56.8996244,4.58058491 L56.8996244,4.58058491 Z M50.4099659,55.6252749 L52.2317415,52.6874151 L52.2317415,70.6035849 L50.4099659,70.6035849 L50.4099659,55.6252749 L50.4099659,55.6252749 Z" id="Shape"></path>
                    </g>
                </g>
            </g>
        </g>
    </g>
</svg>