<?xml version="1.0" encoding="UTF-8"?>
<svg width="20px" height="18px" viewBox="0 0 20 18" version="1.1" xmlns="http://www.w3.org/2000/svg" xmlns:xlink="http://www.w3.org/1999/xlink">
    <!-- Generator: Sketch 41.1 (35376) - http://www.bohemiancoding.com/sketch -->
    <title>LinkedIn-color</title>
    <desc>Created with Sketch.</desc>
    <defs></defs>
    <g id="Distribute" stroke="none" stroke-width="1" fill="none" fill-rule="evenodd">
        <g id="03_distribute_empty" transform="translate(-316.000000, -901.000000)" fill="#9F9F9F">
            <path d="M335.340659,918.5 L331.06611,918.5 L331.06611,912.34805 C331.06611,910.737786 330.397465,909.638503 328.927129,909.638503 C327.802487,909.638503 327.177054,910.380323 326.885944,911.095249 C326.776777,911.35186 326.793835,911.709323 326.793835,912.066786 L326.793835,918.5 L322.559085,918.5 C322.559085,918.5 322.613669,907.60242 322.559085,906.611833 L326.793835,906.611833 L326.793835,908.477589 C327.044008,907.661811 328.397217,906.497535 330.556666,906.497535 C333.235793,906.497535 335.340659,908.20753 335.340659,911.889736 L335.340659,918.5 L335.340659,918.5 Z M318.276576,905.124832 L318.249284,905.124832 C316.884703,905.124832 316,904.216047 316,903.064097 C316,901.889736 316.910858,901 318.30273,901 C319.693466,901 320.548603,901.887494 320.575894,903.060735 C320.575894,904.212685 319.693466,905.124832 318.276576,905.124832 L318.276576,905.124832 L318.276576,905.124832 Z M316.487838,906.611833 L320.257492,906.611833 L320.257492,918.5 L316.487838,918.5 L316.487838,906.611833 L316.487838,906.611833 Z" id="LinkedIn"></path>
        </g>
    </g>
</svg>