<?xml version="1.0" encoding="UTF-8"?>
<svg width="22px" height="18px" viewBox="0 0 22 18" version="1.1" xmlns="http://www.w3.org/2000/svg" xmlns:xlink="http://www.w3.org/1999/xlink">
    <!-- Generator: Sketch 41.1 (35376) - http://www.bohemiancoding.com/sketch -->
    <title>Twitter-color</title>
    <desc>Created with Sketch.</desc>
    <defs></defs>
    <g id="Distribute" stroke="none" stroke-width="1" fill="none" fill-rule="evenodd">
        <g id="03_distribute_empty" transform="translate(-232.000000, -901.000000)" fill="#9F9F9F">
            <path d="M253.098901,903.071687 C252.323652,903.423077 251.48896,903.660708 250.613399,903.766883 C251.507536,903.220838 252.193619,902.355002 252.516845,901.323583 C251.679676,901.82918 250.754579,902.197003 249.766322,902.394186 C248.97869,901.535934 247.852969,901 246.607122,901 C244.218217,901 242.280095,902.978151 242.280095,905.41766 C242.280095,905.763994 242.317247,906.100217 242.391552,906.423799 C238.793953,906.239256 235.60503,904.482304 233.468762,901.806428 C233.095999,902.461177 232.882991,903.220838 232.882991,904.029794 C232.882991,905.561755 233.647094,906.914229 234.808729,907.706753 C234.100354,907.685265 233.431609,907.48429 232.847077,907.155652 L232.847077,907.210004 C232.847077,909.35121 234.339369,911.137234 236.320835,911.541712 C235.957979,911.645359 235.575308,911.697183 235.180253,911.697183 C234.90161,911.697183 234.629158,911.670639 234.365375,911.618815 C234.916471,913.373239 236.514028,914.651138 238.408805,914.685265 C236.927659,915.870892 235.060127,916.577465 233.032839,916.577465 C232.683606,916.577465 232.338088,916.557241 232,916.516793 C233.91583,917.768147 236.19204,918.5 238.635435,918.5 C246.598453,918.5 250.951487,911.769231 250.951487,905.930841 C250.951487,905.738714 250.947772,905.546587 250.940341,905.358252 C251.78618,904.735103 252.520561,903.957746 253.098901,903.071687" id="Twitter"></path>
        </g>
    </g>
</svg>