<?xml version="1.0" encoding="UTF-8"?>
<svg width="21px" height="21px" viewBox="0 0 21 21" version="1.1" xmlns="http://www.w3.org/2000/svg" xmlns:xlink="http://www.w3.org/1999/xlink">
    <!-- Generator: Sketch 41.2 (35397) - http://www.bohemiancoding.com/sketch -->
    <title>ic_comments_active</title>
    <desc>Created with Sketch.</desc>
    <defs></defs>
    <g id="StoryBoard" stroke="none" stroke-width="1" fill="none" fill-rule="evenodd">
        <g id="03_storyboards_view" transform="translate(-694.000000, -981.000000)" fill="#FFFFFF">
            <path d="M704.5,998.0625 C703.7335,998.0625 702.99325,997.97325 702.281858,997.821652 L699.192216,999.678814 L699.233564,996.635152 C696.865196,995.210446 695.3125,992.855838 695.3125,990.1875 C695.3125,985.838544 699.425858,982.3125 704.5,982.3125 C709.574142,982.3125 713.6875,985.838544 713.6875,990.1875 C713.6875,994.536456 709.574142,998.0625 704.5,998.0625 M704.5,981 C698.701392,981 694,985.113358 694,990.1875 C694,993.08749 695.538902,995.669152 697.9375,997.353098 L697.9375,1002 L702.537152,999.208956 C703.17374,999.31399 703.828652,999.375 704.5,999.375 C710.299294,999.375 715,995.261642 715,990.1875 C715,985.113358 710.299294,981 704.5,981 M709.09375,988.21875 L699.90625,988.21875 C699.544,988.21875 699.25,988.51275 699.25,988.875 C699.25,989.23725 699.544,989.53125 699.90625,989.53125 L709.09375,989.53125 C709.456,989.53125 709.75,989.23725 709.75,988.875 C709.75,988.51275 709.456,988.21875 709.09375,988.21875 M707.78125,992.15625 L701.21875,992.15625 C700.8565,992.15625 700.5625,992.45025 700.5625,992.8125 C700.5625,993.17475 700.8565,993.46875 701.21875,993.46875 L707.78125,993.46875 C708.1435,993.46875 708.4375,993.17475 708.4375,992.8125 C708.4375,992.45025 708.1435,992.15625 707.78125,992.15625" id="ic_comments_active"></path>
        </g>
    </g>
</svg>