<?xml version="1.0" encoding="UTF-8"?>
<svg width="21px" height="21px" viewBox="0 0 21 21" version="1.1" xmlns="http://www.w3.org/2000/svg" xmlns:xlink="http://www.w3.org/1999/xlink">
    <!-- Generator: Sketch 41.2 (35397) - http://www.bohemiancoding.com/sketch -->
    <title>ic_comments_default</title>
    <desc>Created with Sketch.</desc>
    <defs></defs>
    <g id="StoryBoard" stroke="none" stroke-width="1" fill="none" fill-rule="evenodd" opacity="0.300000012">
        <g id="03_storyboards_view" transform="translate(-1030.000000, -981.000000)" fill="#FFFFFF">
            <path d="M1040.5,998.0625 C1039.7335,998.0625 1038.99325,997.97325 1038.28186,997.821652 L1035.19222,999.678814 L1035.23356,996.635152 C1032.8652,995.210446 1031.3125,992.855838 1031.3125,990.1875 C1031.3125,985.838544 1035.42586,982.3125 1040.5,982.3125 C1045.57414,982.3125 1049.6875,985.838544 1049.6875,990.1875 C1049.6875,994.536456 1045.57414,998.0625 1040.5,998.0625 M1040.5,981 C1034.70139,981 1030,985.113358 1030,990.1875 C1030,993.08749 1031.5389,995.669152 1033.9375,997.353098 L1033.9375,1002 L1038.53715,999.208956 C1039.17374,999.31399 1039.82865,999.375 1040.5,999.375 C1046.29929,999.375 1051,995.261642 1051,990.1875 C1051,985.113358 1046.29929,981 1040.5,981 M1045.09375,988.21875 L1035.90625,988.21875 C1035.544,988.21875 1035.25,988.51275 1035.25,988.875 C1035.25,989.23725 1035.544,989.53125 1035.90625,989.53125 L1045.09375,989.53125 C1045.456,989.53125 1045.75,989.23725 1045.75,988.875 C1045.75,988.51275 1045.456,988.21875 1045.09375,988.21875 M1043.78125,992.15625 L1037.21875,992.15625 C1036.8565,992.15625 1036.5625,992.45025 1036.5625,992.8125 C1036.5625,993.17475 1036.8565,993.46875 1037.21875,993.46875 L1043.78125,993.46875 C1044.1435,993.46875 1044.4375,993.17475 1044.4375,992.8125 C1044.4375,992.45025 1044.1435,992.15625 1043.78125,992.15625" id="ic_comments_default"></path>
        </g>
    </g>
</svg>