<?xml version="1.0" encoding="UTF-8"?>
<svg width="15px" height="20px" viewBox="0 0 15 20" version="1.1" xmlns="http://www.w3.org/2000/svg" xmlns:xlink="http://www.w3.org/1999/xlink">
    <!-- Generator: Sketch 41.2 (35397) - http://www.bohemiancoding.com/sketch -->
    <title>ic_notes_defualt</title>
    <desc>Created with Sketch.</desc>
    <defs></defs>
    <g id="StoryBoard" stroke="none" stroke-width="1" fill="none" fill-rule="evenodd" opacity="0.300000012">
        <g id="04_storyboards_messaging" transform="translate(-808.000000, -982.000000)" fill="#FFFFFF">
            <path d="M820.361352,987.681879 L820.361352,982.668181 L821.03087,982.668181 C821.398704,982.668181 821.697715,982.967526 821.697715,983.335026 L821.697715,987.681879 L820.361352,987.681879 Z M821.697715,998.70453 C821.697715,999.072364 821.39837,999.371375 821.03087,999.371375 L820.361352,999.371375 L820.361352,994.363691 L821.697715,994.363691 L821.697715,998.70453 Z M820.361352,993.69551 L821.697715,993.69551 L821.697715,988.35006 L820.361352,988.35006 L820.361352,993.69551 Z M818.690899,999.371375 L818.690899,994.363691 L818.690899,987.681879 L818.690899,982.668181 L819.693171,982.668181 L819.693171,987.681879 L819.693171,994.363691 L819.693171,999.371375 L818.690899,999.371375 L818.690899,999.371375 Z M812.009087,999.371375 L809.336362,999.371375 L808.668181,999.371375 L808.668181,994.363691 L818.022718,994.363691 L818.022718,999.371375 L812.009087,999.371375 L812.009087,999.371375 Z M811.340906,1000.75184 L810.672725,1000.30616 L810.004544,1000.75184 L810.004544,1000.03956 L811.340906,1000.03956 L811.340906,1000.75184 Z M808.668181,993.69551 L818.022718,993.69551 L818.022718,988.35006 L808.668181,988.35006 L808.668181,993.69551 Z M808.668181,982.668181 L818.022718,982.668181 L818.022718,987.681879 L808.668181,987.681879 L808.668181,982.668181 L808.668181,982.668181 Z M821.03087,982 L820.361352,982 L818.022718,982 L808,982 L808,987.681879 L808,994.363691 L808,1000.03956 L809.336362,1000.03956 L809.336362,1002 L810.672725,1001.10931 L812.009087,1002 L812.009087,1000.03956 L818.022718,1000.03956 L820.361352,1000.03956 L821.03087,1000.03956 C821.766872,1000.03956 822.365896,999.440532 822.365896,998.70453 L822.365896,994.363691 L822.365896,987.681879 L822.365896,983.335026 C822.365896,982.599024 821.766872,982 821.03087,982 L821.03087,982 Z" id="ic_notes_defualt"></path>
        </g>
    </g>
</svg>