<?xml version="1.0" encoding="UTF-8"?>
<svg width="15px" height="20px" viewBox="0 0 15 20" version="1.1" xmlns="http://www.w3.org/2000/svg" xmlns:xlink="http://www.w3.org/1999/xlink">
    <!-- Generator: Sketch 41.2 (35397) - http://www.bohemiancoding.com/sketch -->
    <title>ic_notes_active</title>
    <desc>Created with Sketch.</desc>
    <defs></defs>
    <g id="StoryBoard" stroke="none" stroke-width="1" fill="none" fill-rule="evenodd">
        <g id="04_storyboards_messaging" transform="translate(-768.000000, -982.000000)" fill="#FFFFFF">
            <path d="M780.361352,987.681879 L780.361352,982.668181 L781.03087,982.668181 C781.398704,982.668181 781.697715,982.967526 781.697715,983.335026 L781.697715,987.681879 L780.361352,987.681879 Z M781.697715,998.70453 C781.697715,999.072364 781.39837,999.371375 781.03087,999.371375 L780.361352,999.371375 L780.361352,994.363691 L781.697715,994.363691 L781.697715,998.70453 Z M780.361352,993.69551 L781.697715,993.69551 L781.697715,988.35006 L780.361352,988.35006 L780.361352,993.69551 Z M778.690899,999.371375 L778.690899,994.363691 L778.690899,987.681879 L778.690899,982.668181 L779.693171,982.668181 L779.693171,987.681879 L779.693171,994.363691 L779.693171,999.371375 L778.690899,999.371375 L778.690899,999.371375 Z M772.009087,999.371375 L769.336362,999.371375 L768.668181,999.371375 L768.668181,994.363691 L778.022718,994.363691 L778.022718,999.371375 L772.009087,999.371375 L772.009087,999.371375 Z M771.340906,1000.75184 L770.672725,1000.30616 L770.004544,1000.75184 L770.004544,1000.03956 L771.340906,1000.03956 L771.340906,1000.75184 Z M768.668181,993.69551 L778.022718,993.69551 L778.022718,988.35006 L768.668181,988.35006 L768.668181,993.69551 Z M768.668181,982.668181 L778.022718,982.668181 L778.022718,987.681879 L768.668181,987.681879 L768.668181,982.668181 L768.668181,982.668181 Z M781.03087,982 L780.361352,982 L778.022718,982 L768,982 L768,987.681879 L768,994.363691 L768,1000.03956 L769.336362,1000.03956 L769.336362,1002 L770.672725,1001.10931 L772.009087,1002 L772.009087,1000.03956 L778.022718,1000.03956 L780.361352,1000.03956 L781.03087,1000.03956 C781.766872,1000.03956 782.365896,999.440532 782.365896,998.70453 L782.365896,994.363691 L782.365896,987.681879 L782.365896,983.335026 C782.365896,982.599024 781.766872,982 781.03087,982 L781.03087,982 Z" id="ic_notes_active"></path>
        </g>
    </g>
</svg>