<?xml version="1.0" encoding="UTF-8"?>
<svg width="105px" height="104px" viewBox="0 0 105 104" version="1.1" xmlns="http://www.w3.org/2000/svg" xmlns:xlink="http://www.w3.org/1999/xlink">
    <!-- Generator: Sketch 42 (36781) - http://www.bohemiancoding.com/sketch -->
    <title>ic_present_empty</title>
    <desc>Created with Sketch.</desc>
    <defs></defs>
    <g id="StoryBoard" stroke="none" stroke-width="1" fill="none" fill-rule="evenodd">
        <g id="00_present_empty" transform="translate(-669.000000, -366.000000)" fill-rule="nonzero" fill="#C32026">
            <g id="ic_present_empty" transform="translate(669.000000, 366.000000)">
                <g id="Layer_1">
                    <g id="Group">
                        <path d="M2.11710794,4.29053498 L6.05193483,4.29053498 L6.05193483,65.7489712 C6.05193483,68.8518519 8.57535642,71.3769547 11.6761711,71.3769547 L93.5376782,71.3769547 C96.6384929,71.3769547 99.1619145,68.8518519 99.1619145,65.7489712 L99.1619145,4.29053498 L102.690428,4.29053498 C103.866599,4.29053498 104.807536,3.34897119 104.807536,2.17201646 C104.807536,0.995061728 103.866599,0.0534979424 102.690428,0.0534979424 L2.11710794,0.0534979424 C0.940936864,0.0534979424 0,0.995061728 0,2.17201646 C0,3.34897119 0.962321792,4.29053498 2.11710794,4.29053498 Z M10.2861507,4.29053498 L94.9276986,4.29053498 L94.9276986,65.7489712 C94.9276986,66.5193416 94.3075356,67.1399177 93.5376782,67.1399177 L11.6761711,67.1399177 C10.9063136,67.1399177 10.2861507,66.5193416 10.2861507,65.7489712 L10.2861507,4.29053498 Z" id="Shape"></path>
                        <path d="M36.5682281,100.35144 C35.7342159,101.186008 35.7342159,102.512757 36.5682281,103.347325 C36.9745418,103.753909 37.5305499,103.967901 38.0651731,103.967901 C38.5997963,103.967901 39.1558045,103.753909 39.5621181,103.347325 L51.5162933,91.3851852 L51.5162933,101.849383 C51.5162933,103.026337 52.4572301,103.967901 53.6334012,103.967901 C54.8095723,103.967901 55.7505092,103.026337 55.7505092,101.849383 L55.7505092,91.3851852 L67.6405295,103.283128 C68.0468432,103.689712 68.6028513,103.903704 69.1374745,103.903704 C69.6720978,103.903704 70.2281059,103.689712 70.6344196,103.283128 C71.4684318,102.44856 71.4684318,101.121811 70.6344196,100.287243 L55.7505092,85.3934156 L55.7505092,79.872428 L63.1283096,79.872428 C64.3044807,79.872428 65.2454175,78.9308642 65.2454175,77.7539095 C65.2454175,76.5769547 64.3044807,75.6353909 63.1283096,75.6353909 L43.8391039,75.6353909 C42.6629328,75.6353909 41.7219959,76.5769547 41.7219959,77.7539095 C41.7219959,78.9308642 42.6629328,79.872428 43.8391039,79.872428 L51.5162933,79.872428 L51.5162933,85.3934156 L36.5682281,100.35144 Z" id="Shape"></path>
                        <path d="M87.0152749,36.7530864 L83.5295316,40.2625514 C82.6955193,41.0971193 82.7169043,42.4238683 83.5295316,43.2584362 C83.9358452,43.6650206 84.4918534,43.8790123 85.0264766,43.8790123 C85.5610998,43.8790123 86.1171079,43.6650206 86.5234216,43.2584362 L91.50611,38.2296296 C91.9124236,37.8230453 92.1262729,37.2880658 92.1262729,36.7316872 C92.1262729,36.1753086 91.8910387,35.6403292 91.50611,35.2337449 L86.4806517,30.2477366 C85.6466395,29.4131687 84.3207739,29.4345679 83.4867617,30.2477366 C82.6527495,31.0823045 82.6741344,32.4090535 83.4867617,33.2436214 L87.0152749,36.7530864 Z" id="Shape"></path>
                        <path d="M19.0967413,43.237037 C19.503055,43.6436214 20.0590631,43.8576132 20.5936864,43.8576132 C21.1283096,43.8576132 21.6629328,43.6436214 22.0906314,43.237037 C22.9246436,42.4024691 22.9246436,41.0757202 22.0906314,40.2411523 L18.604888,36.7316872 L22.1120163,33.2436214 C22.9460285,32.4090535 22.9460285,31.0823045 22.1120163,30.2477366 C21.2780041,29.4131687 19.9521385,29.4131687 19.1181263,30.2477366 L14.092668,35.2337449 C13.6863544,35.6403292 13.4725051,36.1753086 13.4725051,36.7316872 C13.4725051,37.2880658 13.6863544,37.8230453 14.092668,38.2296296 L19.0967413,43.237037 Z" id="Shape"></path>
                        <path d="M27.9287169,58.3662551 L76.9002037,58.3662551 C78.0763747,58.3662551 79.0173116,57.4246914 79.0173116,56.2477366 L79.0173116,15.2041152 C79.0173116,14.0271605 78.0763747,13.0855967 76.9002037,13.0855967 L27.9287169,13.0855967 C26.7525458,13.0855967 25.811609,14.0271605 25.811609,15.2041152 L25.811609,56.2691358 C25.811609,57.4246914 26.7525458,58.3662551 27.9287169,58.3662551 Z M30.0458248,17.3226337 L74.7830957,17.3226337 L74.7830957,37.8872428 L64.5824847,27.6798354 C63.7484725,26.8452675 62.4226069,26.8452675 61.5885947,27.6798354 L45.913442,43.3654321 L41.0590631,38.5292181 C40.6527495,38.1226337 40.1181263,37.908642 39.5621181,37.908642 C39.00611,37.908642 38.4714868,38.1226337 38.0651731,38.5292181 L30.0458248,46.5539095 L30.0458248,17.3226337 Z M30.0458248,52.545679 L39.5621181,43.0230453 L44.4164969,47.8806584 C44.8228106,48.2872428 45.3574338,48.5012346 45.913442,48.5012346 C46.4694501,48.5012346 47.0040733,48.2872428 47.410387,47.8806584 L63.0855397,32.1950617 L74.7830957,43.9004115 L74.7830957,54.1506173 L30.0458248,54.1506173 L30.0458248,52.545679 Z" id="Shape"></path>
                        <path d="M49.0142566,28.1720165 C49.0142566,24.5769547 46.0845214,21.6452675 42.4918534,21.6452675 C38.8991853,21.6452675 35.9694501,24.5769547 35.9694501,28.1720165 C35.9694501,31.7670782 38.8991853,34.6987654 42.4918534,34.6987654 C46.0845214,34.6987654 49.0142566,31.7670782 49.0142566,28.1720165 Z M40.203666,28.1720165 C40.203666,26.909465 41.2301426,25.8823045 42.4918534,25.8823045 C43.7535642,25.8823045 44.7800407,26.909465 44.7800407,28.1720165 C44.7800407,29.4345679 43.7535642,30.4617284 42.4918534,30.4617284 C41.2301426,30.4617284 40.203666,29.4345679 40.203666,28.1720165 Z" id="Shape"></path>
                    </g>
                </g>
            </g>
        </g>
    </g>
</svg>