<?xml version="1.0" encoding="UTF-8"?>
<svg width="19px" height="21px" viewBox="0 0 19 21" version="1.1" xmlns="http://www.w3.org/2000/svg" xmlns:xlink="http://www.w3.org/1999/xlink">
    <!-- Generator: Sketch 41.2 (35397) - http://www.bohemiancoding.com/sketch -->
    <title>ic_share_default</title>
    <desc>Created with Sketch.</desc>
    <defs></defs>
    <g id="StoryBoard" stroke="none" stroke-width="1" fill="none" fill-rule="evenodd" opacity="0.300000012">
        <g id="03_storyboards_view" transform="translate(-1172.000000, -981.000000)" fill="#FFFFFF">
            <path d="M1187.39251,1000.02093 C1186.02819,1000.02093 1184.91916,998.911894 1184.91916,997.547577 C1184.91916,996.18326 1186.02819,995.074229 1187.39251,995.074229 C1188.75683,995.074229 1189.86586,996.18326 1189.86586,997.547577 C1189.86586,998.911894 1188.75683,1000.02093 1187.39251,1000.02093 M1175.60749,993.546696 C1174.24317,993.546696 1173.13414,992.437665 1173.13414,991.073348 C1173.13414,989.709031 1174.24317,988.6 1175.60749,988.6 C1176.97181,988.6 1178.08084,989.709031 1178.08084,991.073348 C1178.08084,992.437665 1176.96762,993.546696 1175.60749,993.546696 M1187.39251,982.134141 C1188.75683,982.134141 1189.86586,983.243172 1189.86586,984.607489 C1189.86586,985.971806 1188.75683,987.080837 1187.39251,987.080837 C1186.02819,987.080837 1184.91916,985.971806 1184.91916,984.607489 C1184.91916,983.243172 1186.03238,982.134141 1187.39251,982.134141 M1187.39251,993.948458 C1186.23326,993.948458 1185.19956,994.500881 1184.53833,995.354626 L1179.00154,992.261894 C1179.13128,991.889427 1179.20242,991.487665 1179.20242,991.073348 C1179.20242,990.654846 1179.13128,990.257269 1178.99736,989.880617 L1184.52996,986.79207 C1185.187,987.65 1186.22489,988.206608 1187.38833,988.206608 C1189.37203,988.206608 1190.99163,986.591189 1190.99163,984.603304 C1190.99163,982.615419 1189.37621,981 1187.38833,981 C1185.40044,981 1183.78502,982.615419 1183.78502,984.603304 C1183.78502,985.021806 1183.85617,985.423568 1183.99009,985.796035 L1178.46167,988.884581 C1177.80463,988.022467 1176.76674,987.470044 1175.6033,987.470044 C1173.6196,987.470044 1172,989.085463 1172,991.073348 C1172,993.061233 1173.6196,994.676652 1175.60749,994.676652 C1176.77093,994.676652 1177.80881,994.120044 1178.47004,993.25793 L1184.00264,996.350661 C1183.86872,996.727313 1183.79339,997.13326 1183.79339,997.551762 C1183.79339,999.535463 1185.40881,1001.15507 1187.3967,1001.15507 C1189.38458,1001.15507 1191,999.539648 1191,997.551762 C1191,995.563877 1189.3804,993.948458 1187.39251,993.948458" id="ic_share_default"></path>
        </g>
    </g>
</svg>