<?xml version="1.0" encoding="UTF-8"?>
<svg width="19px" height="21px" viewBox="0 0 19 21" version="1.1" xmlns="http://www.w3.org/2000/svg" xmlns:xlink="http://www.w3.org/1999/xlink">
    <!-- Generator: Sketch 41.2 (35397) - http://www.bohemiancoding.com/sketch -->
    <title>ic_share_active</title>
    <desc>Created with Sketch.</desc>
    <defs></defs>
    <g id="StoryBoard" stroke="none" stroke-width="1" fill="none" fill-rule="evenodd">
        <g id="03_storyboards_view" transform="translate(-836.000000, -981.000000)" fill="#FFFFFF">
            <path d="M851.392511,1000.02093 C850.028194,1000.02093 848.919163,998.911894 848.919163,997.547577 C848.919163,996.18326 850.028194,995.074229 851.392511,995.074229 C852.756828,995.074229 853.865859,996.18326 853.865859,997.547577 C853.865859,998.911894 852.756828,1000.02093 851.392511,1000.02093 M839.607489,993.546696 C838.243172,993.546696 837.134141,992.437665 837.134141,991.073348 C837.134141,989.709031 838.243172,988.6 839.607489,988.6 C840.971806,988.6 842.080837,989.709031 842.080837,991.073348 C842.080837,992.437665 840.967621,993.546696 839.607489,993.546696 M851.392511,982.134141 C852.756828,982.134141 853.865859,983.243172 853.865859,984.607489 C853.865859,985.971806 852.756828,987.080837 851.392511,987.080837 C850.028194,987.080837 848.919163,985.971806 848.919163,984.607489 C848.919163,983.243172 850.032379,982.134141 851.392511,982.134141 M851.392511,993.948458 C850.23326,993.948458 849.199559,994.500881 848.538326,995.354626 L843.001542,992.261894 C843.131278,991.889427 843.202423,991.487665 843.202423,991.073348 C843.202423,990.654846 843.131278,990.257269 842.997357,989.880617 L848.529956,986.79207 C849.187004,987.65 850.22489,988.206608 851.388326,988.206608 C853.372026,988.206608 854.99163,986.591189 854.99163,984.603304 C854.99163,982.615419 853.376211,981 851.388326,981 C849.400441,981 847.785022,982.615419 847.785022,984.603304 C847.785022,985.021806 847.856167,985.423568 847.990088,985.796035 L842.461674,988.884581 C841.804626,988.022467 840.76674,987.470044 839.603304,987.470044 C837.619604,987.470044 836,989.085463 836,991.073348 C836,993.061233 837.619604,994.676652 839.607489,994.676652 C840.770925,994.676652 841.808811,994.120044 842.470044,993.25793 L848.002643,996.350661 C847.868722,996.727313 847.793392,997.13326 847.793392,997.551762 C847.793392,999.535463 849.408811,1001.15507 851.396696,1001.15507 C853.384581,1001.15507 855,999.539648 855,997.551762 C855,995.563877 853.380396,993.948458 851.392511,993.948458" id="ic_share_active"></path>
        </g>
    </g>
</svg>