<?xml version="1.0" encoding="UTF-8"?>
<svg width="30px" height="20px" viewBox="0 0 30 20" version="1.1" xmlns="http://www.w3.org/2000/svg" xmlns:xlink="http://www.w3.org/1999/xlink">
    <!-- Generator: Sketch 41.2 (35397) - http://www.bohemiancoding.com/sketch -->
    <title>ic_view_default</title>
    <desc>Created with Sketch.</desc>
    <defs></defs>
    <g id="StoryBoard" stroke="none" stroke-width="1" fill="none" fill-rule="evenodd" opacity="0.300000012">
        <g id="03_storyboards_view" transform="translate(-946.000000, -981.000000)" fill="#FFFFFF">
            <g id="ic_view_default" transform="translate(946.000000, 981.000000)">
                <g id="Group-3" transform="translate(0.000000, 0.072793)">
                    <path d="M29.0059259,5.72261261 C25.1326156,2.04396396 20.0318679,0.0178378378 14.643754,0.0172972973 L14.6427473,0.0172972973 L14.6417406,0.0172972973 C9.25380982,0.0178378378 4.15315357,2.04387387 0.279751786,5.72261261 C-0.0840316964,6.06801802 -0.0943732143,6.63837838 0.256597768,6.99648649 C0.436155804,7.17972973 0.675566518,7.27189189 0.915343304,7.27189189 C1.14404643,7.27189189 1.37311563,7.18792793 1.55066027,7.01927928 C5.08132768,3.66612613 9.73098393,1.81936937 14.6428388,1.8190991 C19.5547853,1.81936937 24.204533,3.66612613 27.7351089,7.01927928 C28.0988009,7.36486486 28.678292,7.35468468 29.0291714,6.99648649 C29.3800509,6.63837838 29.3697094,6.06801802 29.0059259,5.72261261" id="Fill-1"></path>
                </g>
                <path d="M20.2860221,16.9072973 C20.88281,15.8610811 21.2166672,14.6527928 21.2166672,13.3942342 C21.2166672,12.0371171 20.8432743,10.7421622 20.13456,9.61945946 C22.530223,10.6727027 24.40881,12.2004505 25.5628502,13.2972973 C24.4333368,14.3710811 22.6092944,15.857027 20.2860221,16.9072973 M12.2949574,17.9593694 C10.6512051,17.0752252 9.6337096,15.3354054 9.6337096,13.3941441 C9.6337096,11.1772072 10.9713346,9.22882883 12.966973,8.52810811 C13.5108636,8.45513514 14.0693056,8.41387387 14.6422074,8.41387387 C15.0701449,8.41387387 15.4897542,8.43756757 15.9017676,8.4790991 C17.9552453,9.12261261 19.38631,11.1374775 19.38631,13.3941441 C19.38631,15.3705405 18.2972475,17.1740541 16.6020623,18.0254955 C15.9691248,18.1246847 15.3155958,18.1809009 14.6422074,18.1809009 C13.830627,18.1809009 13.0471426,18.1004505 12.2949574,17.9593694 M8.77865826,9.78837838 C8.15468951,10.8486486 7.80335246,12.0875676 7.80335246,13.3941441 C7.80335246,14.5914414 8.09630112,15.7332432 8.62902656,16.7345946 C6.48174308,15.6986486 4.79067612,14.3133333 3.72174754,13.2972973 C4.81547746,12.2578378 6.56008237,10.8313514 8.77865826,9.78837838 M14.6422074,6.61207207 C8.28464487,6.61207207 3.52168951,10.8543243 1.76903103,12.6781982 C1.4352654,13.0254955 1.4352654,13.569009 1.76903103,13.9163964 C3.52150647,15.7403604 8.28418728,19.9827027 14.6422074,19.9827027 C21.0005935,19.9827027 25.7630913,15.7402703 27.5155667,13.9163063 C27.8492408,13.569009 27.8492408,13.0254955 27.5154752,12.6781982 C25.7629083,10.8543243 21.0001359,6.61207207 14.6422074,6.61207207" id="Fill-4"></path>
                <path d="M16.8303078,13.3942342 C15.5495154,13.3942342 14.5099641,12.3724324 14.5099641,11.1137838 C13.2290801,11.1137838 12.1898033,12.1354955 12.1898033,13.3942342 C12.1898033,14.6528829 13.2290801,15.6746847 14.5099641,15.6746847 C15.791031,15.6745946 16.8303078,14.6527928 16.8303078,13.3942342" id="Fill-6"></path>
            </g>
        </g>
    </g>
</svg>